<?xml version="1.0" encoding="UTF-8" ?>
<!DOCTYPE svg PUBLIC "-//W3C//DTD SVG 1.1//EN" "http://www.w3.org/Graphics/SVG/1.1/DTD/svg11.dtd">
<svg width="1000pt" height="750pt" viewBox="0 0 1000 750" version="1.1" xmlns="http://www.w3.org/2000/svg">
<g id="#ef453aff">
<path fill="#ef453a" opacity="1.00" d=" M 647.32 122.30 C 652.33 120.40 657.44 123.68 660.47 127.51 C 666.73 135.43 669.29 145.61 670.37 155.47 C 671.12 167.86 671.50 180.62 667.52 192.56 C 665.22 199.41 661.98 206.53 655.88 210.80 C 652.10 213.50 646.54 213.03 643.38 209.60 C 636.47 202.16 632.77 192.25 631.48 182.29 C 629.81 169.62 630.12 156.58 633.08 144.12 C 635.21 135.70 638.65 125.92 647.32 122.30 Z" />
<path fill="#ef453a" opacity="1.00" d=" M 794.44 122.46 C 798.11 120.62 802.60 121.80 805.57 124.43 C 810.68 128.78 813.60 135.09 815.73 141.32 C 820.16 154.52 819.88 168.73 818.29 182.39 C 816.82 191.68 813.90 201.32 807.23 208.24 C 804.25 211.44 799.51 213.58 795.22 211.88 C 790.35 209.89 787.85 204.90 785.44 200.57 C 781.01 192.44 779.42 183.12 778.88 173.98 C 778.21 161.41 779.49 148.60 783.74 136.70 C 785.93 131.18 788.93 125.30 794.44 122.46 Z" />
<path fill="#ef453a" opacity="1.00" d=" M 149.83 227.73 C 158.26 224.92 167.23 224.65 176.01 224.06 C 176.14 258.50 176.47 292.96 175.98 327.39 C 166.93 327.86 157.98 329.94 149.74 333.75 C 129.16 343.09 112.95 359.78 99.87 377.85 C 79.60 406.25 66.10 438.91 56.23 472.21 C 50.40 493.99 45.63 516.03 41.22 538.13 C 27.50 521.22 16.07 502.27 0.00 487.35 L 0.00 477.79 C 1.39 474.16 2.79 470.54 3.84 466.80 C 9.26 447.66 13.12 428.10 19.13 409.13 C 29.77 374.35 43.39 340.30 61.91 308.93 C 76.50 284.20 94.91 261.27 118.20 244.23 C 127.87 237.25 138.48 231.46 149.83 227.73 Z" />
</g>
<g id="#282829ff">
<path fill="#282829" opacity="1.00" d=" M 431.69 226.72 C 443.07 220.15 457.52 220.27 469.28 225.81 C 479.91 230.65 487.39 240.36 492.37 250.65 C 500.85 268.49 502.33 288.56 504.89 307.88 C 492.98 308.43 481.02 308.59 469.11 307.89 C 466.12 299.57 464.26 290.44 458.47 283.50 C 455.87 280.21 451.18 280.77 447.57 281.65 C 442.39 283.53 439.79 288.97 437.76 293.71 C 431.23 311.07 431.42 330.11 433.63 348.27 C 435.23 357.67 438.03 367.99 445.79 374.20 C 451.09 378.24 458.07 373.97 461.20 369.21 C 466.37 360.66 467.10 350.43 469.88 341.02 C 481.65 340.51 493.44 340.41 505.21 340.82 C 503.38 362.72 502.02 385.41 492.58 405.63 C 487.91 415.80 480.99 425.49 470.94 430.88 C 462.21 435.74 451.73 436.79 442.01 434.94 C 430.20 432.34 420.77 423.55 414.49 413.56 C 404.77 398.11 400.93 379.88 398.64 362.00 C 396.17 342.33 395.95 322.40 397.73 302.66 C 399.39 287.83 401.82 272.95 406.95 258.89 C 411.80 246.13 419.47 233.56 431.69 226.72 Z" />
<path fill="#282829" opacity="1.00" d=" M 559.35 222.37 C 568.89 220.26 579.18 222.22 587.22 227.78 C 599.78 236.22 607.16 250.27 611.67 264.34 C 615.92 277.14 617.27 290.62 618.59 303.97 C 619.81 321.52 619.91 339.19 618.46 356.73 C 616.61 373.67 613.70 390.82 606.37 406.36 C 601.24 416.84 593.80 426.89 583.07 432.12 C 571.67 437.85 557.62 436.44 546.65 430.37 C 537.12 424.57 530.85 414.81 526.15 404.94 C 517.38 386.08 514.86 365.09 513.58 344.55 C 512.47 320.67 513.48 296.49 519.12 273.18 C 522.39 259.71 527.42 246.23 536.68 235.67 C 542.52 228.91 550.51 223.95 559.35 222.37 M 563.43 283.43 C 557.20 286.82 554.22 293.90 552.34 300.38 C 548.86 313.18 548.90 326.58 549.54 339.73 C 550.17 348.55 551.00 357.75 555.49 365.59 C 557.55 369.19 560.72 372.65 565.01 373.35 C 568.85 374.04 572.63 371.97 574.97 369.01 C 579.34 363.70 580.83 356.80 582.17 350.22 C 585.16 337.17 585.05 323.52 582.65 310.39 C 581.05 302.27 578.85 293.93 573.82 287.20 C 571.57 283.98 567.30 281.43 563.43 283.43 Z" />
<path fill="#282829" opacity="1.00" d=" M 847.12 233.15 C 855.18 226.99 864.82 222.55 875.02 221.69 C 887.85 220.40 900.80 224.44 911.41 231.56 C 919.43 237.31 923.05 247.04 925.90 256.10 C 928.89 266.79 930.89 277.82 931.21 288.93 C 918.80 289.24 906.39 289.22 893.98 288.98 C 891.55 282.37 889.31 274.89 883.08 270.82 C 876.73 266.33 866.57 272.33 867.01 279.94 C 866.84 284.55 867.04 289.16 867.20 293.78 C 882.97 300.44 900.72 301.08 915.96 309.13 C 922.47 312.31 926.09 319.05 928.47 325.59 C 933.22 338.81 934.16 353.06 934.00 367.01 C 933.55 380.60 931.91 394.33 927.19 407.15 C 924.86 413.25 921.82 419.47 916.42 423.41 C 905.07 431.64 891.14 437.07 876.95 436.07 C 865.45 435.41 854.44 430.55 845.47 423.45 C 838.97 417.85 835.99 409.40 833.56 401.43 C 830.33 389.61 828.65 377.34 828.72 365.08 C 841.95 365.01 855.20 364.36 868.41 365.41 C 870.25 371.85 872.23 378.96 877.80 383.22 C 881.39 386.04 886.46 385.12 890.26 383.22 C 892.52 382.08 892.66 379.21 893.03 377.02 C 893.46 371.74 893.74 366.39 893.17 361.12 C 891.40 359.58 889.16 358.78 887.02 357.96 C 875.71 353.90 863.68 351.69 852.98 346.03 C 847.95 343.35 842.82 340.22 839.80 335.22 C 835.29 327.92 833.24 319.42 831.90 311.03 C 829.13 293.12 829.79 274.62 834.03 256.99 C 836.36 248.22 839.60 238.84 847.12 233.15 Z" />
<path fill="#282829" opacity="1.00" d=" M 209.67 231.66 C 221.36 223.95 236.03 222.17 249.63 224.45 C 257.49 225.90 266.12 227.09 272.07 232.96 C 281.74 242.21 286.31 255.47 288.51 268.37 C 293.08 302.71 291.78 337.45 291.96 372.00 C 291.98 390.91 291.92 409.86 293.78 428.70 C 282.27 428.82 270.77 428.59 259.26 428.70 C 258.46 420.79 258.36 412.84 257.80 404.92 C 251.04 416.19 243.74 428.66 231.15 434.13 C 220.64 437.60 208.06 435.83 199.65 428.34 C 192.87 422.42 188.95 413.95 186.57 405.43 C 184.09 396.87 183.65 387.90 183.35 379.05 C 182.93 363.61 182.74 347.88 186.93 332.87 C 189.63 322.48 196.87 313.12 206.83 308.83 C 214.93 305.24 223.94 305.37 232.58 304.49 C 240.72 303.62 249.12 300.92 254.96 294.95 C 257.06 292.85 256.32 289.61 256.18 286.97 C 255.62 281.21 252.91 275.07 247.37 272.57 C 242.60 270.48 236.36 269.51 232.00 273.02 C 226.80 277.16 224.58 283.73 222.65 289.84 C 211.25 290.87 199.76 290.56 188.34 290.11 C 189.54 275.81 191.50 261.35 196.92 247.96 C 199.51 241.48 203.46 235.20 209.67 231.66 M 231.55 347.50 C 227.93 349.14 224.15 350.66 221.10 353.27 C 220.45 357.79 221.27 362.37 221.47 366.90 C 221.87 370.85 221.73 375.29 224.46 378.50 C 227.16 381.97 231.34 385.02 235.98 384.32 C 241.34 383.64 245.34 379.46 248.30 375.27 C 255.48 364.62 258.37 351.63 259.07 338.96 C 249.75 341.29 240.42 343.80 231.55 347.50 Z" />
<path fill="#282829" opacity="1.00" d=" M 359.64 224.70 C 366.30 222.18 374.10 225.23 378.00 231.01 C 382.70 238.02 384.80 246.38 386.42 254.56 C 390.41 276.02 389.69 297.95 389.82 319.68 C 380.34 319.48 370.86 319.73 361.38 319.71 C 360.27 312.49 359.45 305.22 358.00 298.06 C 357.39 295.52 356.91 292.84 355.47 290.61 C 353.00 288.85 349.97 288.19 347.14 287.22 C 340.61 334.13 345.55 381.59 343.85 428.73 C 332.52 428.65 321.19 428.71 309.86 428.80 C 309.39 399.87 309.77 370.93 309.65 342.00 C 309.75 304.36 309.39 266.72 309.76 229.08 C 319.69 228.41 330.04 226.29 339.79 229.14 C 342.11 232.07 343.43 235.63 345.29 238.85 C 348.76 233.07 353.06 227.12 359.64 224.70 Z" />
<path fill="#282829" opacity="1.00" d=" M 735.03 226.01 C 739.56 223.19 745.71 222.74 750.25 225.78 C 757.03 230.19 760.12 238.21 762.34 245.64 C 768.93 269.73 767.32 294.98 767.70 319.69 C 758.23 319.60 748.76 319.56 739.29 319.64 C 738.02 311.61 737.14 303.52 735.55 295.55 C 735.02 293.63 734.80 291.21 732.89 290.13 C 730.28 288.81 727.30 288.64 724.48 288.12 C 719.36 334.83 722.88 381.87 721.73 428.73 C 710.27 428.74 698.80 428.64 687.34 428.65 C 687.38 361.87 687.48 295.09 687.34 228.31 C 698.10 228.28 709.02 226.76 719.63 229.21 C 720.47 232.60 721.43 235.97 722.56 239.28 C 726.12 234.36 729.62 229.07 735.03 226.01 Z" />
<path fill="#282829" opacity="1.00" d=" M 634.25 229.14 C 645.35 227.03 656.67 228.27 667.87 228.34 C 668.25 278.89 667.92 329.44 668.03 380.00 C 667.90 396.22 668.35 412.44 667.85 428.66 C 656.52 428.65 645.20 428.71 633.88 428.73 C 633.37 407.82 633.86 386.90 633.65 366.00 C 633.73 320.38 633.16 274.75 634.25 229.14 Z" />
<path fill="#282829" opacity="1.00" d=" M 781.17 228.41 C 792.45 228.43 804.04 226.41 815.05 229.80 C 815.73 284.19 815.37 338.60 815.35 393.00 C 815.19 404.90 815.74 416.81 815.15 428.70 C 803.82 428.63 792.50 428.76 781.17 428.85 C 780.82 374.90 781.08 320.95 781.00 267.00 C 781.10 254.14 780.78 241.27 781.17 228.41 Z" />
</g>
<g id="#ffda23ff">
<path fill="#ffda23" opacity="1.00" d=" M 157.58 340.41 C 163.74 338.54 170.19 337.98 176.60 338.19 C 176.43 368.37 176.55 398.54 176.65 428.72 C 158.17 431.75 141.32 442.05 129.65 456.61 C 106.84 485.19 95.37 520.86 88.22 556.24 C 82.12 586.41 79.17 617.17 78.71 647.93 C 65.11 648.08 51.51 647.99 37.91 647.97 C 37.48 602.10 41.86 556.13 51.51 511.26 C 58.14 481.16 67.34 451.52 80.54 423.61 C 89.04 405.08 99.42 387.25 112.75 371.75 C 124.77 357.87 139.65 345.52 157.58 340.41 Z" />
</g>
<g id="#45b653ff">
<path fill="#45b653" opacity="1.00" d=" M 163.37 442.32 C 174.31 439.25 185.75 440.52 196.94 440.66 C 326.29 440.51 455.65 440.62 585.00 440.97 C 684.00 441.05 783.00 441.06 882.00 440.98 C 921.33 440.78 960.67 440.51 1000.00 440.59 L 1000.00 450.18 C 996.51 459.82 994.86 469.96 993.02 480.01 C 990.18 496.63 988.06 513.37 985.60 530.05 C 962.09 530.70 938.56 530.13 915.05 530.54 C 676.01 531.00 436.98 530.56 197.95 530.70 C 188.63 530.66 179.07 529.31 169.97 531.98 C 163.82 533.68 158.33 537.33 154.06 542.03 C 144.49 552.27 138.65 565.32 134.51 578.54 C 127.65 600.62 124.94 623.71 123.72 646.72 C 110.42 646.63 97.11 646.59 83.81 646.54 C 83.16 637.00 83.87 627.44 84.36 617.91 C 87.02 580.07 94.11 542.31 107.86 506.86 C 111.16 498.78 114.25 490.50 119.22 483.26 C 125.56 473.77 132.04 464.24 140.25 456.24 C 146.74 449.91 154.51 444.61 163.37 442.32 M 447.09 458.08 C 441.03 461.03 437.61 467.37 435.30 473.42 C 434.92 474.91 433.87 476.68 434.97 478.11 C 440.56 485.99 448.43 491.85 454.86 498.97 C 451.99 501.65 448.52 503.58 445.23 505.70 C 441.42 500.25 437.17 494.37 430.32 492.71 C 431.46 500.52 433.29 509.07 439.43 514.56 C 443.17 518.06 449.17 518.15 453.29 515.27 C 459.27 511.22 462.81 504.39 464.72 497.59 C 465.64 495.23 463.62 493.38 462.26 491.75 C 455.68 484.61 448.56 477.70 444.02 469.00 C 453.11 469.04 460.07 475.34 467.83 479.10 C 466.62 472.36 464.88 465.11 459.77 460.19 C 456.49 456.95 451.24 455.97 447.09 458.08 M 505.83 458.80 C 503.81 460.73 502.84 463.46 501.98 466.06 C 498.32 478.10 498.40 491.02 493.79 502.81 C 489.59 503.83 485.29 504.43 480.97 504.36 C 482.54 489.44 485.37 474.68 487.22 459.79 C 484.21 459.69 481.19 459.65 478.18 459.71 C 476.36 472.49 473.92 485.18 472.70 498.04 C 471.73 504.94 475.57 512.04 481.43 515.61 C 488.56 519.38 497.47 514.73 501.23 508.26 C 505.59 499.52 506.78 489.66 508.26 480.12 C 509.16 472.36 510.63 464.64 510.92 456.81 C 509.20 457.39 507.29 457.66 505.83 458.80 M 915.30 457.32 C 909.27 458.65 904.06 462.76 901.08 468.14 C 895.85 477.26 893.92 488.27 895.47 498.65 C 897.05 505.44 900.45 512.78 907.11 515.87 C 912.89 518.49 919.54 516.02 924.11 512.14 C 931.49 506.24 934.32 496.62 935.66 487.64 C 936.92 478.48 935.62 468.03 928.72 461.28 C 925.35 457.66 920.09 456.09 915.30 457.32 M 618.36 458.10 C 616.21 462.55 614.15 467.06 612.62 471.78 C 615.47 472.03 618.32 472.29 621.17 472.56 C 619.86 474.99 618.66 477.72 616.23 479.25 C 612.92 481.44 608.75 480.71 605.02 480.78 C 606.64 473.39 609.16 466.22 610.37 458.74 C 607.04 459.16 603.65 459.41 600.47 460.51 C 599.14 462.56 598.77 465.04 598.23 467.38 C 596.38 476.87 594.72 486.40 593.64 496.01 C 592.83 503.26 591.48 510.49 591.69 517.81 C 593.73 516.56 595.95 515.34 597.18 513.19 C 600.90 507.21 602.05 500.12 603.56 493.37 C 607.02 493.20 610.49 493.16 613.96 493.19 C 614.66 500.01 613.98 507.40 617.48 513.57 C 618.71 515.98 621.55 516.42 623.88 517.18 C 624.75 509.46 624.18 501.69 624.32 493.95 C 624.30 486.11 628.11 478.83 627.93 470.98 C 628.45 464.82 622.19 461.73 618.36 458.10 M 674.94 458.92 C 672.10 460.73 670.15 463.58 668.47 466.43 C 663.34 475.50 660.60 485.64 656.32 495.10 C 654.52 483.41 654.07 471.56 652.17 459.89 C 648.64 459.64 645.11 459.44 641.58 459.36 C 638.81 475.41 636.20 491.49 633.43 507.55 C 633.03 510.07 632.90 512.63 632.83 515.19 C 634.46 515.16 636.13 515.26 637.77 514.98 C 639.81 513.45 640.82 510.97 641.69 508.65 C 643.81 502.50 644.39 495.96 646.46 489.80 C 647.86 496.62 647.96 503.65 649.65 510.42 C 650.32 512.69 651.07 515.37 653.30 516.60 C 654.84 516.94 655.49 515.30 656.30 514.32 C 661.17 506.98 663.85 498.49 667.95 490.73 C 667.93 499.58 666.45 508.33 666.21 517.17 C 669.12 515.50 671.87 513.31 673.14 510.10 C 677.00 501.27 677.97 491.54 679.25 482.09 C 680.10 473.95 681.51 465.87 682.29 457.71 C 679.83 457.90 677.11 457.52 674.94 458.92 M 772.17 469.25 C 767.79 478.00 766.02 488.11 767.32 497.82 C 768.25 504.92 772.02 511.94 778.26 515.69 C 782.87 518.44 788.89 517.25 792.84 513.85 C 799.47 508.33 802.85 499.93 804.84 491.74 C 796.69 492.99 791.84 500.06 785.75 504.76 C 783.81 506.56 781.03 505.13 779.57 503.44 C 775.71 499.01 775.20 492.65 776.07 487.07 C 776.94 482.20 778.24 477.21 781.14 473.13 C 782.95 470.57 786.18 468.53 789.40 469.53 C 794.32 470.88 796.97 475.63 799.44 479.68 C 801.75 479.85 804.05 480.00 806.37 480.14 C 805.42 473.87 803.79 467.37 799.60 462.42 C 797.04 459.32 793.03 457.44 788.99 457.82 C 781.94 458.40 775.28 462.87 772.17 469.25 M 955.21 459.13 C 951.03 461.44 947.38 464.79 944.78 468.79 C 942.57 471.66 944.91 475.14 945.97 478.01 C 950.04 487.66 958.96 493.80 964.65 502.34 C 962.07 503.43 959.20 504.58 956.41 503.52 C 950.10 501.41 945.88 495.92 940.82 491.93 C 940.91 498.65 941.96 505.61 945.51 511.45 C 947.52 514.76 950.95 517.53 954.99 517.48 C 961.40 517.69 966.39 512.63 969.52 507.56 C 971.63 503.78 973.84 499.67 973.81 495.24 C 967.38 486.38 958.78 479.18 952.90 469.85 C 955.53 469.51 958.32 469.04 960.86 470.12 C 966.50 472.31 970.98 476.58 976.35 479.29 C 975.65 472.67 974.07 465.61 969.37 460.62 C 965.77 456.77 959.61 456.71 955.21 459.13 M 522.13 459.50 C 520.25 468.51 519.12 477.65 517.63 486.73 C 516.43 495.76 514.65 504.72 513.84 513.80 C 516.51 513.74 519.20 513.67 521.88 513.62 C 523.39 507.32 524.25 500.88 525.48 494.52 C 531.63 493.95 538.39 493.57 543.28 489.30 C 546.94 486.02 550.13 481.79 551.24 476.94 C 550.60 471.19 547.96 465.33 543.47 461.56 C 537.28 457.01 529.19 459.29 522.13 459.50 M 561.55 459.43 C 558.74 477.19 555.28 494.86 552.88 512.68 C 559.52 513.87 565.89 517.18 572.76 516.59 C 578.65 515.79 581.86 510.11 583.93 505.13 C 576.78 503.86 569.51 503.47 562.39 502.08 C 563.64 498.80 564.70 494.92 568.02 493.13 C 571.98 491.44 576.60 492.40 580.52 490.52 C 583.66 488.65 584.60 484.85 585.92 481.70 C 579.62 480.46 573.15 480.45 566.85 479.16 C 568.33 476.36 569.41 472.90 572.42 471.37 C 576.31 469.69 580.82 470.46 584.69 468.70 C 587.80 467.02 588.89 463.41 590.08 460.33 C 580.65 458.89 571.05 458.64 561.55 459.43 M 693.26 459.40 C 690.11 477.80 687.38 496.27 685.30 514.83 C 691.90 514.83 698.39 516.90 704.99 516.29 C 710.70 515.53 713.61 509.85 715.32 504.97 C 708.24 503.66 701.01 503.40 693.94 502.07 C 695.54 498.08 697.53 493.50 701.97 492.03 C 706.46 490.87 711.18 491.51 715.78 491.17 C 715.80 487.56 715.79 483.95 715.75 480.34 C 710.05 480.19 704.35 479.98 698.67 479.58 C 699.52 476.81 700.51 473.77 703.16 472.19 C 707.07 469.84 711.99 470.91 716.10 469.11 C 719.39 467.28 720.40 463.38 721.46 460.06 C 712.11 458.90 702.66 458.85 693.26 459.40 M 732.11 459.95 C 727.80 477.61 725.09 495.65 722.96 513.69 C 725.83 513.69 728.70 513.71 731.57 513.73 C 732.36 506.89 733.47 500.09 734.49 493.29 C 738.57 493.03 742.67 493.01 746.76 493.17 C 746.80 500.18 746.77 507.20 746.87 514.21 C 749.93 514.86 753.04 515.26 756.18 515.46 C 756.43 507.28 755.83 499.11 756.02 490.94 C 756.01 485.61 759.53 481.16 760.13 475.98 C 760.09 471.03 758.65 466.24 757.70 461.42 C 749.35 459.51 740.59 457.60 732.11 459.95 M 857.00 459.09 C 853.38 477.84 850.29 496.75 848.88 515.82 C 856.12 515.66 863.58 516.81 870.63 514.67 C 876.06 513.08 880.20 508.76 883.05 504.03 C 887.93 495.97 888.48 486.10 887.69 476.94 C 887.09 471.07 885.16 464.44 879.60 461.44 C 872.70 457.66 864.51 459.14 857.00 459.09 M 805.09 516.91 C 812.72 511.78 818.60 504.44 826.59 499.78 C 826.40 494.82 825.72 489.89 825.64 484.93 C 825.37 481.70 828.45 479.83 830.45 477.83 C 830.88 488.14 831.19 498.50 832.23 508.76 C 834.87 512.45 839.05 514.61 842.75 517.10 C 841.18 497.92 839.36 478.70 836.19 459.72 C 833.09 459.65 830.01 459.60 826.92 459.58 C 818.74 478.31 810.32 497.09 805.09 516.91 Z" />
<path fill="#45b653" opacity="1.00" d=" M 915.40 468.42 C 920.80 466.94 925.83 472.08 926.84 477.02 C 927.44 485.07 926.17 493.75 921.39 500.45 C 919.03 503.89 914.49 506.43 910.35 504.67 C 906.40 502.80 903.34 498.55 903.63 494.07 C 903.87 488.27 904.70 482.37 907.05 477.02 C 908.79 473.40 911.43 469.72 915.40 468.42 Z" />
<path fill="#45b653" opacity="1.00" d=" M 531.56 471.61 C 534.32 469.34 538.16 469.83 541.49 469.59 C 540.79 473.08 540.38 477.04 537.62 479.62 C 534.75 482.32 530.51 481.91 526.88 482.17 C 527.78 478.45 528.47 474.23 531.56 471.61 Z" />
<path fill="#45b653" opacity="1.00" d=" M 741.64 470.71 C 745.47 469.19 749.48 471.13 753.12 472.32 C 751.73 475.01 750.29 477.92 747.56 479.49 C 744.02 481.61 739.70 481.11 735.76 481.18 C 736.91 477.39 737.81 472.72 741.64 470.71 Z" />
<path fill="#45b653" opacity="1.00" d=" M 863.83 470.55 C 868.19 471.09 873.05 470.67 876.92 473.11 C 879.25 476.91 878.85 481.66 878.62 485.93 C 878.02 490.56 877.26 495.53 874.32 499.33 C 870.47 503.76 864.16 504.04 858.79 505.02 C 859.91 493.46 861.90 482.00 863.83 470.55 Z" />
</g>
<g id="#eef8efff">
<path fill="#eef8ef" opacity="1.00" d=" M 447.09 458.08 C 451.24 455.97 456.49 456.95 459.77 460.19 C 464.88 465.11 466.62 472.36 467.83 479.10 C 460.07 475.34 453.11 469.04 444.02 469.00 C 448.56 477.70 455.68 484.61 462.26 491.75 C 463.62 493.38 465.64 495.23 464.72 497.59 C 462.81 504.39 459.27 511.22 453.29 515.27 C 449.17 518.15 443.17 518.06 439.43 514.56 C 433.29 509.07 431.46 500.52 430.32 492.71 C 437.17 494.37 441.42 500.25 445.23 505.70 C 448.52 503.58 451.99 501.65 454.86 498.97 C 448.43 491.85 440.56 485.99 434.97 478.11 C 433.87 476.68 434.92 474.91 435.30 473.42 C 437.61 467.37 441.03 461.03 447.09 458.08 Z" />
<path fill="#eef8ef" opacity="1.00" d=" M 505.83 458.80 C 507.29 457.66 509.20 457.39 510.92 456.81 C 510.63 464.64 509.16 472.36 508.26 480.12 C 506.78 489.66 505.59 499.52 501.23 508.26 C 497.47 514.73 488.56 519.38 481.43 515.61 C 475.57 512.04 471.73 504.94 472.70 498.04 C 473.92 485.18 476.36 472.49 478.18 459.71 C 481.19 459.65 484.21 459.69 487.22 459.79 C 485.37 474.68 482.54 489.44 480.97 504.36 C 485.29 504.43 489.59 503.83 493.79 502.81 C 498.40 491.02 498.32 478.10 501.98 466.06 C 502.84 463.46 503.81 460.73 505.83 458.80 Z" />
<path fill="#eef8ef" opacity="1.00" d=" M 915.30 457.32 C 920.09 456.09 925.35 457.66 928.72 461.28 C 935.62 468.03 936.92 478.48 935.66 487.64 C 934.32 496.62 931.49 506.24 924.11 512.14 C 919.54 516.02 912.89 518.49 907.11 515.87 C 900.45 512.78 897.05 505.44 895.47 498.65 C 893.92 488.27 895.85 477.26 901.08 468.14 C 904.06 462.76 909.27 458.65 915.30 457.32 M 915.40 468.42 C 911.43 469.72 908.79 473.40 907.05 477.02 C 904.70 482.37 903.87 488.27 903.63 494.07 C 903.34 498.55 906.40 502.80 910.35 504.67 C 914.49 506.43 919.03 503.89 921.39 500.45 C 926.17 493.75 927.44 485.07 926.84 477.02 C 925.83 472.08 920.80 466.94 915.40 468.42 Z" />
<path fill="#eef8ef" opacity="1.00" d=" M 618.36 458.10 C 622.19 461.73 628.45 464.82 627.93 470.98 C 628.11 478.83 624.30 486.11 624.32 493.95 C 624.18 501.69 624.75 509.46 623.88 517.18 C 621.55 516.42 618.71 515.98 617.48 513.57 C 613.98 507.40 614.66 500.01 613.96 493.19 C 610.49 493.16 607.02 493.20 603.56 493.37 C 602.05 500.12 600.90 507.21 597.18 513.19 C 595.95 515.34 593.73 516.56 591.69 517.81 C 591.48 510.49 592.83 503.26 593.64 496.01 C 594.72 486.40 596.38 476.87 598.23 467.38 C 598.77 465.04 599.14 462.56 600.47 460.51 C 603.65 459.41 607.04 459.16 610.37 458.74 C 609.16 466.22 606.64 473.39 605.02 480.78 C 608.75 480.71 612.92 481.44 616.23 479.25 C 618.66 477.72 619.86 474.99 621.17 472.56 C 618.32 472.29 615.47 472.03 612.62 471.78 C 614.15 467.06 616.21 462.55 618.36 458.10 Z" />
<path fill="#eef8ef" opacity="1.00" d=" M 674.94 458.92 C 677.11 457.52 679.83 457.90 682.29 457.71 C 681.51 465.87 680.10 473.95 679.25 482.09 C 677.97 491.54 677.00 501.27 673.14 510.10 C 671.87 513.31 669.12 515.50 666.21 517.17 C 666.45 508.33 667.93 499.58 667.95 490.73 C 663.85 498.49 661.17 506.98 656.30 514.32 C 655.49 515.30 654.84 516.94 653.30 516.60 C 651.07 515.37 650.32 512.69 649.65 510.42 C 647.96 503.65 647.86 496.62 646.46 489.80 C 644.39 495.96 643.81 502.50 641.69 508.65 C 640.82 510.97 639.81 513.45 637.77 514.98 C 636.13 515.26 634.46 515.16 632.83 515.19 C 632.90 512.63 633.03 510.07 633.43 507.55 C 636.20 491.49 638.81 475.41 641.58 459.36 C 645.11 459.44 648.64 459.64 652.17 459.89 C 654.07 471.56 654.52 483.41 656.32 495.10 C 660.60 485.64 663.34 475.50 668.47 466.43 C 670.15 463.58 672.10 460.73 674.94 458.92 Z" />
<path fill="#eef8ef" opacity="1.00" d=" M 772.17 469.25 C 775.28 462.87 781.94 458.40 788.99 457.82 C 793.03 457.44 797.04 459.32 799.60 462.42 C 803.79 467.37 805.42 473.87 806.37 480.14 C 804.05 480.00 801.75 479.85 799.44 479.68 C 796.97 475.63 794.32 470.88 789.40 469.53 C 786.18 468.53 782.95 470.57 781.14 473.13 C 778.24 477.21 776.94 482.20 776.07 487.07 C 775.20 492.65 775.71 499.01 779.57 503.44 C 781.03 505.13 783.81 506.56 785.75 504.76 C 791.84 500.06 796.69 492.99 804.84 491.74 C 802.85 499.93 799.47 508.33 792.84 513.85 C 788.89 517.25 782.87 518.44 778.26 515.69 C 772.02 511.94 768.25 504.92 767.32 497.82 C 766.02 488.11 767.79 478.00 772.17 469.25 Z" />
<path fill="#eef8ef" opacity="1.00" d=" M 955.21 459.13 C 959.61 456.71 965.77 456.77 969.37 460.62 C 974.07 465.61 975.65 472.67 976.35 479.29 C 970.98 476.58 966.50 472.31 960.86 470.12 C 958.32 469.04 955.53 469.51 952.90 469.85 C 958.78 479.18 967.38 486.38 973.81 495.24 C 973.84 499.67 971.63 503.78 969.52 507.56 C 966.39 512.63 961.40 517.69 954.99 517.48 C 950.95 517.53 947.52 514.76 945.51 511.45 C 941.96 505.61 940.91 498.65 940.82 491.93 C 945.88 495.92 950.10 501.41 956.41 503.52 C 959.20 504.58 962.07 503.43 964.65 502.34 C 958.96 493.80 950.04 487.66 945.97 478.01 C 944.91 475.14 942.57 471.66 944.78 468.79 C 947.38 464.79 951.03 461.44 955.21 459.13 Z" />
<path fill="#eef8ef" opacity="1.00" d=" M 522.13 459.50 C 529.19 459.29 537.28 457.01 543.47 461.56 C 547.96 465.33 550.60 471.19 551.24 476.94 C 550.13 481.79 546.94 486.02 543.28 489.30 C 538.39 493.57 531.63 493.95 525.48 494.52 C 524.25 500.88 523.39 507.32 521.88 513.62 C 519.20 513.67 516.51 513.74 513.84 513.80 C 514.65 504.72 516.43 495.76 517.63 486.73 C 519.12 477.65 520.25 468.51 522.13 459.50 M 531.56 471.61 C 528.47 474.23 527.78 478.45 526.88 482.17 C 530.51 481.91 534.75 482.32 537.62 479.62 C 540.38 477.04 540.79 473.08 541.49 469.59 C 538.16 469.83 534.32 469.34 531.56 471.61 Z" />
<path fill="#eef8ef" opacity="1.00" d=" M 561.55 459.43 C 571.05 458.64 580.65 458.89 590.08 460.33 C 588.89 463.41 587.80 467.02 584.69 468.70 C 580.82 470.46 576.31 469.69 572.42 471.37 C 569.41 472.90 568.33 476.36 566.85 479.16 C 573.15 480.45 579.62 480.46 585.92 481.70 C 584.60 484.85 583.66 488.65 580.52 490.52 C 576.60 492.40 571.98 491.44 568.02 493.13 C 564.70 494.92 563.64 498.80 562.39 502.08 C 569.51 503.47 576.78 503.86 583.93 505.13 C 581.86 510.11 578.65 515.79 572.76 516.59 C 565.89 517.18 559.52 513.87 552.88 512.68 C 555.28 494.86 558.74 477.19 561.55 459.43 Z" />
<path fill="#eef8ef" opacity="1.00" d=" M 693.26 459.40 C 702.66 458.85 712.11 458.90 721.46 460.06 C 720.40 463.38 719.39 467.28 716.10 469.11 C 711.99 470.91 707.07 469.84 703.16 472.19 C 700.51 473.77 699.52 476.81 698.67 479.58 C 704.35 479.98 710.05 480.19 715.75 480.34 C 715.79 483.95 715.80 487.56 715.78 491.17 C 711.18 491.51 706.46 490.87 701.97 492.03 C 697.53 493.50 695.54 498.08 693.94 502.07 C 701.01 503.40 708.24 503.66 715.32 504.97 C 713.61 509.85 710.70 515.53 704.99 516.29 C 698.39 516.90 691.90 514.83 685.30 514.83 C 687.38 496.27 690.11 477.80 693.26 459.40 Z" />
<path fill="#eef8ef" opacity="1.00" d=" M 732.11 459.95 C 740.59 457.60 749.35 459.51 757.70 461.42 C 758.65 466.24 760.09 471.03 760.13 475.98 C 759.53 481.16 756.01 485.61 756.02 490.94 C 755.83 499.11 756.43 507.28 756.18 515.46 C 753.04 515.26 749.93 514.86 746.87 514.21 C 746.77 507.20 746.80 500.18 746.76 493.17 C 742.67 493.01 738.57 493.03 734.49 493.29 C 733.47 500.09 732.36 506.89 731.57 513.73 C 728.70 513.71 725.83 513.69 722.96 513.69 C 725.09 495.65 727.80 477.61 732.11 459.95 M 741.64 470.71 C 737.81 472.72 736.91 477.39 735.76 481.18 C 739.70 481.11 744.02 481.61 747.56 479.49 C 750.29 477.92 751.73 475.01 753.12 472.32 C 749.48 471.13 745.47 469.19 741.64 470.71 Z" />
<path fill="#eef8ef" opacity="1.00" d=" M 857.00 459.09 C 864.51 459.14 872.70 457.66 879.60 461.44 C 885.16 464.44 887.09 471.07 887.69 476.94 C 888.48 486.10 887.93 495.97 883.05 504.03 C 880.20 508.76 876.06 513.08 870.63 514.67 C 863.58 516.81 856.12 515.66 848.88 515.82 C 850.29 496.75 853.38 477.84 857.00 459.09 M 863.83 470.55 C 861.90 482.00 859.91 493.46 858.79 505.02 C 864.16 504.04 870.47 503.76 874.32 499.33 C 877.26 495.53 878.02 490.56 878.62 485.93 C 878.85 481.66 879.25 476.91 876.92 473.11 C 873.05 470.67 868.19 471.09 863.83 470.55 Z" />
<path fill="#eef8ef" opacity="1.00" d=" M 805.09 516.91 C 810.32 497.09 818.74 478.31 826.92 459.58 C 830.01 459.60 833.09 459.65 836.19 459.72 C 839.36 478.70 841.18 497.92 842.75 517.10 C 839.05 514.61 834.87 512.45 832.23 508.76 C 831.19 498.50 830.88 488.14 830.45 477.83 C 828.45 479.83 825.37 481.70 825.64 484.93 C 825.72 489.89 826.40 494.82 826.59 499.78 C 818.60 504.44 812.72 511.78 805.09 516.91 Z" />
</g>
</svg>
