<?xml version="1.0" encoding="UTF-8" ?>
<!DOCTYPE svg PUBLIC "-//W3C//DTD SVG 1.1//EN" "http://www.w3.org/Graphics/SVG/1.1/DTD/svg11.dtd">
<svg width="100pt" height="75pt" viewBox="0 0 1000 750" version="1.1" xmlns="http://www.w3.org/2000/svg">
<g id="#ffec02ff">
<path fill="#ffec02" opacity="1.00" d=" M 710.58 1.37 C 711.69 -0.42 714.18 0.11 715.42 1.48 C 773.51 52.11 831.75 102.58 889.90 153.15 C 893.92 156.57 898.16 159.80 901.49 163.94 C 898.46 167.60 896.29 171.84 893.88 175.90 C 879.68 199.12 863.15 220.84 845.79 241.76 C 844.47 243.31 842.66 244.60 842.20 246.70 C 848.31 251.56 853.74 257.21 858.97 263.00 C 880.78 286.63 898.81 314.12 909.53 344.54 C 922.21 379.08 924.22 417.31 915.91 453.12 C 909.01 485.48 896.38 516.64 878.43 544.46 C 871.84 554.40 865.33 564.43 857.57 573.52 C 819.73 620.39 769.68 656.08 716.25 683.17 C 650.31 716.21 578.28 736.82 505.07 745.04 C 501.52 746.38 497.65 745.29 494.00 746.16 C 488.40 747.31 482.67 747.21 476.99 747.45 C 463.18 749.68 449.08 747.60 435.27 750.00 L 398.19 750.00 C 388.19 748.39 378.07 749.00 368.01 748.29 C 360.79 746.94 353.39 747.73 346.14 746.63 C 332.13 744.49 317.98 743.17 304.09 740.32 C 264.04 732.81 224.50 719.89 189.86 698.08 C 158.21 678.25 131.25 650.77 112.95 618.14 C 93.85 584.80 84.53 546.30 84.41 507.98 C 83.24 460.14 96.51 412.49 119.69 370.81 C 138.82 336.46 164.27 305.68 194.05 280.05 C 194.44 279.56 195.24 278.57 195.63 278.08 C 167.02 253.16 139.10 227.46 110.61 202.40 C 100.60 193.33 90.76 184.06 80.29 175.52 C 80.40 173.16 80.04 170.55 81.41 168.48 C 97.36 142.84 116.42 119.12 138.19 98.19 C 169.11 68.72 205.46 44.33 245.93 30.15 C 267.54 22.57 290.14 17.56 313.00 16.00 C 370.77 12.75 429.03 23.98 482.14 46.73 C 517.39 61.92 550.41 82.40 579.27 107.71 C 581.02 109.75 583.90 108.82 585.86 107.62 C 618.92 88.67 649.37 65.25 676.64 38.65 C 688.77 26.99 699.58 14.07 710.58 1.37 M 710.92 21.89 C 705.70 28.62 699.62 34.62 693.86 40.88 C 666.69 68.85 636.18 93.69 602.73 113.78 C 594.85 118.58 586.87 123.40 578.17 126.56 C 572.73 120.41 566.52 115.00 560.19 109.79 C 525.03 81.35 484.30 60.00 441.19 46.45 C 400.51 33.70 357.60 27.44 314.97 29.82 C 259.92 33.34 207.49 57.30 165.47 92.48 C 138.69 115.00 114.92 141.33 96.34 171.03 C 136.86 207.09 177.47 243.07 217.50 279.67 C 204.23 288.36 192.83 299.53 181.56 310.62 C 153.02 340.59 129.16 375.49 114.31 414.27 C 105.74 436.58 100.48 460.14 98.59 483.95 C 98.34 493.31 97.16 502.67 98.19 512.02 C 98.42 525.87 100.23 539.65 102.90 553.23 C 110.75 591.56 129.90 627.62 157.91 655.03 C 187.70 684.73 225.98 704.83 265.98 717.05 C 311.25 730.86 358.83 735.71 406.03 735.21 C 439.44 735.48 472.80 732.69 505.90 728.32 C 581.54 717.92 656.19 694.68 721.48 654.54 C 772.50 623.25 817.98 581.81 849.95 530.93 C 866.53 504.59 879.23 475.61 885.68 445.09 C 893.18 407.80 889.60 368.46 875.98 332.98 C 862.01 296.29 838.83 262.96 808.57 237.87 C 812.71 231.98 817.90 226.97 822.43 221.40 C 839.70 199.99 855.80 177.48 868.74 153.17 C 826.75 117.19 785.28 80.60 743.43 44.46 C 733.58 36.13 724.10 27.34 713.98 19.33 C 712.86 20.08 711.70 20.78 710.92 21.89 Z" />
<path fill="#ffec02" opacity="1.00" d=" M 700.22 90.23 C 706.63 83.18 713.14 76.04 717.77 67.64 C 720.46 67.13 722.14 69.50 724.01 70.98 C 752.39 94.71 781.27 117.83 809.72 141.48 C 813.55 144.65 817.59 147.55 821.37 150.78 C 821.37 153.93 819.74 156.67 818.07 159.21 C 798.60 192.62 769.72 220.53 735.39 238.40 C 703.10 255.39 666.32 262.78 629.99 262.41 C 587.33 262.09 544.29 252.87 506.61 232.45 C 482.64 219.77 461.26 202.48 443.38 182.13 C 439.06 177.17 434.98 171.97 431.59 166.32 C 450.48 174.95 471.42 178.10 492.04 178.30 C 530.49 177.59 568.35 168.28 604.15 154.61 C 624.90 146.56 644.52 135.70 662.60 122.74 C 676.25 113.28 688.92 102.41 700.22 90.23 Z" />
</g>
<g id="#e20612ff">
<path fill="#e20612" opacity="1.00" d=" M 217.79 93.89 C 253.76 69.30 297.70 57.62 341.07 58.18 C 371.14 57.97 401.30 62.49 429.81 72.11 C 458.75 81.78 485.78 97.16 508.75 117.25 C 520.93 128.14 532.52 140.03 541.19 153.96 C 537.39 152.74 533.75 151.09 529.98 149.78 C 519.72 146.07 508.88 144.10 498.02 143.19 C 467.21 140.58 436.25 145.24 406.60 153.49 C 374.77 162.13 343.70 174.69 316.46 193.49 C 292.45 209.64 270.26 229.25 254.29 253.59 C 221.16 226.48 188.23 199.12 154.91 172.25 C 153.63 171.00 150.92 170.15 151.40 167.97 C 166.84 138.20 190.04 112.64 217.79 93.89 Z" />
<path fill="#e20612" opacity="1.00" d=" M 348.11 228.53 C 367.15 224.64 386.10 220.22 405.22 216.67 C 406.51 219.90 406.69 223.49 405.86 226.85 C 384.56 330.72 362.71 434.47 341.18 538.28 C 339.07 547.69 339.42 557.40 339.59 566.97 C 339.71 577.44 342.88 587.57 343.64 597.97 C 343.86 601.25 340.50 603.07 337.90 604.13 C 326.90 608.46 315.89 612.79 304.88 617.11 C 299.28 619.25 293.81 621.79 287.97 623.23 C 284.67 622.55 283.43 619.00 282.46 616.20 C 279.85 608.07 278.64 599.52 278.41 591.00 C 278.26 585.93 277.65 580.89 277.34 575.83 C 274.51 577.04 272.81 579.73 270.86 581.96 C 261.61 593.40 250.54 603.50 237.78 610.90 C 219.97 621.24 198.43 625.35 178.14 621.51 C 167.91 619.64 158.78 613.92 151.65 606.49 C 140.74 593.54 136.18 576.52 134.57 559.97 C 131.50 522.94 136.84 485.50 147.65 450.05 C 157.25 419.94 171.34 390.49 193.47 367.52 C 210.65 349.35 233.99 336.31 259.13 334.09 C 273.73 332.52 288.93 333.78 302.51 339.66 C 307.31 341.66 311.70 344.50 316.25 346.99 C 324.21 309.58 331.91 272.12 339.90 234.72 C 340.44 230.74 344.69 229.19 348.11 228.53 M 261.99 386.98 C 251.73 389.01 242.71 395.13 235.56 402.58 C 226.68 412.05 220.29 423.56 215.30 435.48 C 204.86 460.77 200.34 488.08 198.43 515.25 C 198.18 528.78 196.75 543.28 203.26 555.72 C 204.25 558.09 206.73 559.94 206.36 562.74 C 207.82 563.60 209.30 564.60 211.07 564.60 C 216.48 567.58 223.04 568.97 229.15 567.59 C 244.07 565.26 255.98 554.34 264.39 542.41 C 277.35 524.11 284.79 502.46 288.86 480.56 C 293.86 456.53 298.89 432.51 303.77 408.46 C 304.32 406.00 304.82 403.51 304.92 400.99 L 306.02 401.41 C 306.20 399.59 306.39 397.78 306.58 395.98 C 293.67 387.35 277.26 383.67 261.99 386.98 Z" />
<path fill="#e20612" opacity="1.00" d=" M 501.46 335.82 C 521.36 330.88 543.55 333.59 560.68 345.23 C 567.39 349.76 572.96 355.70 578.55 361.50 C 578.92 361.64 579.65 361.92 580.02 362.06 C 582.25 356.85 584.05 351.47 586.42 346.32 C 587.62 343.38 591.15 342.73 593.98 342.80 C 607.67 342.85 621.36 342.77 635.05 342.84 C 637.20 343.20 640.63 343.25 641.02 346.04 C 641.63 348.10 641.56 350.34 641.02 352.41 C 636.94 369.54 633.78 386.89 630.06 404.11 C 621.33 446.36 612.60 488.61 604.09 530.91 C 602.15 542.82 600.35 554.85 600.70 566.96 C 601.00 574.03 602.28 581.02 603.64 587.96 C 604.43 592.10 605.03 596.38 604.36 600.59 C 602.46 603.07 599.08 603.95 596.32 605.23 C 581.49 610.75 567.01 617.16 552.09 622.45 C 550.66 623.14 549.11 622.80 547.72 622.24 C 545.94 620.96 544.53 619.16 543.98 617.02 C 541.22 608.51 540.14 599.55 539.46 590.67 C 539.12 585.56 539.32 580.44 538.81 575.35 C 534.33 578.32 531.37 582.88 527.62 586.62 C 514.09 601.13 497.49 613.40 478.32 619.20 C 463.06 623.60 446.14 624.84 431.13 618.84 C 424.30 616.21 418.80 611.25 413.51 606.36 C 401.63 592.35 396.68 573.94 394.61 556.04 C 392.12 530.69 393.59 504.99 398.08 479.94 C 402.42 455.72 410.00 432.03 421.17 410.08 C 429.34 394.06 439.38 378.85 451.99 365.96 C 465.55 351.99 482.39 340.55 501.46 335.82 M 507.38 389.24 C 497.68 396.34 490.32 406.16 484.67 416.66 C 474.76 435.26 468.75 455.66 464.25 476.16 C 460.36 495.85 457.55 515.87 457.62 535.97 C 457.76 545.78 459.51 556.66 466.95 563.74 C 470.54 565.87 474.41 567.85 478.70 567.98 C 494.03 568.69 509.12 561.58 519.47 550.44 C 536.91 531.82 544.90 506.68 549.53 482.12 C 554.83 457.73 559.55 433.23 565.07 408.89 C 565.80 406.30 566.83 402.65 564.12 400.87 C 557.38 394.99 550.33 389.13 541.88 385.88 C 530.77 381.45 517.24 382.14 507.38 389.24 Z" />
<path fill="#e20612" opacity="1.00" d=" M 687.11 352.03 C 703.05 345.77 718.91 339.27 734.90 333.12 C 737.79 334.09 739.37 337.21 740.10 339.99 C 745.02 355.57 745.44 372.07 745.84 388.26 C 749.05 384.94 752.43 381.74 755.17 377.99 C 766.34 364.18 779.18 351.23 794.85 342.57 C 808.04 335.43 823.67 331.38 838.58 334.63 C 841.70 335.28 845.05 336.39 846.81 339.26 C 848.20 340.66 846.56 342.49 846.22 343.98 C 838.49 363.69 830.29 383.21 822.33 402.82 C 818.80 403.14 815.34 402.29 812.03 401.18 C 800.33 397.46 787.28 400.55 777.42 407.52 C 766.37 415.45 757.82 426.41 751.18 438.19 C 740.15 457.97 733.04 479.70 728.45 501.82 C 721.23 537.03 713.48 572.12 706.22 607.32 C 705.70 609.48 705.02 611.91 702.99 613.14 C 700.70 613.68 698.32 613.54 695.99 613.61 C 680.05 613.52 664.12 613.73 648.18 613.57 C 646.69 613.53 645.19 613.40 643.72 613.35 C 640.36 609.15 641.81 603.41 642.99 598.68 C 655.47 541.80 668.34 485.00 680.55 428.06 C 684.15 411.75 686.69 394.83 683.86 378.20 C 682.67 371.16 679.74 364.27 680.48 357.01 C 681.27 354.06 684.60 353.10 687.11 352.03 Z" />
</g>
<g id="#282220ff">
<path fill="#282220" opacity="1.00" d=" M 406.60 153.49 C 436.25 145.24 467.21 140.58 498.02 143.19 C 508.88 144.10 519.72 146.07 529.98 149.78 C 534.33 154.52 538.02 159.81 541.57 165.15 C 521.29 156.38 499.01 153.05 477.02 153.59 C 455.02 154.16 433.17 157.75 411.89 163.27 C 380.86 171.45 350.36 182.80 323.27 200.24 C 296.65 217.42 271.69 238.32 254.19 265.02 C 219.99 236.44 185.24 208.49 150.96 180.00 C 152.20 177.38 153.55 174.81 154.91 172.25 C 188.23 199.12 221.16 226.48 254.29 253.59 C 270.26 229.25 292.45 209.64 316.46 193.49 C 343.70 174.69 374.77 162.13 406.60 153.49 Z" />
<path fill="#282220" opacity="1.00" d=" M 735.39 238.40 C 769.72 220.53 798.60 192.62 818.07 159.21 C 819.35 160.28 820.66 161.34 822.00 162.36 C 818.22 171.22 812.69 179.30 807.25 187.25 C 782.87 221.36 747.76 247.76 708.10 261.43 C 669.40 274.85 627.38 276.29 587.13 270.24 C 548.75 264.28 511.37 250.05 480.02 226.93 C 461.37 213.32 444.35 197.05 431.76 177.60 C 435.63 179.11 439.65 180.27 443.38 182.13 C 461.26 202.48 482.64 219.77 506.61 232.45 C 544.29 252.87 587.33 262.09 629.99 262.41 C 666.32 262.78 703.10 255.39 735.39 238.40 Z" />
<path fill="#282220" opacity="1.00" d=" M 405.86 226.85 C 407.92 226.70 409.99 226.57 412.07 226.47 C 413.73 232.28 412.33 238.26 411.14 244.00 C 390.81 342.02 370.37 440.02 349.98 538.02 C 346.24 553.68 344.43 570.02 347.11 586.01 C 348.07 593.36 349.81 600.61 350.40 608.01 C 350.55 610.74 347.84 612.54 345.59 613.45 C 329.03 619.73 312.77 626.84 296.06 632.72 C 290.83 633.46 289.38 626.99 287.97 623.23 C 293.81 621.79 299.28 619.25 304.88 617.11 C 315.89 612.79 326.90 608.46 337.90 604.13 C 340.50 603.07 343.86 601.25 343.64 597.97 C 342.88 587.57 339.71 577.44 339.59 566.97 C 339.42 557.40 339.07 547.69 341.18 538.28 C 362.71 434.47 384.56 330.72 405.86 226.85 Z" />
<path fill="#282220" opacity="1.00" d=" M 740.10 339.99 C 740.60 342.25 742.61 343.35 744.18 344.81 C 746.50 347.78 747.39 351.55 748.35 355.13 C 750.31 363.74 751.32 372.55 751.82 381.37 C 752.90 380.21 754.02 379.09 755.17 377.99 C 752.43 381.74 749.05 384.94 745.84 388.26 C 745.44 372.07 745.02 355.57 740.10 339.99 Z" />
<path fill="#282220" opacity="1.00" d=" M 822.33 402.82 C 830.29 383.21 838.49 363.69 846.22 343.98 C 849.29 345.63 854.60 347.43 853.56 351.90 C 847.09 369.07 839.78 385.93 832.99 402.98 C 831.27 406.53 830.67 411.18 826.99 413.32 C 822.69 412.55 818.60 410.99 814.41 409.83 C 801.35 407.34 788.16 413.11 778.47 421.61 C 764.31 434.35 754.99 451.45 747.90 468.89 C 739.61 488.39 735.47 509.28 731.30 529.96 C 725.03 559.01 718.99 588.11 712.68 617.15 C 712.13 619.63 711.23 623.29 708.04 623.28 C 689.32 623.45 670.58 623.52 651.86 623.22 C 647.67 622.02 648.03 617.00 648.18 613.57 C 664.12 613.73 680.05 613.52 695.99 613.61 C 698.32 613.54 700.70 613.68 702.99 613.14 C 705.02 611.91 705.70 609.48 706.22 607.32 C 713.48 572.12 721.23 537.03 728.45 501.82 C 733.04 479.70 740.15 457.97 751.18 438.19 C 757.82 426.41 766.37 415.45 777.42 407.52 C 787.28 400.55 800.33 397.46 812.03 401.18 C 815.34 402.29 818.80 403.14 822.33 402.82 Z" />
<path fill="#282220" opacity="1.00" d=" M 630.06 404.11 C 633.78 386.89 636.94 369.54 641.02 352.41 C 642.80 352.54 644.86 352.35 646.20 353.82 C 648.70 355.75 647.75 359.23 647.56 361.91 C 637.42 410.05 627.75 458.29 617.71 506.45 C 613.35 528.78 607.35 551.06 607.34 573.97 C 607.08 585.50 611.03 596.59 611.63 608.05 C 611.84 610.98 608.88 612.75 606.47 613.59 C 591.93 619.40 577.34 625.11 562.80 630.91 C 560.12 631.82 557.22 633.41 554.36 632.45 C 550.59 630.21 551.14 624.74 547.72 622.24 C 549.11 622.80 550.66 623.14 552.09 622.45 C 567.01 617.16 581.49 610.75 596.32 605.23 C 599.08 603.95 602.46 603.07 604.36 600.59 C 605.03 596.38 604.43 592.10 603.64 587.96 C 602.28 581.02 601.00 574.03 600.70 566.96 C 600.35 554.85 602.15 542.82 604.09 530.91 C 612.60 488.61 621.33 446.36 630.06 404.11 Z" />
<path fill="#282220" opacity="1.00" d=" M 507.38 389.24 C 517.24 382.14 530.77 381.45 541.88 385.88 C 550.33 389.13 557.38 394.99 564.12 400.87 C 566.83 402.65 565.80 406.30 565.07 408.89 C 565.15 408.21 565.30 406.85 565.38 406.16 C 555.78 398.22 543.75 391.92 530.95 392.86 C 519.01 393.81 508.98 401.62 501.68 410.63 C 492.27 422.46 485.86 436.36 480.73 450.50 C 472.79 473.28 467.88 497.07 465.52 521.06 C 464.43 535.25 462.94 549.85 466.95 563.74 C 459.51 556.66 457.76 545.78 457.62 535.97 C 457.55 515.87 460.36 495.85 464.25 476.16 C 468.75 455.66 474.76 435.26 484.67 416.66 C 490.32 406.16 497.68 396.34 507.38 389.24 Z" />
<path fill="#282220" opacity="1.00" d=" M 261.99 386.98 C 277.26 383.67 293.67 387.35 306.58 395.98 C 306.39 397.78 306.20 399.59 306.02 401.41 L 304.92 400.99 C 291.59 395.61 276.18 393.10 262.44 398.51 C 246.91 404.40 235.82 417.95 228.14 432.19 C 215.12 456.82 209.16 484.49 206.22 512.00 C 205.03 526.60 203.21 541.52 206.44 556.00 C 206.92 559.35 209.25 561.90 211.07 564.60 C 209.30 564.60 207.82 563.60 206.36 562.74 C 206.73 559.94 204.25 558.09 203.26 555.72 C 196.75 543.28 198.18 528.78 198.43 515.25 C 200.34 488.08 204.86 460.77 215.30 435.48 C 220.29 423.56 226.68 412.05 235.56 402.58 C 242.71 395.13 251.73 389.01 261.99 386.98 Z" />
<path fill="#282220" opacity="1.00" d=" M 270.86 581.96 C 272.81 579.73 274.51 577.04 277.34 575.83 C 277.65 580.89 278.26 585.93 278.41 591.00 C 266.79 604.33 253.63 616.91 237.41 624.41 C 220.22 632.25 200.47 635.04 181.96 630.78 C 169.05 627.51 157.60 618.41 151.65 606.49 C 158.78 613.92 167.91 619.64 178.14 621.51 C 198.43 625.35 219.97 621.24 237.78 610.90 C 250.54 603.50 261.61 593.40 270.86 581.96 Z" />
<path fill="#282220" opacity="1.00" d=" M 527.62 586.62 C 531.37 582.88 534.33 578.32 538.81 575.35 C 539.32 580.44 539.12 585.56 539.46 590.67 C 529.42 602.59 517.52 613.10 503.98 620.90 C 487.85 630.05 468.75 634.52 450.27 632.08 C 434.79 630.26 420.53 620.25 413.51 606.36 C 418.80 611.25 424.30 616.21 431.13 618.84 C 446.14 624.84 463.06 623.60 478.32 619.20 C 497.49 613.40 514.09 601.13 527.62 586.62 Z" />
</g>
</svg>
