<?xml version="1.0" encoding="UTF-8" ?>
<!DOCTYPE svg PUBLIC "-//W3C//DTD SVG 1.1//EN" "http://www.w3.org/Graphics/SVG/1.1/DTD/svg11.dtd">
<svg width="1000pt" height="750pt" viewBox="0 0 1000 750" version="1.1" xmlns="http://www.w3.org/2000/svg">
<g id="#99bba5be">
<path fill="#99bba5" opacity="0.75" d=" M 475.00 2.92 C 476.93 2.33 479.98 3.48 480.81 1.13 L 480.51 2.62 C 482.43 2.40 484.37 2.22 486.29 1.89 C 496.94 1.87 507.58 1.82 518.22 2.43 L 518.32 1.13 C 518.39 1.48 518.54 2.17 518.62 2.52 C 521.15 2.52 523.79 2.11 526.25 2.94 C 509.17 2.34 492.09 2.83 475.00 2.92 Z" />
<path fill="#99bba5" opacity="0.75" d=" M 460.20 3.68 C 464.22 3.98 468.12 2.10 472.14 3.18 C 468.12 3.95 464.03 3.99 459.97 4.09 L 460.20 3.68 Z" />
<path fill="#99bba5" opacity="0.75" d=" M 540.69 4.37 C 541.30 3.05 542.08 3.02 543.03 4.27 C 542.80 4.51 542.34 5.01 542.10 5.26 C 541.75 5.03 541.04 4.59 540.69 4.37 Z" />
<path fill="#99bba5" opacity="0.75" d=" M 444.88 5.64 C 444.88 5.44 444.88 5.04 444.88 4.84 C 446.56 5.18 448.27 5.24 449.99 5.19 C 447.56 5.63 445.11 5.97 442.64 6.09 C 443.20 5.97 444.32 5.75 444.88 5.64 Z" />
<path fill="#99bba5" opacity="0.75" d=" M 558.18 6.31 C 559.91 5.51 562.28 5.88 563.89 6.83 L 563.80 7.21 C 561.86 7.55 559.77 7.61 558.18 6.31 Z" />
<path fill="#99bba5" opacity="0.75" d=" M 565.17 7.09 C 566.62 6.54 568.60 6.73 569.84 7.73 L 569.72 8.14 C 568.15 8.34 566.15 8.67 565.17 7.09 Z" />
<path fill="#99bba5" opacity="0.75" d=" M 414.53 11.24 C 414.24 9.62 418.04 8.67 418.41 10.39 C 417.27 11.20 415.89 11.46 414.53 11.24 Z" />
<path fill="#99bba5" opacity="0.75" d=" M 591.94 12.39 C 593.34 11.61 594.66 11.76 595.87 12.83 L 595.75 13.34 C 594.38 13.59 593.00 13.28 591.94 12.39 Z" />
<path fill="#99bba5" opacity="0.75" d=" M 389.11 16.96 C 393.96 15.13 399.04 13.79 404.19 13.13 C 399.23 14.66 394.18 15.85 389.11 16.96 Z" />
<path fill="#99bba5" opacity="0.75" d=" M 382.47 18.30 C 382.90 18.29 383.76 18.27 384.20 18.27 C 383.74 18.49 382.81 18.93 382.35 19.15 L 382.47 18.30 Z" />
<path fill="#99bba5" opacity="0.75" d=" M 369.25 22.26 L 370.21 21.79 L 371.04 22.24 C 370.57 22.46 369.63 22.92 369.17 23.14 L 369.25 22.26 Z" />
<path fill="#99bba5" opacity="0.75" d=" M 332.20 37.17 C 331.95 35.51 334.75 34.95 336.01 35.17 C 335.59 36.88 333.71 37.27 332.20 37.17 Z" />
<path fill="#99bba5" opacity="0.75" d=" M 672.45 39.23 C 673.36 37.66 676.56 39.86 676.57 41.21 C 674.87 41.50 673.39 40.58 672.45 39.23 Z" />
<path fill="#99bba5" opacity="0.75" d=" M 320.36 42.48 C 320.34 40.63 323.35 40.07 324.86 40.23 C 324.14 42.08 322.13 42.50 320.36 42.48 Z" />
<path fill="#99bba5" opacity="0.75" d=" M 419.21 49.01 L 420.25 48.68 L 421.01 49.25 C 420.51 49.41 419.49 49.72 418.99 49.88 L 419.21 49.01 Z" />
<path fill="#99bba5" opacity="0.75" d=" M 695.79 50.34 C 697.51 50.51 698.81 52.27 700.62 51.64 C 700.50 51.93 700.25 52.51 700.12 52.81 C 698.61 52.10 697.18 51.23 695.79 50.34 Z" />
<path fill="#99bba5" opacity="0.75" d=" M 291.13 58.00 C 290.49 56.55 293.26 54.34 294.13 56.25 C 293.55 57.37 292.43 58.15 291.13 58.00 Z" />
<path fill="#99bba5" opacity="0.75" d=" M 713.04 60.04 L 713.90 59.72 L 714.78 60.32 L 714.76 61.22 C 714.33 60.93 713.47 60.33 713.04 60.04 Z" />
<path fill="#99bba5" opacity="0.75" d=" M 756.68 67.78 C 763.47 66.64 770.57 66.51 777.31 67.95 C 770.44 67.35 763.56 67.31 756.68 67.78 Z" />
<path fill="#99bba5" opacity="0.75" d=" M 778.04 68.37 C 779.43 67.51 780.71 67.65 781.88 68.78 L 781.74 69.29 C 780.41 69.60 779.08 69.16 778.04 68.37 Z" />
<path fill="#99bba5" opacity="0.75" d=" M 782.81 69.20 L 783.63 68.77 L 784.56 69.25 L 784.66 70.13 C 784.20 69.90 783.27 69.43 782.81 69.20 Z" />
<path fill="#99bba5" opacity="0.75" d=" M 742.45 72.09 C 742.22 70.06 745.51 69.78 746.95 70.22 C 746.08 71.89 744.10 72.04 742.45 72.09 Z" />
<path fill="#99bba5" opacity="0.75" d=" M 756.20 93.05 L 757.19 92.60 L 758.00 93.08 C 757.52 93.29 756.55 93.72 756.07 93.94 L 756.20 93.05 Z" />
<path fill="#99bba5" opacity="0.75" d=" M 780.44 94.27 C 780.49 94.29 780.59 94.33 780.65 94.35 C 780.59 94.33 780.49 94.29 780.44 94.27 Z" />
<path fill="#99bba5" opacity="0.75" d=" M 786.39 97.34 C 786.44 97.38 786.55 97.44 786.60 97.48 C 786.55 97.44 786.44 97.38 786.39 97.34 Z" />
<path fill="#99bba5" opacity="0.75" d=" M 823.70 106.30 C 825.34 106.50 825.68 107.39 824.72 108.97 C 823.94 108.24 823.60 107.35 823.70 106.30 Z" />
<path fill="#99bba5" opacity="0.75" d=" M 212.89 116.89 C 214.47 114.51 216.49 112.23 219.07 110.92 C 217.28 113.18 215.20 115.18 212.89 116.89 Z" />
<path fill="#99bba5" opacity="0.75" d=" M 202.95 126.88 C 203.96 124.12 206.76 122.75 208.86 120.92 C 207.14 123.15 205.12 125.10 202.95 126.88 Z" />
<path fill="#99bba5" opacity="0.75" d=" M 825.75 134.42 C 825.36 132.75 825.57 130.98 826.61 129.57 C 828.08 130.27 827.05 132.56 827.22 133.90 C 826.85 134.03 826.12 134.29 825.75 134.42 Z" />
<path fill="#99bba5" opacity="0.75" d=" M 824.77 138.65 C 824.71 137.47 825.08 136.46 825.88 135.62 C 827.43 136.01 826.32 139.53 824.77 138.65 Z" />
<path fill="#99bba5" opacity="0.75" d=" M 191.25 140.16 C 190.75 138.49 191.34 137.79 193.04 138.05 C 192.84 139.09 192.25 139.80 191.25 140.16 Z" />
<path fill="#99bba5" opacity="0.75" d=" M 823.91 141.56 C 824.10 141.01 824.48 139.93 824.67 139.39 C 826.53 139.43 825.31 142.83 823.91 141.56 Z" />
<path fill="#99bba5" opacity="0.75" d=" M 748.31 149.53 C 748.36 149.56 748.45 149.62 748.50 149.65 C 748.45 149.62 748.36 149.56 748.31 149.53 Z" />
<path fill="#99bba5" opacity="0.75" d=" M 780.48 152.67 C 780.53 152.65 780.62 152.61 780.66 152.60 C 780.62 152.61 780.53 152.65 780.48 152.67 Z" />
<path fill="#99bba5" opacity="0.75" d=" M 836.71 176.56 C 838.10 175.69 839.68 178.07 838.61 179.19 C 837.50 178.74 836.67 177.79 836.71 176.56 Z" />
<path fill="#99bba5" opacity="0.75" d=" M 838.95 179.86 C 840.65 179.69 841.18 180.45 840.52 182.14 C 839.60 181.64 839.08 180.88 838.95 179.86 Z" />
<path fill="#99bba5" opacity="0.75" d=" M 842.69 185.04 C 844.18 186.64 844.79 189.03 846.88 190.03 C 846.52 189.96 845.81 189.81 845.45 189.73 C 844.34 188.28 843.53 186.64 842.69 185.04 Z" />
<path fill="#99bba5" opacity="0.75" d=" M 849.03 196.12 C 850.72 195.90 852.02 198.56 851.61 200.04 C 849.68 199.73 849.17 197.77 849.03 196.12 Z" />
<path fill="#99bba5" opacity="0.75" d=" M 854.81 206.25 L 855.69 206.21 L 856.30 207.07 L 856.00 207.94 C 855.70 207.52 855.11 206.67 854.81 206.25 Z" />
<path fill="#99bba5" opacity="0.75" d=" M 136.39 220.38 C 138.22 219.62 138.63 217.42 139.90 216.06 C 138.02 220.87 135.67 225.47 133.27 230.04 C 133.37 229.49 133.56 228.39 133.66 227.85 C 134.35 227.02 134.76 226.06 134.87 224.96 C 136.02 224.49 136.23 223.67 135.49 222.49 C 135.89 222.41 136.70 222.25 137.10 222.17 C 136.92 221.72 136.57 220.83 136.39 220.38 Z" />
<path fill="#99bba5" opacity="0.75" d=" M 875.94 253.23 C 877.46 253.15 879.12 256.62 877.68 257.52 C 876.53 256.40 875.53 254.90 875.94 253.23 Z" />
<path fill="#99bba5" opacity="0.75" d=" M 879.90 264.12 L 880.77 264.25 L 881.22 265.22 L 880.75 266.03 C 880.54 265.55 880.11 264.60 879.90 264.12 Z" />
<path fill="#99bba5" opacity="0.75" d=" M 116.47 275.96 C 115.61 274.58 116.22 271.15 118.05 271.15 C 118.19 272.92 117.77 274.69 116.47 275.96 Z" />
<path fill="#99bba5" opacity="0.75" d=" M 300.30 294.14 L 301.28 293.72 L 302.07 294.21 C 301.59 294.41 300.63 294.81 300.15 295.01 L 300.30 294.14 Z" />
<path fill="#99bba5" opacity="0.75" d=" M 108.86 303.40 C 109.22 302.61 109.61 301.84 110.02 301.08 C 109.64 304.12 109.08 307.15 108.26 310.10 C 108.14 309.69 107.90 308.86 107.78 308.44 C 108.71 306.92 108.81 305.13 108.86 303.40 Z" />
<path fill="#99bba5" opacity="0.75" d=" M 154.05 304.24 L 154.92 304.02 C 154.76 304.52 154.44 305.53 154.28 306.04 L 153.72 305.27 L 154.05 304.24 Z" />
<path fill="#99bba5" opacity="0.75" d=" M 893.86 322.24 L 894.25 322.17 C 894.89 323.51 896.27 326.50 894.58 327.38 C 893.54 325.85 893.51 323.99 893.86 322.24 Z" />
<path fill="#99bba5" opacity="0.75" d=" M 105.30 327.93 C 104.21 327.13 104.14 323.56 106.06 324.37 C 106.40 325.56 106.60 327.22 105.30 327.93 Z" />
<path fill="#99bba5" opacity="0.75" d=" M 103.87 334.68 C 104.14 333.41 104.52 332.17 104.95 330.96 C 104.98 333.13 104.88 335.33 104.26 337.44 L 103.61 338.12 C 103.58 336.96 103.71 335.82 103.87 334.68 Z" />
<path fill="#99bba5" opacity="0.75" d=" M 895.90 336.97 L 896.32 337.09 C 896.22 338.42 896.77 339.58 897.47 340.69 L 896.50 340.58 C 897.54 342.67 897.12 344.96 896.90 347.17 C 896.02 343.84 895.91 340.39 895.90 336.97 Z" />
<path fill="#99bba5" opacity="0.75" d=" M 102.60 348.99 C 103.19 345.93 103.45 342.83 103.81 339.75 C 103.70 342.85 103.58 345.95 103.16 349.03 L 102.60 348.99 Z" />
<path fill="#99bba5" opacity="0.75" d=" M 535.36 340.63 C 536.13 346.39 535.48 352.21 535.67 358.00 C 535.92 376.69 535.30 395.40 535.91 414.10 C 534.49 409.17 535.25 403.97 535.12 398.92 C 535.24 379.49 534.75 360.04 535.36 340.63 Z" />
<path fill="#99bba5" opacity="0.75" d=" M 897.01 347.77 C 897.60 349.80 896.64 352.56 898.39 354.02 C 896.85 354.64 898.02 356.08 898.17 357.17 C 898.06 357.58 897.83 358.41 897.72 358.82 C 898.63 362.60 897.67 366.50 898.04 370.33 C 897.46 362.82 896.75 355.31 897.01 347.77 Z" />
<path fill="#99bba5" opacity="0.75" d=" M 101.14 355.87 C 103.28 355.30 102.57 352.74 102.97 351.06 C 102.66 356.79 103.03 362.55 102.24 368.25 C 100.94 364.20 102.71 359.73 102.60 355.54 L 101.14 355.87 Z" />
<path fill="#99bba5" opacity="0.75" d=" M 102.27 381.83 C 102.87 387.23 102.91 392.67 102.96 398.10 C 102.72 396.57 102.56 395.01 102.60 393.46 L 101.27 393.82 C 103.73 392.33 101.94 388.72 101.77 386.38 C 101.98 384.86 102.06 383.33 102.27 381.83 Z" />
<path fill="#99bba5" opacity="0.75" d=" M 897.11 400.33 C 896.81 394.12 897.06 387.91 897.94 381.76 C 898.27 385.33 898.02 388.90 898.11 392.37 C 898.04 393.08 898.18 393.78 898.30 394.49 C 897.02 396.08 897.59 398.42 897.11 400.33 Z" />
<path fill="#99bba5" opacity="0.75" d=" M 102.56 398.82 L 103.11 399.60 C 103.83 402.68 103.86 405.86 103.93 409.01 C 103.67 407.40 103.31 405.81 102.84 404.26 C 103.06 402.43 102.77 400.62 102.56 398.82 Z" />
<path fill="#99bba5" opacity="0.75" d=" M 897.06 400.77 C 897.42 403.11 897.40 405.57 896.75 407.87 C 896.49 408.91 896.24 409.95 896.00 411.00 C 895.92 407.55 896.12 404.10 897.06 400.77 Z" />
<path fill="#99bba5" opacity="0.75" d=" M 894.86 420.31 C 895.03 417.81 895.29 415.31 895.79 412.86 C 896.63 415.35 895.64 417.93 894.86 420.31 Z" />
<path fill="#99bba5" opacity="0.75" d=" M 105.18 419.76 C 106.02 423.71 106.78 427.72 106.67 431.78 L 106.67 431.79 C 105.68 429.71 105.95 427.35 105.54 425.15 C 104.42 423.52 104.70 421.54 105.18 419.76 Z" />
<path fill="#99bba5" opacity="0.75" d=" M 893.79 426.96 C 894.04 424.89 894.37 422.84 894.78 420.81 L 895.51 421.10 C 895.30 421.62 894.88 422.65 894.66 423.16 L 895.54 423.13 C 894.97 424.31 894.51 425.55 894.39 426.87 L 893.79 426.96 Z" />
<path fill="#99bba5" opacity="0.75" d=" M 892.79 432.64 C 892.39 430.89 892.62 429.09 893.67 427.61 C 895.28 428.33 894.08 432.15 892.79 432.64 Z" />
<path fill="#99bba5" opacity="0.75" d=" M 107.42 433.83 C 108.37 434.85 108.61 436.23 108.31 437.57 C 106.65 437.75 105.74 434.45 107.42 433.83 Z" />
<path fill="#99bba5" opacity="0.75" d=" M 891.81 438.73 C 891.32 437.10 891.39 435.28 892.73 434.08 C 893.88 435.27 893.49 438.38 891.81 438.73 Z" />
<path fill="#99bba5" opacity="0.75" d=" M 109.23 442.47 C 107.15 443.37 106.91 439.07 108.27 438.51 C 109.23 439.60 109.72 441.04 109.23 442.47 Z" />
<path fill="#99bba5" opacity="0.75" d=" M 153.30 439.94 C 153.46 440.44 153.79 441.45 153.95 441.95 L 153.08 441.74 L 152.74 440.71 L 153.30 439.94 Z" />
<path fill="#99bba5" opacity="0.75" d=" M 110.42 448.89 C 111.06 449.72 111.30 450.64 111.15 451.66 C 109.42 452.90 108.64 449.19 110.42 448.89 Z" />
<path fill="#99bba5" opacity="0.75" d=" M 884.75 468.59 C 884.57 467.55 884.89 466.69 885.70 465.99 C 886.70 467.52 886.38 468.39 884.75 468.59 Z" />
<path fill="#99bba5" opacity="0.75" d=" M 125.52 499.93 C 126.51 500.90 127.39 502.13 127.15 503.61 C 125.34 504.24 124.50 501.07 125.52 499.93 Z" />
<path fill="#99bba5" opacity="0.75" d=" M 127.17 504.85 C 128.95 505.07 129.43 506.98 129.12 508.50 C 128.84 508.56 128.30 508.70 128.03 508.77 C 127.36 507.72 126.83 506.09 127.17 504.85 Z" />
<path fill="#99bba5" opacity="0.75" d=" M 864.97 523.26 C 865.64 521.07 866.71 519.03 867.81 517.02 C 866.80 519.41 866.00 521.89 864.88 524.24 L 864.97 523.26 Z" />
<path fill="#99bba5" opacity="0.75" d=" M 672.18 525.40 C 675.25 525.41 678.32 525.49 681.40 525.62 C 681.10 538.75 681.60 551.90 681.05 565.02 C 680.94 552.02 681.02 539.01 681.00 526.01 C 678.17 526.00 675.34 525.99 672.52 526.00 C 672.50 531.56 672.49 537.11 672.46 542.67 C 666.56 542.86 660.66 542.94 654.77 542.79 C 660.45 541.77 666.26 542.37 672.01 542.29 C 672.06 536.66 671.81 531.02 672.18 525.40 Z" />
<path fill="#99bba5" opacity="0.75" d=" M 590.24 542.28 C 593.35 542.18 596.46 542.19 599.58 542.28 C 599.54 550.27 599.70 558.25 599.64 566.24 C 598.35 558.51 599.34 550.64 598.97 542.85 C 596.29 542.84 593.61 542.84 590.94 542.85 C 590.66 550.94 590.80 559.03 590.89 567.13 C 589.51 558.94 590.57 550.55 590.24 542.28 Z" />
<path fill="#99bba5" opacity="0.75" d=" M 839.90 567.79 C 839.97 566.53 840.67 565.43 841.82 564.89 C 842.77 565.98 841.33 568.53 839.90 567.79 Z" />
<path fill="#99bba5" opacity="0.75" d=" M 167.23 578.75 C 169.02 580.69 170.48 582.89 171.83 585.15 C 170.01 583.23 168.53 581.04 167.23 578.75 Z" />
<path fill="#99bba5" opacity="0.75" d=" M 827.79 585.65 C 827.29 583.71 828.96 582.51 830.51 581.86 C 831.11 583.32 829.22 585.66 827.79 585.65 Z" />
<path fill="#99bba5" opacity="0.75" d=" M 662.98 583.82 C 663.46 583.62 664.41 583.22 664.89 583.02 L 664.75 583.89 L 663.77 584.31 L 662.98 583.82 Z" />
<path fill="#99bba5" opacity="0.75" d=" M 821.96 593.04 C 822.11 591.99 822.68 591.26 823.68 590.87 C 824.19 592.55 823.61 593.28 821.96 593.04 Z" />
<path fill="#99bba5" opacity="0.75" d=" M 190.21 607.83 C 191.19 608.21 191.81 608.92 192.05 609.96 C 190.34 610.22 189.73 609.51 190.21 607.83 Z" />
<path fill="#99bba5" opacity="0.75" d=" M 808.02 610.02 C 808.23 608.95 808.83 608.24 809.84 607.87 C 810.32 609.51 809.72 610.22 808.02 610.02 Z" />
<path fill="#99bba5" opacity="0.75" d=" M 778.02 640.68 C 778.64 638.89 779.92 637.44 781.85 637.07 C 781.97 638.74 779.91 641.43 778.02 640.68 Z" />
<path fill="#99bba5" opacity="0.75" d=" M 227.09 645.04 C 228.14 645.12 228.79 645.70 229.05 646.80 C 227.94 648.11 224.94 645.81 227.09 645.04 Z" />
<path fill="#99bba5" opacity="0.75" d=" M 769.94 647.80 C 770.30 646.85 770.97 646.26 771.96 646.02 C 772.58 647.23 772.24 648.09 770.96 648.60 C 770.70 648.40 770.19 648.00 769.94 647.80 Z" />
<path fill="#99bba5" opacity="0.75" d=" M 249.95 663.87 C 251.00 664.00 251.74 664.55 252.17 665.54 C 250.53 666.12 249.79 665.56 249.95 663.87 Z" />
<path fill="#99bba5" opacity="0.75" d=" M 285.49 687.77 C 286.69 687.74 287.78 688.42 288.15 689.60 C 287.08 690.62 284.59 689.18 285.49 687.77 Z" />
<path fill="#99bba5" opacity="0.75" d=" M 290.46 690.77 C 290.87 691.08 291.69 691.71 292.10 692.02 L 291.22 692.29 L 290.40 691.65 L 290.46 690.77 Z" />
<path fill="#99bba5" opacity="0.75" d=" M 295.93 694.25 C 298.04 695.20 300.10 696.26 302.05 697.53 C 301.57 697.47 300.61 697.35 300.12 697.29 C 298.91 695.99 296.97 695.72 295.93 694.25 Z" />
<path fill="#99bba5" opacity="0.75" d=" M 415.11 698.96 C 415.61 699.15 416.60 699.51 417.09 699.70 L 416.30 700.23 L 415.28 699.85 L 415.11 698.96 Z" />
<path fill="#99bba5" opacity="0.75" d=" M 310.41 701.70 C 311.92 701.71 313.27 702.42 314.16 703.65 C 312.94 704.53 309.86 703.36 310.41 701.70 Z" />
<path fill="#99bba5" opacity="0.75" d=" M 667.48 712.37 C 670.50 710.56 673.83 709.39 677.10 708.15 C 676.04 710.09 673.13 709.24 672.06 711.12 C 671.61 711.08 670.72 711.01 670.27 710.97 L 670.54 712.78 C 670.42 712.49 670.18 711.90 670.06 711.60 C 669.00 712.28 667.94 712.95 666.79 713.47 L 667.48 712.37 Z" />
<path fill="#99bba5" opacity="0.75" d=" M 325.31 708.83 C 327.07 708.28 328.68 709.23 329.52 710.80 C 329.28 710.96 328.80 711.26 328.56 711.41 C 327.72 710.17 324.20 710.85 325.31 708.83 Z" />
<path fill="#99bba5" opacity="0.75" d=" M 337.39 714.59 C 337.43 714.61 337.51 714.65 337.55 714.67 C 337.51 714.65 337.43 714.61 337.39 714.59 Z" />
<path fill="#99bba5" opacity="0.75" d=" M 341.20 715.91 C 341.59 715.94 342.36 715.99 342.75 716.02 L 342.98 716.73 L 342.18 717.18 C 341.93 716.87 341.44 716.23 341.20 715.91 Z" />
<path fill="#99bba5" opacity="0.75" d=" M 629.89 726.66 C 632.21 725.66 634.58 724.69 637.09 724.24 C 634.98 725.75 632.36 726.12 629.89 726.66 Z" />
<path fill="#99bba5" opacity="0.75" d=" M 622.89 728.61 C 623.71 727.85 624.67 727.54 625.77 727.67 L 625.78 728.39 L 624.90 729.05 C 624.40 728.94 623.40 728.72 622.89 728.61 Z" />
<path fill="#99bba5" opacity="0.75" d=" M 616.02 730.69 C 616.77 729.95 617.66 729.65 618.70 729.77 C 618.48 731.41 617.59 731.72 616.02 730.69 Z" />
<path fill="#99bba5" opacity="0.75" d=" M 596.81 735.87 C 600.31 734.78 603.82 733.64 607.48 733.22 L 608.32 733.15 C 604.57 734.35 600.72 735.32 596.81 735.87 Z" />
<path fill="#99bba5" opacity="0.75" d=" M 577.93 739.79 C 580.94 739.07 583.94 738.30 587.01 737.92 C 586.68 738.34 586.03 739.17 585.70 739.59 C 585.70 739.27 585.71 738.64 585.71 738.32 C 583.19 739.15 580.57 739.57 577.93 739.79 Z" />
<path fill="#99bba5" opacity="0.75" d=" M 423.21 739.74 C 424.87 739.39 426.59 739.61 428.00 740.63 C 426.56 741.52 424.40 741.11 423.11 740.16 L 423.21 739.74 Z" />
<path fill="#99bba5" opacity="0.75" d=" M 572.11 740.62 C 573.19 739.96 574.46 739.58 575.74 739.88 C 576.14 741.67 572.93 741.69 572.11 740.62 Z" />
<path fill="#99bba5" opacity="0.75" d=" M 442.23 742.84 C 444.16 742.39 446.31 742.11 447.94 743.52 C 446.43 745.25 443.98 743.73 442.26 743.21 L 442.23 742.84 Z" />
<path fill="#99bba5" opacity="0.75" d=" M 552.14 743.78 C 553.03 742.06 555.17 742.64 556.70 742.88 L 556.74 743.34 C 556.28 743.57 555.35 744.04 554.88 744.28 C 553.85 744.51 552.94 744.34 552.14 743.78 Z" />
<path fill="#99bba5" opacity="0.75" d=" M 450.69 744.08 C 453.20 744.01 455.72 744.18 458.17 744.79 C 455.69 745.87 453.12 744.67 450.69 744.08 Z" />
<path fill="#99bba5" opacity="0.75" d=" M 541.76 744.77 C 544.02 744.36 546.30 744.05 548.61 744.03 L 548.91 744.02 C 546.80 745.27 544.39 745.30 542.03 745.29 L 541.76 744.77 Z" />
<path fill="#99bba5" opacity="0.75" d=" M 460.04 745.08 C 463.54 745.14 467.06 745.28 470.51 745.98 C 467.01 746.31 463.51 745.42 460.04 745.08 Z" />
<path fill="#99bba5" opacity="0.75" d=" M 530.37 745.83 C 533.48 745.03 536.71 745.00 539.91 744.96 L 539.95 745.47 C 538.47 745.52 537.00 745.59 535.54 745.67 L 535.83 746.40 C 533.79 745.63 531.65 746.07 529.56 746.25 L 530.37 745.83 Z" />
<path fill="#99bba5" opacity="0.75" d=" M 472.99 746.11 C 477.71 746.04 482.43 746.26 487.14 746.74 C 482.41 746.85 477.69 746.58 472.99 746.11 Z" />
<path fill="#99bba5" opacity="0.75" d=" M 513.78 746.63 C 518.13 746.03 522.52 745.97 526.90 746.07 C 524.17 746.29 521.46 746.74 518.76 747.15 C 517.12 746.78 515.44 746.67 513.78 746.63 Z" />
</g>
<g id="#ffffffff">
<path fill="#ffffff" opacity="1.00" d=" M 472.14 3.18 C 472.85 3.11 474.29 2.98 475.00 2.92 C 492.09 2.83 509.17 2.34 526.25 2.94 C 531.05 3.32 536.01 3.24 540.69 4.37 C 541.04 4.59 541.75 5.03 542.10 5.26 C 542.34 5.01 542.80 4.51 543.03 4.27 C 543.19 4.00 543.50 3.47 543.66 3.20 L 543.45 4.42 C 546.90 4.62 550.33 5.03 553.74 5.61 L 553.86 4.20 C 553.98 4.57 554.20 5.32 554.31 5.69 C 555.68 5.56 556.97 5.77 558.18 6.31 C 559.77 7.61 561.86 7.55 563.80 7.21 L 565.17 7.09 C 566.15 8.67 568.15 8.34 569.72 8.14 C 572.04 7.95 574.38 8.55 576.61 9.19 C 577.86 9.73 579.19 10.23 580.60 10.13 C 583.52 10.13 586.36 11.01 589.21 11.56 L 589.42 10.10 C 589.44 10.52 589.46 11.37 589.47 11.79 C 590.09 11.94 591.32 12.24 591.94 12.39 C 593.00 13.28 594.38 13.59 595.75 13.34 C 602.64 14.22 609.35 16.55 616.09 18.30 C 616.90 18.87 617.81 19.15 618.81 19.13 C 620.12 19.33 621.38 19.80 622.60 20.33 C 623.16 20.51 624.29 20.86 624.86 21.04 C 626.12 21.25 627.38 21.58 628.52 22.21 C 629.16 22.43 630.44 22.86 631.08 23.07 L 632.24 23.27 C 632.99 23.92 633.87 24.25 634.87 24.25 C 638.68 25.31 642.51 26.50 646.06 28.26 C 647.42 29.10 648.94 29.64 650.52 29.96 C 654.52 31.09 658.37 32.74 662.14 34.48 C 663.16 35.16 664.24 35.79 665.47 36.04 C 667.20 36.49 668.89 37.14 670.44 38.06 C 670.78 38.24 671.46 38.61 671.80 38.79 L 672.45 39.23 C 673.39 40.58 674.87 41.50 676.57 41.21 C 680.60 42.06 684.26 44.55 688.03 46.26 C 689.11 47.22 690.37 47.97 691.81 48.26 C 693.25 48.68 694.49 49.59 695.79 50.34 C 697.18 51.23 698.61 52.10 700.12 52.81 C 704.60 54.85 708.93 57.37 713.04 60.04 C 713.47 60.33 714.33 60.93 714.76 61.22 C 715.21 61.46 716.11 61.95 716.56 62.19 C 717.49 63.00 718.56 63.63 719.70 64.12 C 725.42 67.21 730.65 71.13 736.10 74.67 C 738.18 73.77 740.13 72.26 742.45 72.09 C 744.10 72.04 746.08 71.89 746.95 70.22 C 749.78 69.16 752.77 68.64 755.69 67.82 L 756.68 67.78 C 763.56 67.31 770.44 67.35 777.31 67.95 L 778.04 68.37 C 779.08 69.16 780.41 69.60 781.74 69.29 L 782.81 69.20 C 783.27 69.43 784.20 69.90 784.66 70.13 C 786.13 69.88 787.49 70.69 788.85 71.12 C 794.55 73.46 800.30 76.12 804.92 80.28 C 806.06 81.65 807.46 82.77 808.98 83.71 C 814.93 88.74 819.33 95.37 822.53 102.44 C 823.00 103.69 823.82 104.90 823.70 106.30 C 823.60 107.35 823.94 108.24 824.72 108.97 L 825.41 110.71 C 825.96 113.34 826.06 116.03 826.63 118.66 L 826.70 119.01 C 827.38 122.02 827.21 125.14 827.10 128.20 L 827.05 128.71 L 826.61 129.57 C 825.57 130.98 825.36 132.75 825.75 134.42 L 825.88 135.62 C 825.08 136.46 824.71 137.47 824.77 138.65 L 824.67 139.39 C 824.48 139.93 824.10 141.01 823.91 141.56 C 823.64 145.48 821.20 148.84 819.54 152.31 C 819.97 152.84 820.83 153.90 821.27 154.43 L 821.41 154.62 L 821.53 154.81 L 822.16 155.95 C 822.66 157.09 823.39 158.11 824.35 158.92 C 825.38 159.97 826.50 161.03 827.02 162.45 C 827.34 163.50 828.05 164.34 828.95 164.97 C 831.68 168.68 835.00 172.28 836.71 176.56 C 836.67 177.79 837.50 178.74 838.61 179.19 L 838.95 179.86 C 839.08 180.88 839.60 181.64 840.52 182.14 C 841.52 182.85 842.06 184.00 842.69 185.04 C 843.53 186.64 844.34 188.28 845.45 189.73 C 846.54 191.15 847.67 192.59 848.27 194.31 C 848.44 194.66 848.77 195.35 848.93 195.70 L 849.03 196.12 C 849.17 197.77 849.68 199.73 851.61 200.04 L 852.05 201.27 C 852.28 202.40 853.02 203.30 853.96 203.97 C 854.17 204.54 854.60 205.68 854.81 206.25 C 855.11 206.67 855.70 207.52 856.00 207.94 C 856.86 209.13 857.45 210.50 858.18 211.79 C 862.99 221.77 868.16 231.65 871.94 242.09 C 872.23 243.65 872.78 245.16 873.72 246.47 C 874.84 247.65 874.55 250.57 876.56 250.40 C 876.09 251.27 875.88 252.22 875.94 253.23 C 875.53 254.90 876.53 256.40 877.68 257.52 L 877.86 258.01 C 878.10 258.63 878.58 259.88 878.82 260.51 C 879.37 261.62 880.08 262.82 879.90 264.12 C 880.11 264.60 880.54 265.55 880.75 266.03 C 882.72 271.08 884.03 276.40 885.48 281.63 L 886.87 281.46 C 886.55 281.55 885.91 281.74 885.59 281.83 C 886.82 284.12 885.92 288.08 888.70 289.17 C 888.38 289.21 887.75 289.29 887.44 289.33 C 888.39 292.04 888.96 294.86 889.44 297.69 L 890.66 297.16 C 888.44 299.28 891.71 302.76 890.90 305.48 C 890.70 306.85 891.26 308.13 891.82 309.36 C 892.77 313.58 893.82 317.90 893.86 322.24 C 893.51 323.99 893.54 325.85 894.58 327.38 C 895.69 330.42 895.62 333.77 895.90 336.97 C 895.91 340.39 896.02 343.84 896.90 347.17 L 897.01 347.77 C 896.75 355.31 897.46 362.82 898.04 370.33 C 898.05 370.81 898.07 371.77 898.08 372.25 L 898.08 372.77 C 898.03 374.61 898.02 376.45 898.07 378.30 L 898.07 378.82 L 898.06 380.18 L 898.03 380.70 L 897.94 381.76 C 897.06 387.91 896.81 394.12 897.11 400.33 L 897.06 400.77 C 896.12 404.10 895.92 407.55 896.00 411.00 C 895.95 411.46 895.85 412.39 895.79 412.86 C 895.29 415.31 895.03 417.81 894.86 420.31 L 894.78 420.81 C 894.37 422.84 894.04 424.89 893.79 426.96 L 893.67 427.61 C 892.62 429.09 892.39 430.89 892.79 432.64 L 892.73 434.08 C 891.39 435.28 891.32 437.10 891.81 438.73 C 891.67 443.16 890.24 447.47 889.37 451.81 L 890.83 451.86 C 890.27 452.03 889.72 452.19 889.18 452.36 C 888.74 455.66 887.67 458.83 887.17 462.12 C 886.72 463.42 886.28 464.73 885.70 465.99 C 884.89 466.69 884.57 467.55 884.75 468.59 L 884.79 469.58 C 884.62 470.16 884.29 471.31 884.12 471.88 C 883.54 474.68 882.88 477.49 881.64 480.08 C 881.20 480.94 880.93 481.85 880.82 482.81 C 880.56 484.35 879.97 485.81 879.49 487.29 L 880.95 487.37 C 880.56 487.41 879.77 487.47 879.38 487.51 C 878.90 488.88 878.42 490.27 877.77 491.59 C 876.44 494.36 875.72 497.37 874.81 500.30 C 874.30 501.74 873.72 503.17 872.93 504.49 C 872.04 505.76 871.50 507.21 871.18 508.72 C 870.39 511.61 869.20 514.37 867.81 517.02 C 866.71 519.03 865.64 521.07 864.97 523.26 C 864.64 523.95 864.00 525.33 863.67 526.02 C 862.53 527.51 861.65 529.17 861.19 531.00 L 860.71 532.08 C 860.00 532.85 859.44 533.74 859.16 534.75 L 858.84 535.51 C 858.67 535.86 858.32 536.56 858.15 536.91 L 857.78 537.59 C 857.53 538.12 857.04 539.16 856.79 539.68 C 853.86 545.26 850.99 550.96 847.42 556.15 C 846.39 557.26 845.57 558.55 845.08 559.99 C 844.19 561.72 843.55 563.79 841.82 564.89 C 840.67 565.43 839.97 566.53 839.90 567.79 C 838.99 570.49 837.07 572.81 835.27 575.01 C 834.33 575.87 833.59 576.91 833.17 578.12 C 832.49 579.49 831.64 580.82 830.51 581.86 C 828.96 582.51 827.29 583.71 827.79 585.65 C 826.55 587.46 825.50 589.57 823.68 590.87 C 822.68 591.26 822.11 591.99 821.96 593.04 C 820.69 595.86 818.26 598.01 816.47 600.52 C 814.23 602.92 812.50 605.93 809.84 607.87 C 808.83 608.24 808.23 608.95 808.02 610.02 C 807.49 611.36 806.36 612.34 805.48 613.45 C 800.05 619.33 794.62 625.23 788.87 630.80 C 786.58 632.91 784.63 635.58 781.85 637.07 C 779.92 637.44 778.64 638.89 778.02 640.68 C 776.41 642.79 774.46 644.99 771.96 646.02 C 770.97 646.26 770.30 646.85 769.94 647.80 C 768.08 650.62 764.95 652.33 762.40 654.48 C 760.49 655.89 758.74 657.50 756.96 659.07 C 748.81 665.45 740.47 671.61 731.81 677.28 C 730.01 678.40 728.28 679.63 726.58 680.90 C 726.18 681.12 725.37 681.55 724.97 681.77 C 724.51 682.05 723.60 682.61 723.14 682.89 C 721.58 684.17 719.83 685.22 718.00 686.05 C 716.53 686.55 715.27 687.42 714.11 688.41 L 712.77 689.14 C 711.75 689.49 710.86 690.09 710.11 690.85 C 703.90 694.63 697.48 698.10 690.99 701.40 C 688.57 702.52 686.15 703.65 683.81 704.93 C 681.62 706.10 679.40 707.23 677.10 708.15 C 673.83 709.39 670.50 710.56 667.48 712.37 C 663.40 714.43 659.13 716.17 654.83 717.70 C 653.83 717.71 652.95 718.05 652.22 718.72 L 650.87 719.36 C 648.65 720.09 646.33 720.58 644.25 721.64 L 643.98 721.78 C 642.63 722.73 639.79 722.54 639.59 724.56 C 638.82 724.02 637.98 723.91 637.09 724.24 C 634.58 724.69 632.21 725.66 629.89 726.66 C 628.55 727.09 627.23 727.89 625.77 727.67 C 624.67 727.54 623.71 727.85 622.89 728.61 L 621.56 729.03 C 621.03 729.22 619.98 729.58 619.46 729.76 L 618.70 729.77 C 617.66 729.65 616.77 729.95 616.02 730.69 C 613.30 731.93 610.36 732.54 607.48 733.22 C 603.82 733.64 600.31 734.78 596.81 735.87 C 594.41 736.58 591.94 736.99 589.48 737.44 C 589.47 737.83 589.44 738.60 589.42 738.99 L 589.29 737.60 C 588.72 737.68 587.58 737.84 587.01 737.92 C 583.94 738.30 580.94 739.07 577.93 739.79 C 577.39 739.82 576.29 739.86 575.74 739.88 C 574.46 739.58 573.19 739.96 572.11 740.62 C 567.17 742.03 561.83 742.72 556.70 742.88 C 555.17 742.64 553.03 742.06 552.14 743.78 C 551.26 743.84 549.49 743.96 548.61 744.03 C 546.30 744.05 544.02 744.36 541.76 744.77 C 541.30 744.81 540.37 744.91 539.91 744.96 C 536.71 745.00 533.48 745.03 530.37 745.83 C 529.50 745.89 527.77 746.01 526.90 746.07 C 522.52 745.97 518.13 746.03 513.78 746.63 C 509.13 746.95 504.45 746.91 499.79 746.80 C 499.15 746.80 497.87 746.80 497.23 746.79 C 494.73 746.93 492.22 746.86 489.73 746.86 L 489.21 746.85 C 488.69 746.82 487.65 746.76 487.14 746.74 C 482.43 746.26 477.71 746.04 472.99 746.11 C 472.37 746.08 471.13 746.01 470.51 745.98 C 467.06 745.28 463.54 745.14 460.04 745.08 C 459.57 745.01 458.64 744.86 458.17 744.79 C 455.72 744.18 453.20 744.01 450.69 744.08 C 450.00 743.94 448.63 743.66 447.94 743.52 C 446.31 742.11 444.16 742.39 442.23 742.84 L 441.40 742.91 C 439.57 742.61 437.76 742.23 435.93 742.03 C 433.28 741.63 430.52 741.61 428.00 740.63 C 426.59 739.61 424.87 739.39 423.21 739.74 C 420.70 739.83 418.28 738.98 415.82 738.62 C 403.80 736.08 391.75 733.36 380.04 729.64 C 378.62 728.80 377.05 728.35 375.44 728.11 C 371.44 727.29 367.59 725.89 363.76 724.50 C 363.74 724.86 363.70 725.58 363.68 725.93 C 363.61 725.55 363.48 724.78 363.41 724.40 C 360.92 723.43 358.27 722.87 355.90 721.61 C 354.40 720.71 352.76 720.12 351.05 719.83 C 348.28 719.04 345.58 717.97 342.98 716.73 L 342.75 716.02 C 342.36 715.99 341.59 715.94 341.20 715.91 L 339.56 715.58 C 339.50 715.56 339.40 715.52 339.34 715.50 L 337.55 714.67 C 337.51 714.65 337.43 714.61 337.39 714.59 L 336.30 713.94 C 335.36 713.33 334.36 712.91 333.28 712.68 C 331.96 712.22 330.49 711.86 329.52 710.80 C 328.68 709.23 327.07 708.28 325.31 708.83 C 322.64 708.48 320.28 706.85 317.85 705.77 C 317.39 705.53 316.46 705.05 315.99 704.80 C 315.53 704.52 314.62 703.94 314.16 703.65 C 313.27 702.42 311.92 701.71 310.41 701.70 C 307.38 700.93 304.74 699.06 302.05 697.53 C 300.10 696.26 298.04 695.20 295.93 694.25 C 294.68 693.49 293.05 693.15 292.10 692.02 C 291.69 691.71 290.87 691.08 290.46 690.77 C 289.89 690.48 288.73 689.89 288.15 689.60 C 287.78 688.42 286.69 687.74 285.49 687.77 C 280.15 685.58 275.28 682.04 270.55 678.70 C 268.86 677.40 267.04 676.32 265.22 675.24 C 264.05 674.50 262.89 673.77 261.89 672.84 C 261.23 672.05 260.41 671.40 259.45 671.06 C 258.34 670.47 257.30 669.79 256.32 669.01 C 256.11 669.17 255.67 669.49 255.45 669.64 C 255.54 667.51 253.09 667.10 252.17 665.54 C 251.74 664.55 251.00 664.00 249.95 663.87 L 248.73 663.46 C 248.67 663.42 248.56 663.35 248.50 663.31 C 247.04 662.10 245.46 661.04 243.95 659.89 C 243.86 659.62 243.68 659.09 243.59 658.82 C 242.31 658.04 241.04 657.25 239.81 656.41 C 237.46 654.48 234.99 652.66 232.98 650.38 C 232.29 649.40 231.38 648.60 230.28 648.13 C 229.98 647.80 229.36 647.13 229.05 646.80 C 228.79 645.70 228.14 645.12 227.09 645.04 L 226.15 644.93 C 226.06 643.95 225.50 643.31 224.49 643.01 C 221.37 640.58 218.39 637.92 215.81 634.92 C 215.11 634.03 214.37 633.08 213.27 632.72 L 212.73 632.48 C 212.24 631.97 211.26 630.95 210.78 630.44 C 210.73 630.39 210.63 630.29 210.57 630.24 C 210.11 629.79 209.19 628.89 208.73 628.44 C 208.68 628.39 208.59 628.30 208.55 628.26 C 206.93 626.53 205.34 624.78 203.69 623.09 C 201.44 620.73 199.33 618.23 197.38 615.62 C 196.94 615.32 196.07 614.72 195.63 614.42 C 195.37 614.15 194.86 613.60 194.61 613.33 C 193.73 612.23 192.55 611.30 192.05 609.96 C 191.81 608.92 191.19 608.21 190.21 607.83 C 187.38 605.59 185.36 602.48 183.13 599.68 C 182.89 599.37 182.41 598.76 182.18 598.45 L 181.72 597.83 C 180.99 596.65 180.22 595.48 179.16 594.59 C 177.98 593.47 176.98 592.18 176.18 590.78 C 175.64 589.78 174.96 588.87 174.16 588.10 C 173.28 587.19 172.49 586.21 171.83 585.15 C 170.48 582.89 169.02 580.69 167.23 578.75 C 166.50 577.86 165.88 576.90 165.27 575.95 C 164.10 573.91 162.68 572.05 161.34 570.14 L 160.78 569.13 C 160.54 568.17 160.01 567.43 159.19 566.90 L 158.80 566.14 C 158.58 565.18 158.08 564.39 157.31 563.79 C 154.68 559.80 151.96 555.80 149.99 551.44 C 149.60 550.31 149.04 549.25 148.25 548.38 L 147.90 547.87 C 147.70 547.53 147.30 546.86 147.11 546.52 C 145.82 545.22 145.76 541.90 143.40 542.63 C 143.54 542.23 143.82 541.42 143.96 541.02 C 142.93 540.93 141.80 540.34 143.11 539.54 C 141.29 535.53 138.92 531.78 137.30 527.69 C 137.08 527.17 136.65 526.12 136.43 525.60 L 136.14 524.94 C 135.88 524.47 135.37 523.52 135.11 523.05 C 132.94 518.31 130.15 513.57 129.12 508.50 C 129.43 506.98 128.95 505.07 127.17 504.85 L 127.15 503.61 C 127.39 502.13 126.51 500.90 125.52 499.93 C 124.50 498.93 124.33 497.43 123.80 496.18 C 121.66 490.02 119.34 483.92 117.63 477.63 C 117.36 475.94 116.91 474.29 116.22 472.74 C 114.30 467.62 113.34 462.21 111.88 456.96 C 111.49 455.23 110.78 453.46 111.15 451.66 C 111.30 450.64 111.06 449.72 110.42 448.89 L 110.06 447.97 C 109.94 446.55 109.57 445.18 109.04 443.88 L 109.23 442.47 C 109.72 441.04 109.23 439.60 108.27 438.51 L 108.31 437.57 C 108.61 436.23 108.37 434.85 107.42 433.83 C 107.23 433.32 106.86 432.29 106.67 431.78 C 106.78 427.72 106.02 423.71 105.18 419.76 C 104.51 416.21 104.08 412.61 103.93 409.01 C 103.86 405.86 103.83 402.68 103.11 399.60 L 102.96 398.10 C 102.91 392.67 102.87 387.23 102.27 381.83 C 102.08 378.81 102.06 375.78 102.17 372.76 C 102.16 372.37 102.16 371.59 102.15 371.19 C 102.17 370.46 102.22 368.99 102.24 368.25 C 103.03 362.55 102.66 356.79 102.97 351.06 C 103.02 350.55 103.11 349.54 103.16 349.03 C 103.58 345.95 103.70 342.85 103.81 339.75 C 103.92 339.17 104.15 338.02 104.26 337.44 C 104.88 335.33 104.98 333.13 104.95 330.96 L 104.96 329.84 L 105.02 329.32 L 105.30 327.93 C 106.60 327.22 106.40 325.56 106.06 324.37 L 105.88 323.44 C 106.30 321.39 106.81 319.34 106.98 317.25 C 107.15 314.83 107.59 312.44 108.26 310.10 C 109.08 307.15 109.64 304.12 110.02 301.08 C 110.55 297.78 111.21 294.50 112.26 291.33 C 112.64 290.28 112.91 289.20 113.07 288.10 L 113.38 286.74 C 113.85 285.64 114.24 284.50 114.29 283.31 C 114.88 280.84 115.20 278.17 116.47 275.96 C 117.77 274.69 118.19 272.92 118.05 271.15 L 118.17 269.69 C 119.08 267.95 119.85 266.12 120.07 264.17 L 120.35 263.47 C 121.39 261.00 122.09 258.40 122.79 255.81 C 125.88 247.07 129.30 238.42 133.27 230.04 C 135.67 225.47 138.02 220.87 139.90 216.06 C 142.79 210.23 145.81 204.42 149.17 198.87 C 150.17 197.83 150.92 196.59 151.35 195.22 C 153.02 191.97 154.90 188.77 157.07 185.84 C 158.24 184.86 159.02 183.53 159.36 182.05 C 160.04 180.52 161.13 179.19 162.18 177.89 C 163.21 176.82 164.12 175.62 164.72 174.25 C 167.17 169.96 170.34 166.13 173.13 162.07 C 175.39 158.60 179.33 156.52 180.64 152.41 L 180.54 152.39 C 184.13 148.35 187.18 143.68 191.25 140.16 C 192.25 139.80 192.84 139.09 193.04 138.05 C 195.75 133.92 199.55 130.49 202.95 126.88 C 205.12 125.10 207.14 123.15 208.86 120.92 C 210.07 119.46 211.41 118.10 212.89 116.89 C 215.20 115.18 217.28 113.18 219.07 110.92 C 219.79 110.13 220.60 109.45 221.51 108.87 C 222.60 108.22 223.50 107.30 224.26 106.29 C 226.85 103.65 229.65 101.20 232.63 99.02 C 233.50 98.53 234.26 97.85 234.86 97.05 C 236.31 95.48 237.99 94.15 239.75 92.95 C 242.02 91.52 243.97 89.67 245.98 87.92 C 247.73 86.51 249.51 85.14 251.33 83.82 C 254.81 81.91 257.56 78.87 261.28 77.37 L 261.05 76.61 C 264.52 74.59 267.61 71.96 271.15 70.05 C 272.20 69.63 273.10 68.93 273.88 68.11 C 277.27 65.93 280.57 63.52 284.26 61.84 C 285.28 61.54 286.14 60.90 286.87 60.12 C 287.20 59.91 287.87 59.49 288.20 59.28 C 288.62 58.98 289.46 58.37 289.87 58.07 L 291.13 58.00 C 292.43 58.15 293.55 57.37 294.13 56.25 C 295.64 54.55 297.93 53.71 299.95 52.71 C 302.28 52.01 304.42 50.90 306.29 49.32 C 308.49 47.90 310.85 46.73 313.31 45.82 C 314.34 45.54 315.26 44.98 316.08 44.30 C 317.42 43.55 318.80 42.69 320.36 42.48 C 322.13 42.50 324.14 42.08 324.86 40.23 C 327.22 39.08 329.54 37.47 332.20 37.17 C 333.71 37.27 335.59 36.88 336.01 35.17 C 341.08 33.17 346.05 30.79 351.27 29.21 C 352.22 29.06 353.12 28.75 353.96 28.27 C 358.89 26.27 363.96 24.13 369.17 23.14 C 369.63 22.92 370.57 22.46 371.04 22.24 L 372.14 22.01 C 372.70 21.83 373.84 21.48 374.40 21.30 C 376.95 20.34 379.59 19.13 382.35 19.15 C 382.81 18.93 383.74 18.49 384.20 18.27 L 384.40 17.84 C 385.99 17.67 387.55 17.32 389.11 16.96 C 394.18 15.85 399.23 14.66 404.19 13.13 C 406.18 12.09 410.10 12.99 410.52 10.32 C 410.61 10.59 410.79 11.13 410.89 11.39 C 411.80 11.36 413.62 11.28 414.53 11.24 C 415.89 11.46 417.27 11.20 418.41 10.39 C 418.93 10.25 419.97 9.98 420.49 9.84 C 421.75 9.73 423.02 9.58 424.21 9.11 C 425.51 8.98 426.31 8.34 426.63 7.19 C 426.58 7.53 426.47 8.20 426.42 8.54 C 427.44 8.45 429.47 8.26 430.48 8.17 C 432.18 8.40 433.82 7.86 435.37 7.19 C 437.73 6.51 440.20 6.32 442.64 6.09 C 445.11 5.97 447.56 5.63 449.99 5.19 C 453.29 4.61 456.62 4.29 459.97 4.09 C 464.03 3.99 468.12 3.95 472.14 3.18 M 421.01 49.25 L 420.25 48.68 L 419.21 49.01 L 418.99 49.88 C 415.96 50.14 413.05 51.10 410.10 51.79 C 353.22 65.95 299.75 93.95 256.23 133.27 C 208.53 176.18 172.88 232.80 156.89 295.08 C 156.21 298.05 155.12 300.96 154.92 304.02 L 154.05 304.24 L 153.72 305.27 L 154.28 306.04 C 144.45 349.93 144.31 395.90 153.30 439.94 L 152.74 440.71 L 153.08 441.74 L 153.95 441.95 C 157.18 459.66 162.95 476.89 169.52 493.64 C 182.79 526.63 201.52 557.39 224.58 584.45 C 267.67 635.05 325.65 672.45 389.02 692.17 C 397.64 694.67 406.24 697.57 415.11 698.96 L 415.28 699.85 L 416.30 700.23 L 417.09 699.70 C 485.67 715.18 558.67 711.44 625.01 687.99 C 687.43 666.17 743.79 626.83 784.93 574.96 C 826.15 523.41 851.42 459.07 855.00 393.07 C 857.51 351.75 851.56 309.99 837.94 270.92 C 826.41 237.65 809.36 206.35 787.90 178.44 C 773.72 183.10 757.95 183.31 743.94 177.94 C 726.97 171.67 712.81 157.45 707.80 139.92 C 704.27 128.30 705.20 115.69 709.36 104.37 C 674.61 80.68 635.76 63.06 595.03 52.56 C 538.37 37.80 478.20 36.74 421.01 49.25 M 758.00 93.08 L 757.19 92.60 L 756.20 93.05 L 756.07 93.94 C 743.15 97.42 733.42 110.54 733.95 123.98 C 733.78 134.28 739.84 143.96 748.31 149.53 C 748.36 149.56 748.45 149.62 748.50 149.65 C 757.86 155.73 770.14 156.75 780.48 152.67 C 780.53 152.65 780.62 152.61 780.66 152.60 C 791.91 148.17 800.46 137.18 800.99 124.96 C 801.63 114.06 795.77 103.29 786.60 97.48 C 786.55 97.44 786.44 97.38 786.39 97.34 C 784.54 96.22 782.61 95.23 780.65 94.35 C 780.59 94.33 780.49 94.29 780.44 94.27 C 773.37 91.43 765.31 91.13 758.00 93.08 Z" />
<path fill="#ffffff" opacity="1.00" d=" M 302.07 294.21 C 308.98 293.29 316.36 297.15 319.29 303.54 C 320.78 306.82 320.33 310.51 320.40 314.01 C 320.40 333.36 320.48 352.71 320.46 372.06 C 320.40 378.34 323.17 384.83 328.44 388.45 C 335.19 393.01 344.13 395.11 351.93 392.09 C 360.22 389.15 366.72 381.00 366.72 372.05 C 366.75 351.04 366.70 330.02 366.74 309.01 C 366.70 304.78 368.63 300.63 371.83 297.87 C 378.02 292.24 388.63 292.37 394.56 298.34 C 397.50 301.08 399.06 305.10 399.10 309.08 C 399.17 329.06 399.18 349.04 399.15 369.02 C 399.17 375.77 398.64 382.63 396.41 389.05 C 391.35 404.26 378.88 416.59 363.89 422.08 C 353.40 426.09 341.76 426.71 330.81 424.36 C 317.43 421.74 304.18 415.08 296.25 403.67 C 290.03 394.75 287.49 383.70 287.55 372.94 C 287.55 351.96 287.55 330.98 287.55 310.01 C 287.40 302.97 293.12 295.75 300.15 295.01 C 300.63 294.81 301.59 294.41 302.07 294.21 Z" />
<path fill="#ffffff" opacity="1.00" d=" M 745.36 295.52 C 760.27 293.08 776.05 294.68 789.76 301.23 C 805.75 308.69 818.97 322.40 824.88 339.12 C 829.80 352.80 829.80 368.19 824.84 381.85 C 819.57 396.40 808.87 408.75 795.54 416.53 C 771.83 430.60 740.06 429.59 717.44 413.73 C 705.00 405.20 695.37 392.45 691.22 377.89 C 686.56 361.94 688.51 344.15 696.68 329.66 C 706.61 311.66 725.22 299.06 745.36 295.52 M 751.53 325.59 C 738.64 327.89 726.99 337.40 723.20 350.08 C 720.18 359.30 721.90 369.73 727.19 377.80 C 737.03 393.37 759.18 398.84 775.43 390.52 C 789.88 383.90 798.87 366.36 794.15 350.88 C 789.43 333.02 769.29 321.92 751.53 325.59 Z" />
<path fill="#ffffff" opacity="1.00" d=" M 197.47 310.97 C 197.51 302.43 205.66 295.31 214.04 295.61 C 229.33 295.61 244.62 295.60 259.92 295.62 C 266.38 295.59 273.28 298.76 276.21 304.75 C 278.15 308.52 277.91 312.89 277.99 317.01 C 277.97 333.01 278.21 349.01 277.94 365.01 C 277.98 372.29 278.49 379.70 276.72 386.85 C 273.49 400.47 263.74 412.12 251.36 418.47 C 236.25 426.36 217.36 426.58 202.08 419.00 C 187.97 412.19 177.12 398.50 174.73 382.91 C 174.22 377.99 173.57 372.60 175.81 368.01 C 180.59 360.15 192.29 358.59 199.83 363.22 C 203.79 365.75 206.36 370.31 206.37 375.04 C 206.33 384.97 215.39 393.25 225.05 393.68 C 233.49 394.34 242.02 389.09 245.15 381.21 C 246.59 377.66 246.27 373.75 246.29 370.01 C 246.18 355.74 246.46 341.46 246.29 327.19 C 235.20 327.24 224.10 327.25 213.01 327.14 C 204.68 327.01 197.00 319.44 197.47 310.97 Z" />
<path fill="#ffffff" opacity="1.00" d=" M 438.99 298.33 C 448.56 295.45 459.03 294.39 468.74 297.28 C 476.07 299.42 482.46 304.04 487.37 309.81 C 497.06 300.46 510.51 295.13 524.00 295.60 C 540.65 295.71 557.15 305.48 564.33 320.66 C 566.88 326.08 568.28 332.05 568.27 338.05 C 568.26 362.01 568.30 385.98 568.25 409.95 C 568.36 416.32 564.13 422.42 557.96 424.20 C 549.44 427.54 538.64 423.04 535.91 414.10 C 535.30 395.40 535.92 376.69 535.67 358.00 C 535.48 352.21 536.13 346.39 535.36 340.63 C 534.50 331.91 525.35 325.44 516.84 327.15 C 509.80 328.33 503.42 334.55 503.58 341.97 C 503.57 364.67 503.60 387.37 503.57 410.08 C 503.62 418.53 495.24 425.29 487.04 424.65 C 479.24 424.51 471.90 417.92 471.96 409.91 C 471.75 386.95 472.01 363.97 471.83 341.01 C 471.99 334.85 467.27 329.49 461.67 327.52 C 452.20 323.76 440.30 331.58 440.85 341.96 C 440.91 364.30 440.75 386.64 440.79 408.99 C 441.20 416.79 434.42 423.68 426.86 424.49 C 421.18 425.17 414.90 423.54 411.09 419.07 C 408.50 416.03 407.91 411.88 407.89 408.03 C 407.88 389.69 407.89 371.35 407.89 353.02 C 407.82 343.57 407.53 333.83 410.84 324.82 C 415.20 312.08 426.24 302.25 438.99 298.33 Z" />
<path fill="#ffffff" opacity="1.00" d=" M 583.61 302.59 C 587.98 298.53 594.15 297.24 599.96 297.35 C 613.98 297.48 628.00 297.38 642.02 297.43 C 654.68 297.60 667.93 302.87 675.36 313.50 C 682.80 323.96 681.47 338.88 673.93 348.92 C 671.75 351.85 668.62 353.82 665.43 355.47 C 674.39 359.70 681.43 368.23 683.17 378.07 C 684.28 385.77 683.73 393.96 680.22 401.02 C 675.05 411.75 664.44 419.27 652.94 421.85 C 646.73 423.31 640.30 422.76 633.98 422.85 C 621.64 422.96 609.31 422.94 596.97 422.92 C 590.38 422.94 583.63 419.39 580.57 413.43 C 578.84 410.23 579.16 406.47 579.13 402.96 C 579.16 373.29 579.14 343.63 579.14 313.97 C 579.04 309.79 580.41 305.42 583.61 302.59 M 612.11 324.83 C 612.11 331.60 612.11 338.37 612.12 345.14 C 620.40 345.11 628.69 345.22 636.97 345.10 C 642.42 345.23 647.60 340.53 647.58 335.00 C 647.60 329.44 642.38 324.71 636.91 324.88 C 628.64 324.81 620.38 324.71 612.11 324.83 M 612.11 372.06 C 612.18 379.62 612.19 387.18 612.03 394.75 C 621.71 394.68 631.41 395.04 641.08 394.52 C 646.97 393.93 650.86 387.63 650.12 382.02 C 649.80 376.86 645.28 372.36 640.10 372.15 C 630.77 371.93 621.44 372.13 612.11 372.06 Z" />
<path fill="#ffffff" opacity="1.00" d=" M 672.52 526.00 C 675.34 525.99 678.17 526.00 681.00 526.01 C 681.02 539.01 680.94 552.02 681.05 565.02 C 680.15 573.48 673.42 581.76 664.89 583.02 C 664.41 583.22 663.46 583.62 662.98 583.82 C 651.26 586.22 638.00 578.08 636.50 565.86 C 634.65 554.69 644.03 544.32 654.77 542.79 C 660.66 542.94 666.56 542.86 672.46 542.67 C 672.49 537.11 672.50 531.56 672.52 526.00 M 647.03 568.98 C 651.33 577.06 664.25 578.08 669.64 570.62 C 673.87 564.87 671.79 557.32 672.17 550.72 C 666.40 550.89 660.56 550.22 654.86 551.34 C 647.50 552.98 642.99 562.39 647.03 568.98 Z" />
<path fill="#ffffff" opacity="1.00" d=" M 626.09 542.42 C 628.80 542.31 631.52 542.41 634.24 542.61 C 634.17 549.41 634.25 556.21 634.22 563.01 C 634.24 569.73 630.52 576.19 624.99 579.92 C 617.66 584.87 607.39 584.92 599.96 580.13 C 595.38 577.21 592.09 572.41 590.89 567.13 C 590.80 559.03 590.66 550.94 590.94 542.85 C 593.61 542.84 596.29 542.84 598.97 542.85 C 599.34 550.64 598.35 558.51 599.64 566.24 C 601.66 572.38 608.41 576.64 614.83 575.40 C 620.15 574.57 624.98 570.28 625.76 564.85 C 626.18 557.38 625.57 549.88 626.09 542.42 Z" />
<path fill="#ffffff" opacity="1.00" d=" M 323.56 549.52 C 330.25 542.03 342.16 540.11 350.97 544.84 C 353.99 546.43 356.55 548.71 359.03 551.02 C 357.04 552.95 355.17 555.00 353.04 556.77 C 350.09 554.77 347.69 551.73 344.03 550.98 C 336.71 548.67 327.61 554.06 327.12 561.94 C 326.30 569.42 333.65 575.99 340.93 575.36 C 345.84 575.40 349.64 572.00 353.00 568.86 C 355.06 570.74 357.07 572.67 359.06 574.63 C 354.75 579.12 349.28 583.02 342.87 583.45 C 334.17 584.52 324.96 580.00 320.82 572.21 C 316.86 565.06 318.08 555.55 323.56 549.52 Z" />
<path fill="#ffffff" opacity="1.00" d=" M 364.53 554.41 C 368.37 546.54 377.31 541.73 385.99 542.52 C 392.71 542.63 398.65 546.52 403.03 551.36 C 395.00 559.08 386.74 566.57 378.83 574.43 C 381.79 575.24 384.94 576.20 387.98 575.18 C 391.66 574.35 394.16 571.37 396.98 569.12 C 399.10 570.90 401.36 572.68 402.91 575.01 C 398.81 579.55 393.16 583.08 386.94 583.58 C 379.15 584.46 370.89 581.11 366.27 574.70 C 362.09 568.90 361.29 560.82 364.53 554.41 M 376.23 553.24 C 371.42 556.50 369.98 563.10 372.22 568.32 C 375.27 566.40 377.52 563.52 380.23 561.18 C 383.53 557.97 387.18 555.10 390.12 551.53 C 385.51 550.25 380.17 550.14 376.23 553.24 Z" />
<path fill="#ffffff" opacity="1.00" d=" M 405.52 561.99 C 405.96 552.35 414.55 544.55 423.80 543.22 C 435.22 541.08 448.28 549.12 449.56 561.09 C 450.06 568.78 449.64 576.49 449.79 584.20 C 446.80 584.21 443.82 584.22 440.84 584.22 C 440.78 576.80 440.95 569.38 440.71 561.97 C 440.02 554.99 432.54 550.19 425.83 551.22 C 419.96 551.81 414.44 556.83 414.36 562.92 C 414.18 570.01 414.31 577.11 414.27 584.21 C 411.32 584.21 408.37 584.25 405.43 584.29 C 405.47 576.85 405.30 569.42 405.52 561.99 Z" />
<path fill="#ffffff" opacity="1.00" d=" M 456.25 552.21 C 461.23 544.62 471.10 540.75 479.93 542.74 C 485.35 543.87 489.99 547.21 493.87 551.03 C 491.88 552.91 490.07 554.97 488.00 556.76 C 485.15 555.34 483.19 552.33 480.01 551.36 C 472.76 548.35 463.06 553.04 461.87 561.04 C 460.48 568.84 468.25 576.11 475.89 575.32 C 480.72 575.27 484.36 571.80 487.78 568.86 C 489.77 570.82 491.77 572.78 493.78 574.73 C 489.65 578.72 484.77 582.41 478.93 583.22 C 470.86 584.66 462.14 581.37 457.17 574.84 C 452.19 568.48 451.82 558.95 456.25 552.21 Z" />
<path fill="#ffffff" opacity="1.00" d=" M 513.16 543.21 C 524.53 539.84 538.46 546.96 540.88 558.91 C 543.42 569.06 536.12 579.61 526.48 582.63 C 515.09 586.56 500.88 580.03 497.92 568.02 C 494.80 557.27 502.52 545.69 513.16 543.21 M 514.53 551.65 C 509.14 553.52 504.94 559.26 506.01 565.07 C 506.87 571.63 513.57 576.36 520.02 575.80 C 526.98 575.68 533.48 569.15 532.54 562.03 C 531.77 553.80 521.95 548.79 514.53 551.65 Z" />
<path fill="#ffffff" opacity="1.00" d=" M 546.74 547.96 C 549.40 544.54 553.79 542.75 558.09 542.99 C 566.56 543.10 575.04 542.68 583.51 543.11 C 583.47 545.64 583.49 548.17 583.53 550.70 C 574.32 550.80 565.10 550.53 555.90 550.90 C 551.92 551.33 551.16 557.61 555.14 558.75 C 562.53 559.87 570.15 558.18 577.52 559.60 C 583.22 560.69 587.67 566.17 587.23 572.02 C 586.98 578.29 581.11 583.47 574.94 583.53 C 565.98 583.65 557.02 583.54 548.06 583.57 C 548.07 580.99 548.07 578.41 548.08 575.84 C 557.31 575.73 566.57 576.05 575.79 575.67 C 579.67 575.17 580.01 568.74 576.22 567.81 C 571.20 567.10 566.10 567.57 561.05 567.49 C 556.73 567.53 551.87 567.58 548.54 564.38 C 543.74 560.51 542.76 552.75 546.74 547.96 Z" />
</g>
<g id="#008834ff">
<path fill="#008834" opacity="1.00" d=" M 430.48 8.17 C 430.29 6.11 434.80 5.36 435.37 7.19 C 433.82 7.86 432.18 8.40 430.48 8.17 Z" />
<path fill="#008834" opacity="1.00" d=" M 420.49 9.84 C 419.55 7.72 424.28 6.57 424.21 9.11 C 423.02 9.58 421.75 9.73 420.49 9.84 Z" />
<path fill="#008834" opacity="1.00" d=" M 576.61 9.19 C 576.78 6.93 581.22 8.17 580.60 10.13 C 579.19 10.23 577.86 9.73 576.61 9.19 Z" />
<path fill="#008834" opacity="1.00" d=" M 616.09 18.30 C 617.64 17.11 618.54 17.39 618.81 19.13 C 617.81 19.15 616.90 18.87 616.09 18.30 Z" />
<path fill="#008834" opacity="1.00" d=" M 622.60 20.33 C 622.44 18.41 626.00 19.53 624.86 21.04 C 624.29 20.86 623.16 20.51 622.60 20.33 Z" />
<path fill="#008834" opacity="1.00" d=" M 372.14 22.01 C 371.00 20.50 374.56 19.37 374.40 21.30 C 373.84 21.48 372.70 21.83 372.14 22.01 Z" />
<path fill="#008834" opacity="1.00" d=" M 628.52 22.21 C 628.46 20.03 632.48 21.37 631.08 23.07 C 630.44 22.86 629.16 22.43 628.52 22.21 Z" />
<path fill="#008834" opacity="1.00" d=" M 632.24 23.27 C 633.84 22.19 634.72 22.52 634.87 24.25 C 633.87 24.25 632.99 23.92 632.24 23.27 Z" />
<path fill="#008834" opacity="1.00" d=" M 351.27 29.21 C 349.81 27.53 353.63 26.28 353.96 28.27 C 353.12 28.75 352.22 29.06 351.27 29.21 Z" />
<path fill="#008834" opacity="1.00" d=" M 646.06 28.26 C 647.05 26.17 651.13 27.81 650.52 29.96 C 648.94 29.64 647.42 29.10 646.06 28.26 Z" />
<path fill="#008834" opacity="1.00" d=" M 662.14 34.48 C 663.09 32.64 666.54 34.16 665.47 36.04 C 664.24 35.79 663.16 35.16 662.14 34.48 Z" />
<path fill="#008834" opacity="1.00" d=" M 670.44 38.06 C 670.76 37.87 671.42 37.49 671.75 37.31 L 672.23 38.09 L 671.80 38.79 C 671.46 38.61 670.78 38.24 670.44 38.06 Z" />
<path fill="#008834" opacity="1.00" d=" M 421.01 49.25 C 478.20 36.74 538.37 37.80 595.03 52.56 C 635.76 63.06 674.61 80.68 709.36 104.37 C 705.20 115.69 704.27 128.30 707.80 139.92 C 712.81 157.45 726.97 171.67 743.94 177.94 C 757.95 183.31 773.72 183.10 787.90 178.44 C 809.36 206.35 826.41 237.65 837.94 270.92 C 851.56 309.99 857.51 351.75 855.00 393.07 C 851.42 459.07 826.15 523.41 784.93 574.96 C 743.79 626.83 687.43 666.17 625.01 687.99 C 558.67 711.44 485.67 715.18 417.09 699.70 C 416.60 699.51 415.61 699.15 415.11 698.96 C 406.24 697.57 397.64 694.67 389.02 692.17 C 325.65 672.45 267.67 635.05 224.58 584.45 C 201.52 557.39 182.79 526.63 169.52 493.64 C 162.95 476.89 157.18 459.66 153.95 441.95 C 153.79 441.45 153.46 440.44 153.30 439.94 C 144.31 395.90 144.45 349.93 154.28 306.04 C 154.44 305.53 154.76 304.52 154.92 304.02 C 155.12 300.96 156.21 298.05 156.89 295.08 C 172.88 232.80 208.53 176.18 256.23 133.27 C 299.75 93.95 353.22 65.95 410.10 51.79 C 413.05 51.10 415.96 50.14 418.99 49.88 C 419.49 49.72 420.51 49.41 421.01 49.25 M 300.30 294.14 L 300.15 295.01 C 293.12 295.75 287.40 302.97 287.55 310.01 C 287.55 330.98 287.55 351.96 287.55 372.94 C 287.49 383.70 290.03 394.75 296.25 403.67 C 304.18 415.08 317.43 421.74 330.81 424.36 C 341.76 426.71 353.40 426.09 363.89 422.08 C 378.88 416.59 391.35 404.26 396.41 389.05 C 398.64 382.63 399.17 375.77 399.15 369.02 C 399.18 349.04 399.17 329.06 399.10 309.08 C 399.06 305.10 397.50 301.08 394.56 298.34 C 388.63 292.37 378.02 292.24 371.83 297.87 C 368.63 300.63 366.70 304.78 366.74 309.01 C 366.70 330.02 366.75 351.04 366.72 372.05 C 366.72 381.00 360.22 389.15 351.93 392.09 C 344.13 395.11 335.19 393.01 328.44 388.45 C 323.17 384.83 320.40 378.34 320.46 372.06 C 320.48 352.71 320.40 333.36 320.40 314.01 C 320.33 310.51 320.78 306.82 319.29 303.54 C 316.36 297.15 308.98 293.29 302.07 294.21 L 301.28 293.72 L 300.30 294.14 M 745.36 295.52 C 725.22 299.06 706.61 311.66 696.68 329.66 C 688.51 344.15 686.56 361.94 691.22 377.89 C 695.37 392.45 705.00 405.20 717.44 413.73 C 740.06 429.59 771.83 430.60 795.54 416.53 C 808.87 408.75 819.57 396.40 824.84 381.85 C 829.80 368.19 829.80 352.80 824.88 339.12 C 818.97 322.40 805.75 308.69 789.76 301.23 C 776.05 294.68 760.27 293.08 745.36 295.52 M 197.47 310.97 C 197.00 319.44 204.68 327.01 213.01 327.14 C 224.10 327.25 235.20 327.24 246.29 327.19 C 246.46 341.46 246.18 355.74 246.29 370.01 C 246.27 373.75 246.59 377.66 245.15 381.21 C 242.02 389.09 233.49 394.34 225.05 393.68 C 215.39 393.25 206.33 384.97 206.37 375.04 C 206.36 370.31 203.79 365.75 199.83 363.22 C 192.29 358.59 180.59 360.15 175.81 368.01 C 173.57 372.60 174.22 377.99 174.73 382.91 C 177.12 398.50 187.97 412.19 202.08 419.00 C 217.36 426.58 236.25 426.36 251.36 418.47 C 263.74 412.12 273.49 400.47 276.72 386.85 C 278.49 379.70 277.98 372.29 277.94 365.01 C 278.21 349.01 277.97 333.01 277.99 317.01 C 277.91 312.89 278.15 308.52 276.21 304.75 C 273.28 298.76 266.38 295.59 259.92 295.62 C 244.62 295.60 229.33 295.61 214.04 295.61 C 205.66 295.31 197.51 302.43 197.47 310.97 M 438.99 298.33 C 426.24 302.25 415.20 312.08 410.84 324.82 C 407.53 333.83 407.82 343.57 407.89 353.02 C 407.89 371.35 407.88 389.69 407.89 408.03 C 407.91 411.88 408.50 416.03 411.09 419.07 C 414.90 423.54 421.18 425.17 426.86 424.49 C 434.42 423.68 441.20 416.79 440.79 408.99 C 440.75 386.64 440.91 364.30 440.85 341.96 C 440.30 331.58 452.20 323.76 461.67 327.52 C 467.27 329.49 471.99 334.85 471.83 341.01 C 472.01 363.97 471.75 386.95 471.96 409.91 C 471.90 417.92 479.24 424.51 487.04 424.65 C 495.24 425.29 503.62 418.53 503.57 410.08 C 503.60 387.37 503.57 364.67 503.58 341.97 C 503.42 334.55 509.80 328.33 516.84 327.15 C 525.35 325.44 534.50 331.91 535.36 340.63 C 534.75 360.04 535.24 379.49 535.12 398.92 C 535.25 403.97 534.49 409.17 535.91 414.10 C 538.64 423.04 549.44 427.54 557.96 424.20 C 564.13 422.42 568.36 416.32 568.25 409.95 C 568.30 385.98 568.26 362.01 568.27 338.05 C 568.28 332.05 566.88 326.08 564.33 320.66 C 557.15 305.48 540.65 295.71 524.00 295.60 C 510.51 295.13 497.06 300.46 487.37 309.81 C 482.46 304.04 476.07 299.42 468.74 297.28 C 459.03 294.39 448.56 295.45 438.99 298.33 M 583.61 302.59 C 580.41 305.42 579.04 309.79 579.14 313.97 C 579.14 343.63 579.16 373.29 579.13 402.96 C 579.16 406.47 578.84 410.23 580.57 413.43 C 583.63 419.39 590.38 422.94 596.97 422.92 C 609.31 422.94 621.64 422.96 633.98 422.85 C 640.30 422.76 646.73 423.31 652.94 421.85 C 664.44 419.27 675.05 411.75 680.22 401.02 C 683.73 393.96 684.28 385.77 683.17 378.07 C 681.43 368.23 674.39 359.70 665.43 355.47 C 668.62 353.82 671.75 351.85 673.93 348.92 C 681.47 338.88 682.80 323.96 675.36 313.50 C 667.93 302.87 654.68 297.60 642.02 297.43 C 628.00 297.38 613.98 297.48 599.96 297.35 C 594.15 297.24 587.98 298.53 583.61 302.59 M 672.18 525.40 C 671.81 531.02 672.06 536.66 672.01 542.29 C 666.26 542.37 660.45 541.77 654.77 542.79 C 644.03 544.32 634.65 554.69 636.50 565.86 C 638.00 578.08 651.26 586.22 662.98 583.82 L 663.77 584.31 L 664.75 583.89 L 664.89 583.02 C 673.42 581.76 680.15 573.48 681.05 565.02 C 681.60 551.90 681.10 538.75 681.40 525.62 C 678.32 525.49 675.25 525.41 672.18 525.40 M 590.24 542.28 C 590.57 550.55 589.51 558.94 590.89 567.13 C 592.09 572.41 595.38 577.21 599.96 580.13 C 607.39 584.92 617.66 584.87 624.99 579.92 C 630.52 576.19 634.24 569.73 634.22 563.01 C 634.25 556.21 634.17 549.41 634.24 542.61 C 631.52 542.41 628.80 542.31 626.09 542.42 C 625.57 549.88 626.18 557.38 625.76 564.85 C 624.98 570.28 620.15 574.57 614.83 575.40 C 608.41 576.64 601.66 572.38 599.64 566.24 C 599.70 558.25 599.54 550.27 599.58 542.28 C 596.46 542.19 593.35 542.18 590.24 542.28 M 323.56 549.52 C 318.08 555.55 316.86 565.06 320.82 572.21 C 324.96 580.00 334.17 584.52 342.87 583.45 C 349.28 583.02 354.75 579.12 359.06 574.63 C 357.07 572.67 355.06 570.74 353.00 568.86 C 349.64 572.00 345.84 575.40 340.93 575.36 C 333.65 575.99 326.30 569.42 327.12 561.94 C 327.61 554.06 336.71 548.67 344.03 550.98 C 347.69 551.73 350.09 554.77 353.04 556.77 C 355.17 555.00 357.04 552.95 359.03 551.02 C 356.55 548.71 353.99 546.43 350.97 544.84 C 342.16 540.11 330.25 542.03 323.56 549.52 M 364.53 554.41 C 361.29 560.82 362.09 568.90 366.27 574.70 C 370.89 581.11 379.15 584.46 386.94 583.58 C 393.16 583.08 398.81 579.55 402.91 575.01 C 401.36 572.68 399.10 570.90 396.98 569.12 C 394.16 571.37 391.66 574.35 387.98 575.18 C 384.94 576.20 381.79 575.24 378.83 574.43 C 386.74 566.57 395.00 559.08 403.03 551.36 C 398.65 546.52 392.71 542.63 385.99 542.52 C 377.31 541.73 368.37 546.54 364.53 554.41 M 405.52 561.99 C 405.30 569.42 405.47 576.85 405.43 584.29 C 408.37 584.25 411.32 584.21 414.27 584.21 C 414.31 577.11 414.18 570.01 414.36 562.92 C 414.44 556.83 419.96 551.81 425.83 551.22 C 432.54 550.19 440.02 554.99 440.71 561.97 C 440.95 569.38 440.78 576.80 440.84 584.22 C 443.82 584.22 446.80 584.21 449.79 584.20 C 449.64 576.49 450.06 568.78 449.56 561.09 C 448.28 549.12 435.22 541.08 423.80 543.22 C 414.55 544.55 405.96 552.35 405.52 561.99 M 456.25 552.21 C 451.82 558.95 452.19 568.48 457.17 574.84 C 462.14 581.37 470.86 584.66 478.93 583.22 C 484.77 582.41 489.65 578.72 493.78 574.73 C 491.77 572.78 489.77 570.82 487.78 568.86 C 484.36 571.80 480.72 575.27 475.89 575.32 C 468.25 576.11 460.48 568.84 461.87 561.04 C 463.06 553.04 472.76 548.35 480.01 551.36 C 483.19 552.33 485.15 555.34 488.00 556.76 C 490.07 554.97 491.88 552.91 493.87 551.03 C 489.99 547.21 485.35 543.87 479.93 542.74 C 471.10 540.75 461.23 544.62 456.25 552.21 M 513.16 543.21 C 502.52 545.69 494.80 557.27 497.92 568.02 C 500.88 580.03 515.09 586.56 526.48 582.63 C 536.12 579.61 543.42 569.06 540.88 558.91 C 538.46 546.96 524.53 539.84 513.16 543.21 M 546.74 547.96 C 542.76 552.75 543.74 560.51 548.54 564.38 C 551.87 567.58 556.73 567.53 561.05 567.49 C 566.10 567.57 571.20 567.10 576.22 567.81 C 580.01 568.74 579.67 575.17 575.79 575.67 C 566.57 576.05 557.31 575.73 548.08 575.84 C 548.07 578.41 548.07 580.99 548.06 583.57 C 557.02 583.54 565.98 583.65 574.94 583.53 C 581.11 583.47 586.98 578.29 587.23 572.02 C 587.67 566.17 583.22 560.69 577.52 559.60 C 570.15 558.18 562.53 559.87 555.14 558.75 C 551.16 557.61 551.92 551.33 555.90 550.90 C 565.10 550.53 574.32 550.80 583.53 550.70 C 583.49 548.17 583.47 545.64 583.51 543.11 C 575.04 542.68 566.56 543.10 558.09 542.99 C 553.79 542.75 549.40 544.54 546.74 547.96 Z" />
<path fill="#008834" opacity="1.00" d=" M 313.31 45.82 C 312.14 44.16 315.15 42.65 316.08 44.30 C 315.26 44.98 314.34 45.54 313.31 45.82 Z" />
<path fill="#008834" opacity="1.00" d=" M 688.03 46.26 C 689.26 45.05 692.48 46.50 691.81 48.26 C 690.37 47.97 689.11 47.22 688.03 46.26 Z" />
<path fill="#008834" opacity="1.00" d=" M 305.66 48.18 C 305.82 48.47 306.14 49.04 306.29 49.32 C 304.42 50.90 302.28 52.01 299.95 52.71 C 300.01 52.43 300.12 51.88 300.18 51.60 C 302.45 52.05 303.30 49.04 305.53 49.31 L 305.66 48.18 Z" />
<path fill="#008834" opacity="1.00" d=" M 288.13 58.38 L 288.99 57.75 L 289.87 58.07 C 289.46 58.37 288.62 58.98 288.20 59.28 L 288.13 58.38 Z" />
<path fill="#008834" opacity="1.00" d=" M 284.26 61.84 C 283.00 60.30 285.84 58.55 286.87 60.12 C 286.14 60.90 285.28 61.54 284.26 61.84 Z" />
<path fill="#008834" opacity="1.00" d=" M 716.56 62.19 C 717.16 60.00 720.76 62.51 719.70 64.12 C 718.56 63.63 717.49 63.00 716.56 62.19 Z" />
<path fill="#008834" opacity="1.00" d=" M 271.15 70.05 C 270.04 68.53 272.75 66.65 273.88 68.11 C 273.10 68.93 272.20 69.63 271.15 70.05 Z" />
<path fill="#008834" opacity="1.00" d=" M 252.98 81.10 C 255.43 79.81 258.26 78.57 259.28 75.78 C 259.78 76.17 260.78 76.97 261.28 77.37 C 257.56 78.87 254.81 81.91 251.33 83.82 C 250.97 82.60 251.88 81.49 252.98 81.10 Z" />
<path fill="#008834" opacity="1.00" d=" M 804.92 80.28 C 806.74 79.19 809.99 81.70 808.98 83.71 C 807.46 82.77 806.06 81.65 804.92 80.28 Z" />
<path fill="#008834" opacity="1.00" d=" M 239.75 92.95 C 240.92 90.47 242.89 87.71 245.98 87.92 C 243.97 89.67 242.02 91.52 239.75 92.95 Z" />
<path fill="#008834" opacity="1.00" d=" M 232.63 99.02 C 231.05 97.64 233.65 95.40 234.86 97.05 C 234.26 97.85 233.50 98.53 232.63 99.02 Z" />
<path fill="#008834" opacity="1.00" d=" M 221.51 108.87 C 220.11 107.33 222.79 104.83 224.26 106.29 C 223.50 107.30 222.60 108.22 221.51 108.87 Z" />
<path fill="#008834" opacity="1.00" d=" M 825.41 110.71 C 825.63 110.67 826.08 110.58 826.31 110.53 C 826.54 112.16 826.81 113.82 827.63 115.29 C 827.28 116.41 826.93 117.53 826.63 118.66 C 826.06 116.03 825.96 113.34 825.41 110.71 Z" />
<path fill="#008834" opacity="1.00" d=" M 827.10 128.20 C 827.09 128.33 827.06 128.58 827.05 128.71 L 827.10 128.20 Z" />
<path fill="#008834" opacity="1.00" d=" M 177.51 155.74 C 177.26 154.12 178.70 151.69 180.54 152.39 L 180.64 152.41 C 179.33 156.52 175.39 158.60 173.13 162.07 C 173.39 160.90 173.65 159.73 173.90 158.57 C 175.09 157.62 176.43 156.84 177.51 155.74 Z" />
<path fill="#008834" opacity="1.00" d=" M 821.27 154.43 C 821.33 154.53 821.46 154.72 821.53 154.81 L 821.41 154.62 L 821.27 154.43 Z" />
<path fill="#008834" opacity="1.00" d=" M 822.16 155.95 C 823.83 154.58 825.90 157.66 824.35 158.92 C 823.39 158.11 822.66 157.09 822.16 155.95 Z" />
<path fill="#008834" opacity="1.00" d=" M 827.02 162.45 C 828.45 161.29 830.45 163.86 828.95 164.97 C 828.05 164.34 827.34 163.50 827.02 162.45 Z" />
<path fill="#008834" opacity="1.00" d=" M 162.18 177.89 C 160.71 176.36 162.76 173.17 164.72 174.25 C 164.12 175.62 163.21 176.82 162.18 177.89 Z" />
<path fill="#008834" opacity="1.00" d=" M 157.07 185.84 C 155.12 184.87 157.81 181.46 159.36 182.05 C 159.02 183.53 158.24 184.86 157.07 185.84 Z" />
<path fill="#008834" opacity="1.00" d=" M 848.27 194.31 L 848.98 193.90 L 849.74 194.39 C 849.54 194.71 849.13 195.37 848.93 195.70 C 848.77 195.35 848.44 194.66 848.27 194.31 Z" />
<path fill="#008834" opacity="1.00" d=" M 149.17 198.87 C 147.99 197.60 149.60 194.36 151.35 195.22 C 150.92 196.59 150.17 197.83 149.17 198.87 Z" />
<path fill="#008834" opacity="1.00" d=" M 852.05 201.27 C 853.50 200.29 855.30 202.86 853.96 203.97 C 853.02 203.30 852.28 202.40 852.05 201.27 Z" />
<path fill="#008834" opacity="1.00" d=" M 871.94 242.09 C 873.56 241.82 875.74 245.72 873.72 246.47 C 872.78 245.16 872.23 243.65 871.94 242.09 Z" />
<path fill="#008834" opacity="1.00" d=" M 119.17 262.74 C 120.22 260.35 120.91 257.72 122.79 255.81 C 122.09 258.40 121.39 261.00 120.35 263.47 L 119.17 262.74 Z" />
<path fill="#008834" opacity="1.00" d=" M 877.86 258.01 C 879.52 256.50 881.02 260.47 878.82 260.51 C 878.58 259.88 878.10 258.63 877.86 258.01 Z" />
<path fill="#008834" opacity="1.00" d=" M 118.17 269.69 C 116.94 268.03 117.90 264.22 120.07 264.17 C 119.85 266.12 119.08 267.95 118.17 269.69 Z" />
<path fill="#008834" opacity="1.00" d=" M 113.38 286.74 C 111.99 285.97 112.39 282.54 114.29 283.31 C 114.24 284.50 113.85 285.64 113.38 286.74 Z" />
<path fill="#008834" opacity="1.00" d=" M 112.26 291.33 C 110.34 291.33 111.37 287.35 113.07 288.10 C 112.91 289.20 112.64 290.28 112.26 291.33 Z" />
<path fill="#008834" opacity="1.00" d=" M 890.90 305.48 C 893.04 304.36 893.67 309.16 891.82 309.36 C 891.26 308.13 890.70 306.85 890.90 305.48 Z" />
<path fill="#008834" opacity="1.00" d=" M 105.50 318.76 C 105.92 318.19 106.41 317.69 106.98 317.25 C 106.81 319.34 106.30 321.39 105.88 323.44 C 104.92 322.17 105.91 320.68 105.70 319.28 L 105.50 318.76 Z" />
<path fill="#008834" opacity="1.00" d=" M 612.11 324.83 C 620.38 324.71 628.64 324.81 636.91 324.88 C 642.38 324.71 647.60 329.44 647.58 335.00 C 647.60 340.53 642.42 345.23 636.97 345.10 C 628.69 345.22 620.40 345.11 612.12 345.14 C 612.11 338.37 612.11 331.60 612.11 324.83 Z" />
<path fill="#008834" opacity="1.00" d=" M 751.53 325.59 C 769.29 321.92 789.43 333.02 794.15 350.88 C 798.87 366.36 789.88 383.90 775.43 390.52 C 759.18 398.84 737.03 393.37 727.19 377.80 C 721.90 369.73 720.18 359.30 723.20 350.08 C 726.99 337.40 738.64 327.89 751.53 325.59 Z" />
<path fill="#008834" opacity="1.00" d=" M 104.39 329.78 C 104.55 329.66 104.86 329.43 105.02 329.32 L 104.96 329.84 L 104.39 329.78 Z" />
<path fill="#008834" opacity="1.00" d=" M 102.17 372.76 C 100.55 372.28 100.54 371.76 102.15 371.19 C 102.16 371.59 102.16 372.37 102.17 372.76 Z" />
<path fill="#008834" opacity="1.00" d=" M 612.11 372.06 C 621.44 372.13 630.77 371.93 640.10 372.15 C 645.28 372.36 649.80 376.86 650.12 382.02 C 650.86 387.63 646.97 393.93 641.08 394.52 C 631.41 395.04 621.71 394.68 612.03 394.75 C 612.19 387.18 612.18 379.62 612.11 372.06 Z" />
<path fill="#008834" opacity="1.00" d=" M 898.08 372.25 C 898.08 372.38 898.08 372.64 898.08 372.77 L 898.08 372.25 Z" />
<path fill="#008834" opacity="1.00" d=" M 898.07 378.30 C 898.07 378.43 898.07 378.69 898.07 378.82 L 898.07 378.30 Z" />
<path fill="#008834" opacity="1.00" d=" M 898.06 380.18 C 898.05 380.31 898.04 380.57 898.03 380.70 L 898.06 380.18 Z" />
<path fill="#008834" opacity="1.00" d=" M 110.06 447.97 C 108.10 448.65 106.74 444.08 109.04 443.88 C 109.57 445.18 109.94 446.55 110.06 447.97 Z" />
<path fill="#008834" opacity="1.00" d=" M 884.12 471.88 C 884.29 471.31 884.62 470.16 884.79 469.58 C 886.72 469.43 885.61 473.03 884.12 471.88 Z" />
<path fill="#008834" opacity="1.00" d=" M 117.63 477.63 C 115.78 477.89 114.49 473.43 116.22 472.74 C 116.91 474.29 117.36 475.94 117.63 477.63 Z" />
<path fill="#008834" opacity="1.00" d=" M 880.82 482.81 C 880.93 481.85 881.20 480.94 881.64 480.08 C 883.67 480.26 882.58 484.12 880.82 482.81 Z" />
<path fill="#008834" opacity="1.00" d=" M 874.81 500.30 C 875.72 497.37 876.44 494.36 877.77 491.59 L 879.04 492.20 C 878.66 492.37 877.90 492.72 877.52 492.90 C 876.94 495.39 876.90 498.53 874.81 500.30 Z" />
<path fill="#008834" opacity="1.00" d=" M 871.18 508.72 C 871.50 507.21 872.04 505.76 872.93 504.49 C 875.21 505.23 873.31 509.43 871.18 508.72 Z" />
<path fill="#008834" opacity="1.00" d=" M 135.11 523.05 C 135.37 523.52 135.88 524.47 136.14 524.94 C 134.90 526.71 133.15 523.44 135.11 523.05 Z" />
<path fill="#008834" opacity="1.00" d=" M 137.30 527.69 C 135.83 529.10 134.39 525.62 136.43 525.60 C 136.65 526.12 137.08 527.17 137.30 527.69 Z" />
<path fill="#008834" opacity="1.00" d=" M 861.19 531.00 C 861.65 529.17 862.53 527.51 863.67 526.02 C 864.64 527.62 863.45 531.56 861.19 531.00 Z" />
<path fill="#008834" opacity="1.00" d=" M 859.16 534.75 C 859.44 533.74 860.00 532.85 860.71 532.08 C 862.40 532.99 860.78 535.99 859.16 534.75 Z" />
<path fill="#008834" opacity="1.00" d=" M 858.15 536.91 C 858.32 536.56 858.67 535.86 858.84 535.51 L 859.59 535.83 L 859.66 536.75 L 858.89 537.28 L 858.15 536.91 Z" />
<path fill="#008834" opacity="1.00" d=" M 856.79 539.68 C 857.04 539.16 857.53 538.12 857.78 537.59 C 859.75 537.68 858.14 541.09 856.79 539.68 Z" />
<path fill="#008834" opacity="1.00" d=" M 146.37 546.85 L 147.11 546.52 C 147.30 546.86 147.70 547.53 147.90 547.87 C 147.51 547.84 146.74 547.79 146.35 547.76 L 146.37 546.85 Z" />
<path fill="#008834" opacity="1.00" d=" M 149.99 551.44 C 148.04 553.11 145.79 548.99 148.25 548.38 C 149.04 549.25 149.60 550.31 149.99 551.44 Z" />
<path fill="#008834" opacity="1.00" d=" M 376.23 553.24 C 380.17 550.14 385.51 550.25 390.12 551.53 C 387.18 555.10 383.53 557.97 380.23 561.18 C 377.52 563.52 375.27 566.40 372.22 568.32 C 369.98 563.10 371.42 556.50 376.23 553.24 Z" />
<path fill="#008834" opacity="1.00" d=" M 514.53 551.65 C 521.95 548.79 531.77 553.80 532.54 562.03 C 533.48 569.15 526.98 575.68 520.02 575.80 C 513.57 576.36 506.87 571.63 506.01 565.07 C 504.94 559.26 509.14 553.52 514.53 551.65 Z" />
<path fill="#008834" opacity="1.00" d=" M 647.03 568.98 C 642.99 562.39 647.50 552.98 654.86 551.34 C 660.56 550.22 666.40 550.89 672.17 550.72 C 671.79 557.32 673.87 564.87 669.64 570.62 C 664.25 578.08 651.33 577.06 647.03 568.98 Z" />
<path fill="#008834" opacity="1.00" d=" M 845.08 559.99 C 845.57 558.55 846.39 557.26 847.42 556.15 C 848.93 557.51 846.97 560.95 845.08 559.99 Z" />
<path fill="#008834" opacity="1.00" d=" M 157.31 563.79 C 158.08 564.39 158.58 565.18 158.80 566.14 C 157.00 566.28 156.50 565.49 157.31 563.79 Z" />
<path fill="#008834" opacity="1.00" d=" M 159.19 566.90 C 160.01 567.43 160.54 568.17 160.78 569.13 C 158.97 569.33 158.44 568.58 159.19 566.90 Z" />
<path fill="#008834" opacity="1.00" d=" M 161.34 570.14 C 162.68 572.05 164.10 573.91 165.27 575.95 C 162.78 575.30 161.30 572.60 161.34 570.14 Z" />
<path fill="#008834" opacity="1.00" d=" M 833.17 578.12 C 833.59 576.91 834.33 575.87 835.27 575.01 C 836.63 576.27 834.91 579.50 833.17 578.12 Z" />
<path fill="#008834" opacity="1.00" d=" M 174.16 588.10 C 174.96 588.87 175.64 589.78 176.18 590.78 C 174.55 592.24 171.96 589.05 174.16 588.10 Z" />
<path fill="#008834" opacity="1.00" d=" M 181.72 597.83 C 180.08 599.18 176.95 595.36 179.16 594.59 C 180.22 595.48 180.99 596.65 181.72 597.83 Z" />
<path fill="#008834" opacity="1.00" d=" M 181.49 598.90 L 182.18 598.45 C 182.41 598.76 182.89 599.37 183.13 599.68 C 182.74 599.71 181.98 599.77 181.59 599.80 L 181.49 598.90 Z" />
<path fill="#008834" opacity="1.00" d=" M 194.61 613.33 C 194.86 613.60 195.37 614.15 195.63 614.42 C 196.07 614.72 196.94 615.32 197.38 615.62 C 199.33 618.23 201.44 620.73 203.69 623.09 C 200.58 621.83 198.92 618.62 196.27 616.70 C 195.91 616.40 195.21 615.82 194.86 615.53 C 194.80 614.98 194.67 613.88 194.61 613.33 Z" />
<path fill="#008834" opacity="1.00" d=" M 208.55 628.26 C 208.59 628.30 208.68 628.39 208.73 628.44 C 208.68 628.39 208.59 628.30 208.55 628.26 Z" />
<path fill="#008834" opacity="1.00" d=" M 210.57 630.24 C 210.63 630.29 210.73 630.39 210.78 630.44 C 210.73 630.39 210.63 630.29 210.57 630.24 Z" />
<path fill="#008834" opacity="1.00" d=" M 213.27 632.72 C 214.37 633.08 215.11 634.03 215.81 634.92 C 214.92 637.18 211.97 634.16 213.27 632.72 Z" />
<path fill="#008834" opacity="1.00" d=" M 224.49 643.01 C 225.50 643.31 226.06 643.95 226.15 644.93 C 224.51 645.39 223.96 644.75 224.49 643.01 Z" />
<path fill="#008834" opacity="1.00" d=" M 230.28 648.13 C 231.38 648.60 232.29 649.40 232.98 650.38 C 231.65 652.02 228.79 649.69 230.28 648.13 Z" />
<path fill="#008834" opacity="1.00" d=" M 756.96 659.07 C 758.74 657.50 760.49 655.89 762.40 654.48 L 763.43 655.35 C 761.37 656.74 759.40 658.40 756.96 659.07 Z" />
<path fill="#008834" opacity="1.00" d=" M 239.81 656.41 C 241.04 657.25 242.31 658.04 243.59 658.82 C 243.68 659.09 243.86 659.62 243.95 659.89 L 244.09 660.81 C 242.14 659.98 240.59 658.37 239.81 656.41 Z" />
<path fill="#008834" opacity="1.00" d=" M 248.50 663.31 C 248.56 663.35 248.67 663.42 248.73 663.46 C 248.67 663.42 248.56 663.35 248.50 663.31 Z" />
<path fill="#008834" opacity="1.00" d=" M 259.45 671.06 C 260.41 671.40 261.23 672.05 261.89 672.84 C 260.82 674.49 258.05 672.54 259.45 671.06 Z" />
<path fill="#008834" opacity="1.00" d=" M 265.22 675.24 C 267.04 676.32 268.86 677.40 270.55 678.70 C 270.25 679.07 269.65 679.79 269.35 680.15 C 268.38 678.16 266.15 677.22 265.22 675.24 Z" />
<path fill="#008834" opacity="1.00" d=" M 726.58 680.90 C 728.28 679.63 730.01 678.40 731.81 677.28 C 730.33 678.82 728.92 680.78 726.58 680.90 Z" />
<path fill="#008834" opacity="1.00" d=" M 723.14 682.89 C 723.60 682.61 724.51 682.05 724.97 681.77 C 726.64 682.99 723.52 684.85 723.14 682.89 Z" />
<path fill="#008834" opacity="1.00" d=" M 714.11 688.41 C 715.27 687.42 716.53 686.55 718.00 686.05 C 719.05 688.04 715.53 689.75 714.11 688.41 Z" />
<path fill="#008834" opacity="1.00" d=" M 710.11 690.85 C 710.86 690.09 711.75 689.49 712.77 689.14 C 714.01 690.70 711.12 692.45 710.11 690.85 Z" />
<path fill="#008834" opacity="1.00" d=" M 683.81 704.93 C 686.15 703.65 688.57 702.52 690.99 701.40 C 689.62 703.92 686.91 704.92 684.28 705.55 C 684.17 705.39 683.93 705.08 683.81 704.93 Z" />
<path fill="#008834" opacity="1.00" d=" M 315.99 704.80 C 316.46 705.05 317.39 705.53 317.85 705.77 L 317.00 706.21 L 316.05 705.70 L 315.99 704.80 Z" />
<path fill="#008834" opacity="1.00" d=" M 333.28 712.68 C 334.36 712.91 335.36 713.33 336.30 713.94 C 336.04 715.77 332.26 714.25 333.28 712.68 Z" />
<path fill="#008834" opacity="1.00" d=" M 339.34 715.50 C 339.40 715.52 339.50 715.56 339.56 715.58 C 339.50 715.56 339.40 715.52 339.34 715.50 Z" />
<path fill="#008834" opacity="1.00" d=" M 652.22 718.72 C 652.95 718.05 653.83 717.71 654.83 717.70 C 654.73 719.42 653.86 719.76 652.22 718.72 Z" />
<path fill="#008834" opacity="1.00" d=" M 644.25 721.64 C 646.33 720.58 648.65 720.09 650.87 719.36 C 649.15 721.05 646.68 722.20 644.25 721.64 Z" />
<path fill="#008834" opacity="1.00" d=" M 351.05 719.83 C 352.76 720.12 354.40 720.71 355.90 721.61 C 354.50 722.73 350.70 721.93 351.05 719.83 Z" />
<path fill="#008834" opacity="1.00" d=" M 375.44 728.11 C 377.05 728.35 378.62 728.80 380.04 729.64 C 378.82 731.22 374.46 730.57 375.44 728.11 Z" />
<path fill="#008834" opacity="1.00" d=" M 619.46 729.76 C 619.98 729.58 621.03 729.22 621.56 729.03 C 622.88 730.55 619.35 731.82 619.46 729.76 Z" />
<path fill="#008834" opacity="1.00" d=" M 435.93 742.03 C 437.76 742.23 439.57 742.61 441.40 742.91 C 441.05 743.13 440.36 743.58 440.02 743.80 L 439.08 742.57 C 438.57 743.02 438.07 743.48 437.58 743.95 C 437.17 743.47 436.35 742.51 435.93 742.03 Z" />
<path fill="#008834" opacity="1.00" d=" M 489.21 746.85 L 489.73 746.86 C 489.60 746.86 489.34 746.85 489.21 746.85 Z" />
<path fill="#008834" opacity="1.00" d=" M 497.23 746.79 C 497.87 746.80 499.15 746.80 499.79 746.80 C 499.42 748.28 498.55 748.49 497.18 747.45 L 497.23 746.79 Z" />
</g>
<g id="#9fe800ff">
<path fill="#9fe800" opacity="1.00" d=" M 758.00 93.08 C 765.31 91.13 773.37 91.43 780.44 94.27 C 780.49 94.29 780.59 94.33 780.65 94.35 C 782.61 95.23 784.54 96.22 786.39 97.34 C 786.44 97.38 786.55 97.44 786.60 97.48 C 795.77 103.29 801.63 114.06 800.99 124.96 C 800.46 137.18 791.91 148.17 780.66 152.60 C 780.62 152.61 780.53 152.65 780.48 152.67 C 770.14 156.75 757.86 155.73 748.50 149.65 C 748.45 149.62 748.36 149.56 748.31 149.53 C 739.84 143.96 733.78 134.28 733.95 123.98 C 733.42 110.54 743.15 97.42 756.07 93.94 C 756.55 93.72 757.52 93.29 758.00 93.08 Z" />
</g>
</svg>
