<?xml version="1.0" encoding="UTF-8" ?>
<!DOCTYPE svg PUBLIC "-//W3C//DTD SVG 1.1//EN" "http://www.w3.org/Graphics/SVG/1.1/DTD/svg11.dtd">
<svg width="100pt" height="75pt" viewBox="0 0 1000 750" version="1.1" xmlns="http://www.w3.org/2000/svg">
<g id="#43224aff">
<path fill="#43224a" opacity="1.00" d=" M 151.69 147.74 C 156.33 146.53 160.94 144.74 165.82 144.94 C 173.21 191.19 174.65 238.09 178.83 284.69 C 161.91 285.31 144.20 288.09 130.15 298.22 C 119.15 306.32 110.73 317.66 105.21 330.10 C 98.73 344.63 95.32 360.33 93.17 376.04 C 122.11 376.83 151.05 376.21 180.00 376.31 C 184.00 376.38 188.03 376.32 192.00 376.94 C 194.22 377.24 196.32 378.88 196.64 381.19 C 196.90 383.73 196.44 386.28 196.25 388.82 C 190.72 454.51 183.33 520.03 176.82 585.63 C 153.64 590.93 128.92 589.80 106.52 581.67 C 80.49 572.41 58.39 553.63 43.63 530.43 C 28.53 506.72 19.78 479.56 14.39 452.13 C 8.64 422.79 6.67 392.82 6.54 362.96 C 6.89 322.26 14.69 281.18 32.43 244.37 C 41.71 225.42 53.79 207.69 68.92 192.94 C 91.72 170.60 121.19 156.26 151.69 147.74 M 126.53 182.56 C 119.89 185.17 114.19 189.56 107.94 192.92 C 85.02 206.82 67.44 228.06 54.14 251.05 C 45.05 267.07 37.38 284.01 32.57 301.82 C 28.31 317.17 25.45 332.91 23.89 348.76 C 20.33 386.55 23.58 425.23 35.34 461.41 C 37.31 440.92 36.89 420.11 41.34 399.91 C 44.52 386.99 47.73 374.03 52.74 361.67 C 64.08 333.03 82.01 306.37 106.88 287.83 C 112.43 284.04 117.58 279.58 123.74 276.79 C 134.78 271.61 147.00 269.74 158.19 264.96 C 158.90 236.06 153.31 207.44 153.65 178.54 C 144.46 177.62 135.05 178.95 126.53 182.56 M 87.70 324.78 C 66.28 357.73 50.59 395.39 48.19 434.95 C 47.06 455.44 48.85 476.42 56.32 495.69 C 66.05 521.37 84.62 544.50 109.86 556.21 C 124.80 563.22 141.73 561.09 157.66 560.49 C 159.70 542.49 161.98 524.50 162.93 506.40 C 141.51 501.78 121.18 490.95 106.58 474.45 C 94.30 460.88 86.86 443.70 81.79 426.30 C 73.03 392.91 76.87 357.23 87.70 324.78 M 94.52 400.42 C 95.61 425.13 105.73 450.04 124.44 466.61 C 135.43 476.37 150.35 482.60 165.20 480.29 C 170.07 453.95 170.81 427.07 170.67 400.34 C 145.29 400.05 119.90 400.01 94.52 400.42 Z" />
<path fill="#43224a" opacity="1.00" d=" M 479.50 303.62 C 495.47 298.45 513.21 302.28 527.02 311.34 C 530.07 323.69 525.71 336.12 524.82 348.46 C 515.72 342.42 505.18 337.40 494.00 337.96 C 484.81 338.32 476.19 343.73 471.47 351.55 C 464.44 362.89 462.83 376.81 464.18 389.87 C 465.49 400.87 468.97 412.13 476.53 420.49 C 485.46 430.60 502.49 432.42 513.15 424.08 C 518.37 419.91 520.65 413.18 521.14 406.71 C 515.67 406.64 510.20 406.58 504.73 406.54 C 505.52 395.60 506.39 384.65 507.34 373.72 C 517.29 374.83 527.39 370.38 537.16 373.55 C 540.60 375.00 545.10 377.53 544.61 381.92 C 545.95 408.95 544.88 436.01 544.74 463.06 C 538.95 463.15 532.79 464.11 527.34 461.65 C 523.89 460.15 521.67 456.98 519.90 453.80 C 512.11 461.05 501.76 465.72 491.03 465.66 C 477.32 465.81 464.25 458.83 455.30 448.69 C 442.26 433.97 435.94 414.42 434.34 395.07 C 432.74 374.86 435.57 353.95 444.52 335.61 C 451.60 321.13 463.85 308.50 479.50 303.62 Z" />
<path fill="#43224a" opacity="1.00" d=" M 256.11 304.12 C 262.60 304.74 269.07 302.49 275.53 303.68 C 280.31 304.50 283.82 309.19 283.78 313.95 C 285.15 352.33 283.90 390.73 284.32 429.11 C 295.46 429.62 307.04 427.06 317.75 431.22 C 321.22 439.80 323.20 449.80 319.82 458.71 C 318.91 460.27 318.29 462.91 316.07 462.87 C 299.03 463.63 281.94 463.70 264.92 462.55 C 261.08 462.47 258.58 458.91 257.31 455.67 C 254.98 450.06 255.95 443.89 255.82 438.00 C 255.67 393.37 255.42 348.74 256.11 304.12 Z" />
<path fill="#43224a" opacity="1.00" d=" M 648.41 304.56 C 655.35 302.14 662.69 304.57 669.81 304.24 C 670.74 344.11 669.15 384.00 670.56 423.86 C 670.45 425.12 671.63 425.86 672.37 426.69 C 675.13 429.33 678.03 431.83 680.98 434.27 C 681.06 443.16 681.97 452.19 679.92 460.96 C 673.76 465.03 665.54 465.39 658.99 462.01 C 648.57 456.91 642.71 445.27 642.35 433.98 C 640.70 395.00 641.51 355.99 641.73 317.00 C 641.70 312.15 643.45 306.41 648.41 304.56 Z" />
<path fill="#43224a" opacity="1.00" d=" M 688.76 313.97 C 688.93 308.95 692.90 304.20 698.00 303.65 C 704.17 302.80 710.31 304.74 716.50 304.27 C 717.39 344.72 715.67 385.19 717.41 425.63 C 720.75 428.62 724.22 431.44 727.76 434.20 C 727.77 443.55 727.72 452.90 727.54 462.25 C 718.05 464.26 706.68 465.12 699.07 457.91 C 690.56 449.62 689.02 436.95 688.42 425.68 C 687.93 402.45 688.58 379.22 688.14 355.99 C 688.07 341.98 688.06 327.97 688.76 313.97 Z" />
<path fill="#43224a" opacity="1.00" d=" M 341.29 352.22 C 353.50 346.03 368.38 343.23 381.41 348.52 C 393.06 353.14 400.60 364.83 402.70 376.85 C 406.15 405.37 403.55 434.13 404.07 462.76 C 397.74 462.70 391.12 464.36 385.02 462.05 C 380.53 460.38 378.21 455.83 376.90 451.52 C 372.22 457.41 366.37 462.81 359.02 465.02 C 349.38 467.98 338.56 462.87 333.29 454.58 C 327.26 445.30 325.20 433.68 326.89 422.80 C 328.25 413.95 333.41 405.92 340.49 400.53 C 351.04 392.53 364.79 391.83 377.47 390.73 C 376.13 385.41 373.11 379.38 367.12 378.39 C 359.01 377.24 351.46 381.39 343.55 382.45 C 342.78 372.37 341.88 362.31 341.29 352.22 M 361.00 416.98 C 356.93 419.20 354.58 423.65 353.84 428.10 C 354.71 431.09 356.66 433.95 359.41 435.51 C 362.46 437.16 366.05 435.56 368.37 433.40 C 373.77 428.34 376.64 421.13 377.75 413.93 C 372.12 414.37 366.09 414.14 361.00 416.98 Z" />
<path fill="#43224a" opacity="1.00" d=" M 569.95 353.24 C 580.91 345.81 595.42 343.10 607.98 347.87 C 617.96 351.50 625.49 360.18 628.98 370.06 C 631.45 376.04 631.52 382.59 631.98 388.95 C 633.40 413.29 631.72 437.67 632.45 462.03 C 624.45 463.19 616.30 463.09 608.33 461.76 C 607.61 457.77 606.88 453.77 606.17 449.78 C 601.13 457.16 593.95 463.84 584.89 465.52 C 577.39 467.02 569.79 463.60 564.42 458.51 C 558.16 451.95 555.50 442.77 554.80 433.92 C 554.15 424.31 555.97 413.92 562.49 406.48 C 567.43 400.36 574.40 396.04 581.98 394.03 C 589.49 391.91 597.35 391.65 605.08 390.93 C 604.09 385.68 601.76 379.41 595.88 378.16 C 587.83 376.81 580.45 381.21 573.03 383.55 C 571.37 373.53 569.41 363.45 569.95 353.24 M 586.02 419.96 C 582.00 424.54 582.51 431.19 584.22 436.64 C 588.03 437.07 592.11 436.67 595.27 434.30 C 601.82 429.60 604.38 421.33 605.32 413.68 C 598.49 413.39 590.78 414.57 586.02 419.96 Z" />
<path fill="#43224a" opacity="1.00" d=" M 744.55 359.49 C 750.38 352.26 758.84 347.06 768.09 345.77 C 777.29 344.39 786.98 346.99 794.27 352.76 C 802.42 359.08 807.44 368.70 809.66 378.64 C 811.55 387.03 813.55 395.84 811.64 404.42 C 810.68 408.49 807.70 413.07 803.05 413.04 C 788.16 414.31 773.15 412.37 758.30 414.40 C 760.48 421.64 764.98 429.07 772.67 431.30 C 782.74 434.12 793.01 429.58 801.49 424.38 C 803.85 430.33 807.66 435.69 809.12 441.99 C 810.10 446.16 809.44 451.18 806.11 454.17 C 796.87 462.38 784.23 467.00 771.84 465.56 C 759.23 464.25 747.79 456.53 740.94 446.00 C 732.41 432.73 729.45 416.52 730.05 400.93 C 730.74 386.16 734.87 370.97 744.55 359.49 M 770.42 374.43 C 764.38 377.42 761.91 384.24 759.27 389.99 C 767.99 390.31 776.73 390.28 785.45 389.78 C 783.42 385.25 781.79 380.37 778.44 376.60 C 776.48 374.40 773.24 372.72 770.42 374.43 Z" />
<path fill="#43224a" opacity="1.00" d=" M 832.10 357.97 C 838.55 349.64 849.27 344.28 859.91 345.72 C 867.62 346.60 874.51 350.99 879.57 356.74 C 881.74 353.65 883.91 350.57 886.09 347.49 C 892.56 347.60 899.03 347.75 905.50 347.91 C 905.56 385.60 906.17 423.30 905.34 460.98 C 905.03 477.18 897.34 493.62 883.69 502.75 C 876.40 507.37 867.66 509.92 859.00 509.38 C 851.01 508.95 843.28 506.64 835.66 504.35 C 836.34 494.25 837.25 484.16 838.56 474.12 C 847.96 475.17 857.83 479.01 867.07 475.19 C 871.51 473.53 875.01 469.73 875.95 465.03 C 877.26 459.92 877.44 454.62 878.34 449.44 C 871.47 455.72 862.42 460.64 852.84 459.63 C 842.68 458.58 834.42 451.12 829.25 442.74 C 821.33 429.73 818.57 414.13 818.92 399.07 C 819.44 384.58 822.94 369.54 832.10 357.97 M 858.42 378.62 C 853.25 380.62 850.35 385.92 849.02 391.03 C 846.84 399.57 847.39 408.88 850.81 417.03 C 852.88 422.01 857.13 426.87 862.92 426.99 C 867.52 427.82 871.89 424.95 874.05 421.02 C 878.73 412.87 879.11 402.99 877.72 393.90 C 877.16 388.96 874.96 384.04 870.99 380.93 C 867.53 378.14 862.63 376.97 858.42 378.62 Z" />
<path fill="#43224a" opacity="1.00" d=" M 928.58 352.24 C 940.44 346.15 954.92 343.43 967.71 348.19 C 979.16 352.41 987.01 363.45 989.53 375.10 C 994.23 403.78 990.73 432.89 991.71 461.77 C 985.14 462.43 978.23 464.72 971.80 462.22 C 967.06 460.33 965.47 454.95 964.85 450.36 C 959.41 457.87 951.74 465.01 942.07 465.86 C 934.81 466.10 927.28 463.10 922.68 457.35 C 915.60 448.71 912.82 437.05 913.67 426.04 C 914.40 415.82 919.93 406.17 928.20 400.17 C 938.78 392.49 952.33 391.85 964.84 390.31 C 963.36 385.28 960.46 379.79 954.95 378.47 C 946.98 376.80 939.50 381.02 932.23 383.60 C 930.69 373.22 928.71 362.65 928.58 352.24 M 940.30 422.89 C 941.93 426.87 943.17 431.01 945.01 434.91 C 948.38 437.53 953.48 436.30 956.22 433.27 C 961.31 428.00 963.32 420.62 964.60 413.60 C 955.70 413.64 946.91 416.92 940.30 422.89 Z" />
</g>
<g id="#e6176fff">
<path fill="#e6176f" opacity="1.00" d=" M 126.53 182.56 C 135.05 178.95 144.46 177.62 153.65 178.54 C 153.31 207.44 158.90 236.06 158.19 264.96 C 147.00 269.74 134.78 271.61 123.74 276.79 C 117.58 279.58 112.43 284.04 106.88 287.83 C 82.01 306.37 64.08 333.03 52.74 361.67 C 47.73 374.03 44.52 386.99 41.34 399.91 C 36.89 420.11 37.31 440.92 35.34 461.41 C 23.58 425.23 20.33 386.55 23.89 348.76 C 25.45 332.91 28.31 317.17 32.57 301.82 C 37.38 284.01 45.05 267.07 54.14 251.05 C 67.44 228.06 85.02 206.82 107.94 192.92 C 114.19 189.56 119.89 185.17 126.53 182.56 Z" />
<path fill="#e6176f" opacity="1.00" d=" M 94.52 400.42 C 119.90 400.01 145.29 400.05 170.67 400.34 C 170.81 427.07 170.07 453.95 165.20 480.29 C 150.35 482.60 135.43 476.37 124.44 466.61 C 105.73 450.04 95.61 425.13 94.52 400.42 Z" />
</g>
<g id="#fcc702ff">
<path fill="#fcc702" opacity="1.00" d=" M 87.70 324.78 C 76.87 357.23 73.03 392.91 81.79 426.30 C 86.86 443.70 94.30 460.88 106.58 474.45 C 121.18 490.95 141.51 501.78 162.93 506.40 C 161.98 524.50 159.70 542.49 157.66 560.49 C 141.73 561.09 124.80 563.22 109.86 556.21 C 84.62 544.50 66.05 521.37 56.32 495.69 C 48.85 476.42 47.06 455.44 48.19 434.95 C 50.59 395.39 66.28 357.73 87.70 324.78 Z" />
</g>
</svg>
