<?xml version="1.0" encoding="UTF-8" ?>
<!DOCTYPE svg PUBLIC "-//W3C//DTD SVG 1.1//EN" "http://www.w3.org/Graphics/SVG/1.1/DTD/svg11.dtd">
<svg width="1000pt" height="750pt" viewBox="0 0 1000 750" version="1.1" xmlns="http://www.w3.org/2000/svg">
<g id="#f08523ff">
<path fill="#f08523" opacity="1.00" d=" M 371.70 106.12 C 373.33 102.88 374.47 99.24 376.93 96.51 C 380.99 96.21 385.06 96.41 389.12 96.48 C 390.69 99.42 392.67 102.15 394.10 105.18 C 394.54 109.44 394.29 113.75 394.13 118.03 C 394.33 120.00 392.57 121.13 391.60 122.58 C 391.11 125.62 391.71 128.70 392.81 131.54 C 394.22 135.09 394.54 139.08 396.78 142.28 C 398.54 144.85 399.72 147.89 402.18 149.94 C 403.76 150.90 403.51 152.84 403.83 154.42 C 405.89 154.51 407.96 154.56 410.03 154.60 C 412.53 159.39 418.50 158.43 423.00 158.52 C 425.48 158.90 426.45 156.08 428.24 154.95 C 430.33 154.44 432.50 154.59 434.63 154.55 C 434.74 153.47 434.86 152.40 434.98 151.33 C 439.37 149.11 440.82 144.09 443.23 140.16 C 445.98 135.49 446.47 129.81 445.22 124.59 C 444.35 121.43 445.15 118.19 445.60 115.04 C 446.33 110.90 449.41 107.86 451.90 104.68 C 455.20 104.70 458.50 104.68 461.81 104.79 C 463.23 107.47 465.65 109.53 466.72 112.41 C 468.47 115.97 468.74 120.06 468.49 123.95 C 467.59 127.26 465.60 130.32 465.61 133.83 C 461.16 135.56 460.94 140.98 460.39 145.02 C 460.67 158.11 457.17 170.91 457.22 183.99 C 456.72 188.59 456.99 193.38 455.33 197.77 C 453.03 197.64 450.75 197.33 448.52 196.80 C 443.56 195.76 438.42 196.87 433.47 195.95 C 433.24 195.48 432.77 194.55 432.53 194.08 C 427.89 194.66 423.65 192.15 419.03 192.64 C 413.25 192.98 407.23 191.67 401.67 193.72 C 399.56 194.20 397.38 193.97 395.24 194.01 C 394.21 194.82 393.46 196.47 391.93 196.29 C 386.35 196.58 380.61 195.75 375.16 197.29 C 373.17 197.80 372.12 200.24 369.93 200.20 C 365.55 200.68 359.92 200.27 357.48 204.73 C 354.96 205.63 351.78 204.69 349.82 206.92 C 347.25 209.38 342.98 207.84 340.42 210.40 C 337.30 213.50 332.04 212.64 329.08 215.95 C 326.72 218.39 323.31 218.83 320.11 218.28 C 319.81 215.89 319.65 213.50 319.44 211.11 C 319.00 205.90 316.86 201.00 316.50 195.77 C 316.05 189.74 313.60 184.04 313.65 177.95 C 313.87 173.44 311.45 169.46 310.97 165.06 C 310.46 161.91 311.12 158.68 310.52 155.55 C 308.54 153.13 306.69 150.22 303.26 149.89 C 302.35 147.90 300.82 146.33 299.58 144.56 C 298.65 141.78 298.16 138.87 297.65 135.99 C 298.13 130.82 299.77 125.88 302.38 121.41 C 304.56 120.78 306.72 119.99 308.97 119.67 C 311.66 120.27 314.23 121.32 316.96 121.74 C 318.15 124.30 319.99 126.62 320.47 129.47 C 321.01 132.62 320.52 135.82 320.79 138.99 C 321.97 144.36 325.51 148.87 326.57 154.27 C 327.56 154.61 328.54 154.95 329.53 155.30 C 330.06 157.36 331.40 158.83 333.46 159.44 C 333.68 160.52 333.92 161.61 334.17 162.69 C 337.95 162.83 342.42 161.88 345.19 165.15 C 348.90 162.93 353.26 162.96 357.38 162.28 C 361.55 160.50 363.14 154.62 368.03 154.20 C 368.33 152.98 368.51 151.67 369.33 150.66 C 373.05 145.21 373.80 138.48 376.35 132.51 C 378.00 126.72 373.51 121.98 371.72 116.88 C 371.31 113.32 371.25 109.68 371.70 106.12 Z" />
<path fill="#f08523" opacity="1.00" d=" M 386.97 216.52 C 392.08 215.52 397.70 215.94 402.16 212.89 C 410.13 212.52 418.13 212.66 426.11 212.84 C 429.64 212.81 432.42 215.33 435.83 215.82 C 439.99 217.00 444.43 216.22 448.57 217.36 C 450.16 219.86 452.78 220.73 455.55 221.31 C 457.50 223.27 459.33 225.38 462.18 226.02 C 462.28 227.07 462.38 228.12 462.49 229.18 C 463.65 229.39 464.81 229.62 465.98 229.87 C 467.04 232.74 469.91 234.25 471.24 236.96 C 475.79 244.64 480.08 252.76 481.57 261.66 C 483.27 265.98 483.23 270.66 484.03 275.17 C 487.37 287.49 485.90 300.40 486.25 313.01 C 485.60 321.61 486.31 330.40 484.04 338.82 C 482.72 344.32 483.52 350.38 480.59 355.42 C 479.45 364.69 475.71 373.41 472.17 382.00 C 470.71 387.01 467.13 390.93 464.20 395.12 C 459.55 401.13 454.43 406.85 448.48 411.61 C 445.73 412.31 442.89 413.09 441.87 416.09 C 439.39 416.37 436.33 416.46 434.98 418.96 C 431.89 427.35 437.72 435.37 437.56 443.74 C 438.97 449.26 440.20 454.82 440.85 460.49 C 443.24 466.19 443.03 472.48 444.77 478.36 C 446.29 484.15 446.35 490.22 447.99 495.99 C 448.95 499.94 449.07 504.06 450.14 507.99 C 451.99 513.93 452.09 520.23 453.83 526.21 C 454.45 532.54 456.95 538.49 457.42 544.84 C 457.71 547.59 457.92 550.43 459.09 552.99 C 460.90 556.73 459.84 561.08 461.23 564.96 C 463.27 571.15 463.40 577.70 464.29 584.09 C 461.20 583.88 458.16 583.16 455.06 583.23 C 435.36 583.24 415.66 583.25 395.96 583.22 C 393.52 583.14 391.13 583.67 388.75 584.12 C 387.49 576.80 387.01 569.38 385.80 562.05 C 385.49 555.51 385.02 548.98 384.24 542.50 C 382.24 535.93 382.91 529.04 382.53 522.30 C 378.45 510.49 380.84 497.58 377.53 485.60 C 376.25 477.41 376.91 468.86 374.31 460.92 C 374.33 453.07 373.80 445.25 373.48 437.41 C 372.97 437.38 371.94 437.33 371.42 437.31 C 372.03 447.01 368.94 456.34 368.58 465.97 C 368.71 475.41 366.13 484.61 365.81 494.03 C 365.74 504.47 362.56 514.61 362.71 525.06 C 362.89 529.92 361.19 534.54 360.62 539.32 C 359.33 547.23 360.29 555.33 358.37 563.15 C 356.87 569.63 357.50 576.32 356.72 582.88 C 355.17 583.10 353.61 583.24 352.05 583.25 C 335.37 583.23 318.68 583.24 302.00 583.24 C 296.54 583.31 291.03 582.85 285.66 584.03 C 284.08 576.54 285.25 568.97 285.51 561.44 C 289.23 551.75 286.72 541.14 289.20 531.21 C 290.11 527.96 289.62 524.54 290.24 521.26 C 291.68 514.19 290.24 506.73 292.65 499.83 C 294.84 491.58 292.89 482.88 295.46 474.72 C 297.31 468.19 295.75 461.27 297.53 454.73 C 300.12 443.55 298.87 431.87 301.73 420.74 C 303.19 414.78 301.79 408.51 303.42 402.58 C 304.72 397.08 303.73 391.31 305.10 385.83 C 305.73 381.98 305.09 378.00 306.16 374.22 C 307.25 370.46 307.18 366.50 307.81 362.66 C 308.57 357.31 307.12 351.62 309.37 346.53 C 311.78 337.15 310.15 327.21 312.86 317.90 C 313.94 311.56 313.49 305.07 314.67 298.74 C 315.74 293.23 316.87 287.69 316.77 282.05 C 316.76 275.29 318.51 268.72 318.83 262.00 C 319.51 255.41 319.88 248.80 320.85 242.24 C 322.03 241.98 323.22 241.73 324.41 241.48 C 324.98 240.27 325.57 239.06 326.19 237.87 C 328.23 237.62 330.27 237.35 332.31 237.13 C 332.63 236.06 332.95 235.00 333.28 233.93 C 336.60 233.36 340.50 233.04 342.21 229.64 C 345.54 229.51 349.53 229.13 350.99 225.59 C 354.01 225.86 356.86 225.08 359.10 222.99 C 362.86 219.26 368.83 222.23 372.91 219.15 C 376.28 214.85 382.31 217.44 386.97 216.52 M 390.49 284.66 C 389.79 286.17 388.66 287.57 388.47 289.27 C 387.63 297.51 386.55 305.73 385.69 313.97 C 386.10 321.13 384.24 328.09 383.17 335.11 C 382.87 339.94 382.93 344.80 382.40 349.62 C 379.39 357.51 380.23 366.18 379.99 374.48 C 385.16 374.35 390.46 374.99 395.49 373.48 C 397.02 371.88 398.60 370.36 400.72 369.56 C 403.79 366.97 405.95 363.41 407.94 359.93 C 412.41 353.64 413.69 345.76 414.53 338.26 C 415.28 335.83 416.58 333.51 416.63 330.92 C 416.78 324.28 416.78 317.63 416.67 310.99 C 416.73 306.74 415.15 302.75 414.17 298.68 C 413.30 294.45 408.75 292.08 408.40 287.65 C 406.58 287.64 404.76 287.60 402.94 287.55 C 400.57 282.87 394.72 284.41 390.49 284.66 Z" />
</g>
<g id="#008b48ff">
<path fill="#008b48" opacity="1.00" d=" M 784.31 244.66 C 786.57 244.05 788.75 243.15 791.04 242.62 C 793.68 243.15 796.16 244.51 798.93 244.38 C 812.77 244.38 826.62 244.27 840.47 244.45 C 840.69 252.39 838.32 260.10 838.39 268.04 C 837.86 275.50 836.67 282.90 835.70 290.31 C 835.18 303.25 832.93 316.07 832.41 329.01 C 831.31 335.23 831.30 341.59 829.99 347.78 C 829.07 352.14 829.95 356.61 829.38 361.00 C 826.96 376.59 826.70 392.42 824.43 408.04 C 824.17 423.05 821.34 437.86 820.89 452.85 C 817.72 467.20 818.57 482.04 815.77 496.44 C 815.37 499.72 815.47 503.04 815.35 506.34 C 796.88 506.30 778.41 506.38 759.94 506.31 C 758.19 506.63 757.74 504.68 757.25 503.49 C 753.65 493.24 751.27 482.64 748.64 472.12 C 740.17 442.05 732.73 411.69 724.26 381.63 C 723.61 378.58 723.12 375.44 721.52 372.71 C 720.96 380.24 721.29 387.81 720.63 395.33 C 719.63 403.87 718.31 412.41 718.23 421.03 C 717.69 429.39 716.26 437.68 715.44 446.02 C 715.07 455.78 714.14 465.52 712.60 475.17 C 712.56 484.80 710.93 494.31 710.18 503.89 C 707.68 506.53 703.31 505.28 700.01 506.25 C 684.79 506.50 669.56 506.21 654.34 506.43 C 654.46 498.58 654.44 490.66 656.25 482.99 C 656.21 476.95 657.70 471.06 657.69 465.03 C 658.11 454.63 660.33 444.40 660.68 434.00 C 661.64 425.62 662.04 417.19 663.42 408.86 C 663.28 396.46 666.74 384.37 666.51 371.98 C 667.17 364.30 668.53 356.68 669.34 349.02 C 669.07 341.99 670.48 335.08 670.94 328.09 C 672.51 312.81 673.52 297.49 675.14 282.22 C 677.13 269.78 677.77 257.19 678.66 244.64 C 681.69 243.72 684.71 242.46 687.95 242.65 C 700.98 242.68 714.01 242.67 727.05 242.65 C 730.32 242.62 733.42 243.83 736.59 244.51 C 739.70 256.09 742.80 267.67 745.98 279.23 C 747.66 288.46 751.31 297.20 752.94 306.45 C 757.62 321.97 761.48 337.74 765.90 353.34 C 767.40 359.82 769.31 366.19 770.64 372.70 C 770.73 373.84 771.59 374.59 772.35 375.36 C 773.61 368.28 773.43 361.09 773.83 353.94 C 775.14 345.25 774.80 336.39 776.35 327.73 C 778.11 310.33 779.88 292.95 781.31 275.52 C 782.72 265.27 783.41 254.95 784.31 244.66 Z" />
<path fill="#008b48" opacity="1.00" d=" M 25.29 244.53 C 31.03 245.18 36.28 242.17 41.98 242.63 C 55.59 242.82 69.20 242.43 82.80 242.83 C 83.62 247.27 83.57 251.80 82.50 256.20 C 81.77 266.50 80.83 276.78 79.49 287.03 C 79.27 298.73 77.29 310.29 76.33 321.94 C 75.78 330.38 74.85 338.79 73.60 347.15 C 73.56 354.07 72.76 360.93 72.03 367.80 C 70.18 379.77 70.01 391.91 68.21 403.89 C 67.22 409.33 67.61 414.89 67.39 420.40 C 85.72 420.53 104.06 420.32 122.39 420.45 C 123.04 432.72 120.53 444.80 119.44 456.96 C 119.37 462.46 119.41 468.01 117.86 473.34 C 117.59 479.90 116.43 486.40 116.39 492.98 C 116.27 496.29 115.75 499.61 114.81 502.80 C 114.21 504.56 113.36 507.02 111.02 506.62 C 84.02 506.65 57.01 506.55 30.00 506.63 C 22.90 506.48 15.76 507.13 8.69 506.14 C 5.97 506.24 3.27 506.72 0.54 506.55 C 1.76 497.73 1.41 488.80 2.65 479.99 C 4.54 465.92 4.77 451.69 7.26 437.70 C 7.31 426.68 8.87 415.75 10.34 404.85 C 10.24 396.51 12.22 388.34 12.58 380.03 C 12.91 366.30 15.65 352.79 16.03 339.06 C 17.20 332.65 17.47 326.14 18.44 319.71 C 18.69 308.10 21.11 296.67 21.51 285.06 C 21.30 278.31 23.31 271.77 23.71 265.06 C 25.09 258.29 24.03 251.32 25.29 244.53 Z" />
<path fill="#008b48" opacity="1.00" d=" M 204.41 243.42 L 205.00 242.77 C 224.67 242.50 244.37 242.78 264.05 242.64 C 265.39 242.95 267.74 242.04 268.32 243.76 C 271.61 251.76 270.73 260.65 272.25 269.03 C 272.74 272.32 273.43 275.60 273.57 278.94 C 274.05 290.71 276.96 302.20 277.51 313.96 C 277.65 319.39 279.79 324.56 279.56 330.00 C 279.33 338.48 282.26 346.64 282.52 355.08 C 282.69 364.79 285.43 374.25 285.55 383.96 C 286.52 393.65 288.99 403.21 288.49 413.00 C 288.79 423.15 286.93 433.16 285.62 443.17 C 285.81 452.56 283.52 461.75 282.62 471.05 C 282.53 482.53 279.38 493.72 279.43 505.19 C 273.93 505.27 268.52 506.64 263.00 506.35 C 254.50 505.85 245.67 507.63 237.47 504.68 C 236.13 495.59 236.79 486.37 236.47 477.22 C 236.50 475.63 235.67 473.39 233.73 473.62 C 229.73 473.79 225.82 471.60 221.91 473.19 C 212.73 474.04 203.47 473.19 194.26 473.57 C 191.91 473.32 191.41 476.07 190.93 477.79 C 189.08 486.13 186.48 494.29 184.87 502.69 C 184.63 505.48 181.15 505.90 178.96 506.50 C 163.31 506.64 147.63 506.37 131.97 506.68 C 128.60 506.75 125.40 505.58 122.11 505.07 C 123.73 497.00 126.94 489.38 129.17 481.49 C 132.11 472.96 134.57 464.29 137.47 455.76 C 140.89 445.39 143.57 434.79 147.28 424.52 C 150.22 415.99 152.49 407.26 155.54 398.77 C 161.11 379.30 167.78 360.18 173.61 340.79 C 184.07 308.40 193.76 275.72 204.41 243.42 M 225.11 340.92 C 220.28 364.30 213.71 387.30 208.15 410.50 C 215.65 410.65 223.16 410.54 230.66 410.59 C 230.97 401.95 230.92 393.27 230.26 384.65 C 229.11 378.72 229.82 372.64 228.94 366.69 C 226.68 353.81 228.84 340.69 227.42 327.75 C 225.40 331.86 225.63 336.50 225.11 340.92 Z" />
<path fill="#008b48" opacity="1.00" d=" M 608.30 243.36 L 609.01 242.77 C 625.68 242.50 642.38 242.78 659.07 242.64 C 661.79 242.33 664.20 243.72 666.58 244.82 C 667.01 250.95 665.12 256.88 665.21 262.99 C 664.48 269.33 663.08 275.61 663.48 282.04 C 662.40 292.45 660.76 302.83 660.44 313.31 C 658.98 323.31 658.15 333.39 657.45 343.47 C 655.12 358.40 655.22 373.57 652.78 388.49 C 652.17 397.97 651.44 407.45 650.15 416.87 C 649.13 422.36 649.67 427.98 648.70 433.47 C 647.98 441.66 646.48 449.79 646.39 458.03 C 645.67 468.05 643.24 477.93 643.49 488.03 C 642.86 493.33 642.26 498.63 642.21 503.98 C 640.88 506.09 638.09 505.10 636.04 505.49 C 624.76 507.04 613.35 506.07 602.00 506.33 C 595.55 506.03 588.88 507.24 582.64 505.12 C 582.77 499.77 582.83 494.39 583.84 489.12 C 585.83 475.56 586.05 461.80 588.05 448.23 C 588.99 442.98 588.62 437.61 589.25 432.34 C 590.08 426.25 590.90 420.15 591.51 414.04 C 591.58 403.30 593.93 392.77 594.56 382.08 C 594.55 374.34 596.26 366.73 596.65 359.01 C 597.85 352.67 597.24 346.17 598.45 339.84 C 599.01 332.21 600.73 324.68 600.54 317.01 C 600.95 306.96 603.45 297.09 603.50 287.01 C 604.39 279.56 604.91 272.08 606.16 264.67 C 606.54 257.56 606.33 250.24 608.30 243.36 Z" />
<path fill="#008b48" opacity="1.00" d=" M 940.00 243.87 C 945.69 243.79 951.48 244.38 957.05 242.87 C 960.64 242.63 964.71 241.91 967.94 243.96 C 970.04 246.79 969.67 250.64 970.20 253.99 C 970.37 264.36 972.96 274.49 973.46 284.84 C 974.43 291.55 975.24 298.28 976.17 305.00 C 976.51 313.86 978.87 322.49 979.25 331.34 C 979.76 339.55 981.57 347.63 981.72 355.87 C 982.62 362.28 983.93 368.65 984.55 375.10 C 984.71 383.47 986.67 391.67 987.36 400.00 C 987.20 406.60 989.28 412.96 989.73 419.51 C 990.44 424.36 990.01 429.31 991.10 434.11 C 992.20 440.04 993.06 446.03 993.31 452.07 C 993.63 459.45 995.70 466.63 996.13 474.01 C 996.63 484.90 999.60 495.60 998.71 506.58 C 983.48 506.56 968.24 506.67 953.01 506.53 C 948.40 505.87 943.77 505.69 939.12 505.67 C 936.98 505.96 937.15 503.38 936.80 501.99 C 936.51 492.53 935.67 483.10 935.44 473.63 C 922.28 473.28 909.11 473.72 895.96 473.41 C 894.11 473.30 892.31 473.65 890.56 474.16 C 891.00 480.68 887.60 486.58 886.79 492.94 C 885.41 497.32 885.03 502.18 882.97 506.24 C 865.97 506.49 848.96 506.22 831.96 506.36 C 828.74 506.50 825.59 505.84 822.47 505.17 C 822.80 501.50 823.50 497.87 824.40 494.30 C 827.90 483.26 831.09 472.10 835.21 461.25 C 843.23 435.18 851.46 409.17 860.07 383.29 C 861.83 375.46 864.83 367.98 867.02 360.27 C 874.27 338.07 880.80 315.65 888.24 293.51 C 893.13 277.01 898.74 260.71 903.28 244.11 C 915.51 243.75 927.76 243.91 940.00 243.87 M 924.23 342.95 C 919.26 365.58 913.41 388.01 907.46 410.40 C 913.72 410.85 920.03 410.19 926.24 411.23 C 927.80 411.44 929.53 410.79 930.59 409.63 C 931.03 405.08 930.39 400.54 930.03 396.02 C 929.86 388.67 929.94 381.27 928.73 374.00 C 928.27 365.99 928.82 357.93 927.76 349.96 C 927.28 341.62 927.72 333.27 927.75 324.93 C 926.13 330.84 924.69 336.82 924.23 342.95 Z" />
<path fill="#008b48" opacity="1.00" d=" M 491.37 244.66 C 493.14 243.88 495.03 243.41 496.98 243.52 C 518.65 243.63 540.32 243.43 561.99 243.62 C 568.61 244.47 575.32 244.62 581.98 244.21 C 585.87 243.73 589.99 242.88 593.72 244.59 C 593.86 254.10 592.01 263.45 591.85 272.94 C 590.96 281.28 589.44 289.59 589.24 298.00 C 589.56 303.49 587.83 308.77 587.18 314.18 C 570.32 314.66 553.44 313.99 536.58 314.49 C 536.02 322.63 534.05 330.73 534.77 338.91 C 535.51 340.64 537.50 340.24 539.02 340.35 C 552.80 340.26 566.59 340.18 580.36 340.49 C 579.31 347.24 579.42 354.10 578.22 360.84 C 577.15 366.01 578.54 371.39 576.88 376.48 C 575.97 381.93 575.68 387.47 574.95 392.95 C 574.19 397.85 575.85 403.37 572.72 407.68 C 560.47 407.67 548.23 407.82 536.00 407.67 C 533.17 407.62 530.35 407.72 527.56 408.07 C 526.25 416.79 525.77 425.61 525.20 434.41 C 526.74 434.89 528.31 435.48 529.97 435.44 C 545.51 435.62 561.06 435.10 576.59 435.65 C 576.72 445.13 574.74 454.47 574.67 463.95 C 573.50 472.95 572.10 481.95 571.72 491.04 C 571.88 495.79 571.12 500.48 570.15 505.11 C 563.91 506.96 557.39 506.21 551.00 506.33 C 524.33 506.29 497.65 506.42 470.98 506.27 C 468.37 505.73 464.92 506.08 462.99 504.09 C 461.81 498.14 462.68 492.04 462.85 486.03 C 462.94 477.24 464.49 468.58 465.71 459.90 C 465.82 451.63 467.23 443.46 467.64 435.20 C 469.38 427.75 467.66 419.80 470.56 412.57 C 473.79 407.16 477.71 402.17 480.56 396.53 C 486.79 385.69 490.01 373.49 493.51 361.58 C 496.35 348.32 498.13 334.86 499.32 321.36 C 499.99 313.60 499.53 305.80 499.68 298.02 C 499.88 288.08 498.06 278.27 497.18 268.42 C 495.47 260.44 493.61 252.50 491.37 244.66 Z" />
<path fill="#008b48" opacity="1.00" d=" M 502.59 543.63 C 505.89 542.57 509.45 542.98 512.87 543.17 C 513.25 546.63 513.29 550.12 513.07 553.60 C 510.77 553.13 508.50 552.50 506.20 552.06 C 505.26 557.64 510.22 561.38 511.47 566.42 C 512.42 571.98 511.60 578.33 507.35 582.39 C 503.71 585.59 498.55 583.65 494.68 581.98 C 494.31 578.87 494.78 575.80 496.01 572.93 C 498.12 573.37 500.22 573.92 502.26 574.64 C 503.14 572.37 504.10 569.65 502.77 567.37 C 500.10 563.05 496.73 558.37 497.56 553.01 C 498.07 549.47 499.16 545.43 502.59 543.63 Z" />
<path fill="#008b48" opacity="1.00" d=" M 536.60 543.44 C 538.97 543.41 541.34 543.36 543.71 543.32 C 543.45 549.61 543.49 555.92 542.50 562.16 C 542.47 565.64 540.97 569.24 542.20 572.64 C 544.77 573.25 545.02 569.57 545.46 567.79 C 545.56 559.62 547.19 551.58 547.72 543.44 C 550.30 543.39 552.89 543.40 555.49 543.46 C 554.27 555.00 553.87 566.70 551.19 578.02 C 549.31 584.85 539.20 585.75 534.96 580.87 C 532.33 574.11 534.66 566.94 534.67 559.98 C 535.54 554.49 535.69 548.92 536.60 543.44 Z" />
<path fill="#008b48" opacity="1.00" d=" M 578.80 542.77 C 583.07 542.66 587.78 541.78 591.56 544.36 C 595.07 546.08 596.42 550.31 596.29 553.99 C 596.41 559.91 594.19 565.94 589.70 569.91 C 587.68 570.51 585.53 570.30 583.46 570.40 C 583.57 574.46 583.53 578.57 582.35 582.50 C 579.74 582.56 577.13 582.68 574.52 582.77 C 574.00 577.73 575.78 572.95 576.20 567.99 C 576.65 559.54 578.46 551.23 578.80 542.77 M 585.56 553.61 C 585.25 556.15 585.31 558.72 585.38 561.28 C 588.27 559.61 589.05 556.36 588.70 553.25 C 587.64 553.31 586.59 553.43 585.56 553.61 Z" />
<path fill="#008b48" opacity="1.00" d=" M 619.64 543.48 C 624.02 543.37 628.40 543.41 632.79 543.38 C 632.60 546.68 632.45 549.99 632.31 553.31 C 630.32 553.38 628.33 553.45 626.35 553.51 C 626.37 554.82 626.37 556.14 626.37 557.46 C 628.04 557.55 629.71 557.62 631.40 557.72 C 631.29 560.73 631.59 564.13 629.70 566.68 C 628.36 567.32 626.88 567.50 625.47 567.86 C 625.40 569.33 625.34 570.81 625.28 572.29 C 626.73 572.78 628.18 573.28 629.64 573.80 C 629.53 576.68 629.43 579.56 629.35 582.45 C 624.99 582.50 620.62 582.49 616.27 582.43 C 615.88 575.21 617.83 568.17 617.68 560.96 C 618.68 555.17 618.54 549.26 619.64 543.48 Z" />
<path fill="#008b48" opacity="1.00" d=" M 746.84 542.51 C 750.88 543.32 755.01 543.57 759.14 543.35 C 759.24 546.44 759.96 549.82 758.67 552.72 C 756.72 553.58 754.52 553.40 752.46 553.61 C 752.45 554.89 752.43 556.19 752.40 557.49 C 754.08 557.56 755.75 557.62 757.45 557.71 C 757.46 560.54 757.13 563.37 756.35 566.10 C 754.68 566.83 752.83 567.31 751.49 568.59 C 751.30 569.85 751.27 571.12 751.20 572.40 C 752.95 572.94 754.70 573.50 756.47 574.05 C 756.27 576.87 755.71 579.66 755.25 582.46 C 751.00 582.45 746.75 582.49 742.50 582.46 C 742.36 579.36 742.25 576.23 742.95 573.20 C 743.95 568.69 743.32 564.02 744.24 559.51 C 745.29 553.86 745.17 548.03 746.84 542.51 Z" />
<path fill="#008b48" opacity="1.00" d=" M 782.96 543.14 C 788.47 542.76 795.60 541.78 799.04 547.22 C 800.21 552.97 800.66 559.73 796.55 564.49 C 792.32 569.84 798.84 576.13 796.69 581.75 C 794.88 583.31 791.95 582.10 789.71 582.44 C 789.59 578.13 788.79 573.87 787.40 569.80 C 787.16 573.78 787.72 577.87 786.64 581.77 C 784.41 583.34 781.06 582.06 778.41 582.39 C 778.77 575.21 780.65 568.20 780.72 561.01 C 780.85 554.98 782.74 549.17 782.96 543.14 M 790.30 551.47 C 788.88 554.33 789.51 557.74 789.21 560.84 C 789.81 560.78 791.02 560.66 791.62 560.60 C 792.06 558.40 792.61 556.19 792.42 553.94 C 792.26 552.64 792.11 550.50 790.30 551.47 Z" />
<path fill="#008b48" opacity="1.00" d=" M 828.99 544.01 C 831.60 541.76 835.24 542.71 838.38 542.57 C 838.39 545.74 838.62 549.07 837.26 552.04 C 835.77 553.44 833.42 553.17 831.55 553.66 C 828.46 559.80 828.91 566.96 830.39 573.48 C 831.86 573.74 833.33 574.03 834.82 574.35 C 834.24 577.38 835.64 581.78 832.28 583.46 C 829.52 584.20 826.54 583.24 824.17 581.84 C 819.07 576.42 820.93 568.64 820.69 561.94 C 821.55 555.42 823.30 548.04 828.99 544.01 Z" />
<path fill="#008b48" opacity="1.00" d=" M 945.32 546.13 C 947.52 542.01 952.87 543.65 956.67 543.42 C 961.06 548.85 962.36 556.14 961.11 562.91 C 959.82 569.36 959.66 576.78 954.58 581.64 C 952.06 583.14 948.81 585.04 946.01 583.07 C 941.91 581.39 941.02 576.53 940.43 572.64 C 939.73 563.63 940.66 554.05 945.32 546.13 M 950.23 553.25 C 949.06 557.89 948.36 562.62 947.60 567.33 C 947.04 569.99 948.21 572.51 949.21 574.91 C 950.74 573.48 952.23 571.82 952.39 569.62 C 952.88 564.15 953.44 558.63 952.92 553.14 C 952.25 553.17 950.90 553.23 950.23 553.25 Z" />
<path fill="#008b48" opacity="1.00" d=" M 985.42 545.39 C 988.48 541.50 993.94 543.21 998.18 542.95 C 999.28 546.47 999.84 550.26 998.30 553.76 C 996.19 553.34 994.10 552.89 992.01 552.46 C 991.58 558.39 997.29 562.23 997.57 567.98 C 997.74 570.32 997.85 572.67 997.68 575.02 C 996.24 578.18 994.52 581.73 991.25 583.33 C 987.85 584.78 984.08 583.83 980.69 582.93 C 980.43 579.22 980.88 575.53 981.30 571.86 C 983.68 572.24 985.92 573.96 988.39 573.48 C 990.59 568.59 986.07 564.77 984.32 560.65 C 983.14 555.66 982.72 549.97 985.42 545.39 Z" />
<path fill="#008b48" opacity="1.00" d=" M 656.74 543.44 C 661.64 543.58 667.25 542.41 671.51 545.50 C 674.20 548.66 673.92 553.14 673.58 557.02 C 673.19 560.88 670.17 563.64 668.53 566.96 C 669.22 572.09 670.49 577.14 670.99 582.31 C 668.56 582.42 666.12 582.47 663.70 582.48 C 663.46 579.13 662.89 575.82 661.89 572.62 C 660.85 575.73 660.47 579.00 660.26 582.27 C 657.63 582.44 655.01 582.74 652.43 583.23 C 652.54 576.10 653.59 569.03 654.55 561.98 C 654.67 555.74 655.88 549.61 656.74 543.44 M 664.27 550.91 C 663.18 554.22 662.20 557.66 662.80 561.19 C 667.02 559.78 667.55 553.62 664.27 550.91 Z" />
<path fill="#008b48" opacity="1.00" d=" M 698.74 543.54 C 701.91 543.39 705.10 543.36 708.28 543.58 C 708.43 549.46 708.21 555.36 708.55 561.24 C 709.65 555.24 711.34 549.39 712.67 543.44 C 715.35 543.42 718.04 543.38 720.74 543.36 C 720.66 551.69 721.20 560.09 719.85 568.36 C 719.40 573.03 719.70 577.73 719.49 582.41 C 717.11 582.45 714.73 582.48 712.36 582.48 C 713.00 575.25 714.27 568.06 713.49 560.75 C 712.24 567.99 709.75 575.02 709.16 582.36 C 707.30 582.41 705.43 582.44 703.58 582.49 C 703.52 575.78 703.63 569.07 703.47 562.37 C 702.99 562.36 702.04 562.34 701.56 562.33 C 700.97 569.09 700.67 575.91 699.29 582.57 C 696.99 582.58 694.70 582.53 692.42 582.44 C 694.26 573.98 694.73 565.32 696.61 556.87 C 697.57 552.46 697.76 547.94 698.74 543.54 Z" />
<path fill="#008b48" opacity="1.00" d=" M 865.71 543.38 C 868.59 543.42 871.48 543.43 874.37 543.39 C 876.77 552.95 874.76 562.93 875.80 572.64 C 876.48 575.87 876.57 579.18 876.56 582.48 C 873.99 582.44 871.42 582.40 868.86 582.34 C 868.75 580.92 868.65 579.51 868.56 578.10 C 867.25 577.87 865.95 577.66 864.65 577.44 C 864.46 579.07 864.29 580.70 864.13 582.35 C 861.21 582.45 858.30 582.46 855.39 582.41 C 857.69 574.22 859.44 565.90 861.73 557.71 C 863.51 553.06 864.10 548.08 865.71 543.38 M 867.30 569.82 C 867.85 569.77 868.95 569.67 869.51 569.62 C 869.64 565.71 869.71 561.81 869.47 557.91 C 866.83 561.36 867.24 565.73 867.30 569.82 Z" />
<path fill="#008b48" opacity="1.00" d=" M 901.71 545.04 C 903.37 542.19 907.29 543.71 910.03 543.42 C 914.84 543.24 917.81 547.73 918.46 552.01 C 919.25 562.59 918.98 574.59 911.12 582.72 C 906.89 582.55 902.66 582.78 898.44 582.72 C 898.09 575.82 899.60 569.04 899.91 562.17 C 901.14 556.53 901.45 550.79 901.71 545.04 M 908.65 554.36 C 908.85 560.14 907.46 565.84 907.60 571.63 C 908.02 571.34 908.87 570.78 909.30 570.50 C 911.04 565.27 910.71 559.70 910.63 554.28 C 910.13 554.30 909.14 554.34 908.65 554.36 Z" />
</g>
</svg>
