<?xml version="1.0" encoding="UTF-8" ?>
<!DOCTYPE svg PUBLIC "-//W3C//DTD SVG 1.1//EN" "http://www.w3.org/Graphics/SVG/1.1/DTD/svg11.dtd">
<svg width="1000pt" height="750pt" viewBox="0 0 1000 750" version="1.1" xmlns="http://www.w3.org/2000/svg">
<g id="#ffffffff">
<path fill="#ffffff" opacity="1.00" d=" M 354.65 156.53 C 403.09 156.49 451.54 156.48 499.99 156.43 C 505.00 156.31 510.16 156.48 514.88 158.40 C 525.70 162.54 533.47 172.02 538.45 182.17 C 546.37 170.84 557.53 161.13 571.12 157.53 C 577.92 155.58 585.04 156.12 592.02 156.06 C 639.02 156.01 686.02 155.93 733.02 156.05 C 747.96 156.89 759.38 169.02 765.49 181.79 C 775.21 167.92 790.44 156.47 807.94 156.10 C 857.99 156.00 908.03 155.99 958.07 156.00 C 968.44 155.87 977.95 161.77 984.41 169.54 C 994.62 181.72 999.23 197.71 1000.00 213.37 L 1000.00 220.60 C 999.65 227.18 998.62 233.71 997.05 240.10 C 975.32 336.08 953.61 432.06 931.89 528.03 C 929.68 538.56 926.40 548.93 921.34 558.45 C 915.01 570.41 906.04 581.35 894.20 588.16 C 887.18 592.21 879.13 594.48 871.01 594.38 C 822.01 594.38 773.02 594.37 724.02 594.38 C 717.15 594.51 710.35 592.24 704.77 588.27 C 697.60 583.29 692.34 576.06 688.42 568.36 C 678.69 582.25 663.58 593.95 646.01 594.34 C 596.68 594.44 547.34 594.33 498.01 594.39 C 492.83 594.51 487.60 593.56 482.95 591.24 C 473.32 586.58 466.39 577.82 461.70 568.42 C 451.76 582.72 436.13 594.78 418.03 594.80 C 368.37 594.82 318.70 594.84 269.04 594.79 C 253.37 594.61 241.10 582.18 234.65 568.89 C 224.87 582.86 209.65 594.68 191.96 594.99 C 141.96 595.01 91.95 595.00 41.95 595.00 C 31.60 594.99 22.16 589.03 15.67 581.29 C 5.47 569.18 0.81 553.26 0.00 537.65 L 0.00 529.67 C 0.43 524.38 1.07 519.09 2.26 513.91 C 24.29 416.48 46.33 319.06 68.34 221.63 C 73.21 198.60 84.77 175.11 105.76 162.89 C 112.81 158.88 120.87 156.63 129.00 156.74 C 178.66 156.82 228.32 156.59 277.99 156.72 C 293.35 156.99 305.29 169.32 311.55 182.38 C 321.35 168.27 336.87 156.69 354.65 156.53 M 580.24 191.33 C 568.33 192.26 558.71 201.12 552.93 211.02 C 546.08 222.20 544.60 235.44 541.51 247.92 C 520.64 340.30 499.75 432.67 478.90 525.05 C 476.88 534.00 478.12 543.95 483.44 551.56 C 486.48 555.96 491.45 559.47 497.00 559.19 C 546.32 559.15 595.64 559.22 644.96 559.23 C 657.47 559.25 667.87 550.16 673.86 539.85 C 680.19 529.65 681.93 517.62 684.64 506.15 C 705.83 412.48 727.04 318.82 748.22 225.15 C 750.40 214.83 748.61 202.76 740.76 195.18 C 737.91 192.44 733.97 190.96 730.02 191.18 C 680.09 191.25 630.16 191.04 580.24 191.33 M 805.40 191.51 C 793.53 193.24 784.32 202.52 778.82 212.68 C 773.50 222.01 771.88 232.75 769.46 243.06 C 748.22 337.00 726.99 430.94 705.75 524.88 C 703.72 533.89 704.89 543.94 710.29 551.60 C 713.35 556.06 718.42 559.53 724.02 559.20 C 770.33 559.18 816.63 559.18 862.94 559.25 C 869.09 559.17 875.51 559.83 881.36 557.44 C 891.38 553.58 898.57 544.73 903.15 535.30 C 907.27 527.07 908.76 517.92 910.84 509.04 C 931.80 416.39 952.75 323.74 973.72 231.08 C 976.95 220.18 977.13 207.44 970.11 197.93 C 967.31 194.13 962.93 191.15 958.08 191.20 C 921.38 191.16 884.67 191.20 847.97 191.18 C 833.78 191.38 819.57 190.94 805.40 191.51 M 124.13 192.28 C 118.20 193.24 112.75 196.25 108.30 200.22 C 99.44 208.22 94.14 219.49 91.59 231.00 C 69.37 329.32 47.14 427.62 24.92 525.94 C 22.69 536.19 24.69 548.07 32.42 555.60 C 35.46 558.59 39.70 560.21 43.97 559.90 C 90.65 559.85 137.33 559.89 184.01 559.88 C 189.23 559.83 194.61 560.33 199.60 558.48 C 210.02 554.90 217.55 545.89 222.28 536.27 C 226.46 528.03 227.98 518.85 230.05 509.95 C 251.41 415.60 272.75 321.24 294.11 226.89 C 296.20 217.83 295.35 207.71 290.18 199.79 C 287.32 195.34 282.49 191.68 276.99 191.88 C 227.35 191.86 177.71 191.87 128.07 191.96 C 126.75 191.99 125.43 192.09 124.13 192.28 M 348.36 192.54 C 342.70 194.07 337.64 197.39 333.52 201.51 C 325.31 209.76 320.50 220.83 318.16 232.11 C 296.11 329.73 274.02 427.33 251.96 524.95 C 249.90 533.96 250.91 544.01 256.25 551.75 C 259.12 555.93 263.65 559.47 268.92 559.54 C 318.58 559.62 368.25 559.66 417.91 559.61 C 425.93 559.60 433.55 555.75 439.17 550.18 C 447.23 542.21 452.03 531.49 454.47 520.54 C 476.54 423.08 498.57 325.60 520.65 228.13 C 523.38 217.88 522.43 205.94 515.56 197.47 C 512.73 194.04 508.54 191.49 503.99 191.63 C 454.68 191.62 405.37 191.63 356.06 191.62 C 353.47 191.64 350.86 191.86 348.36 192.54 Z" />
<path fill="#ffffff" opacity="1.00" d=" M 578.51 227.59 C 592.64 227.08 606.83 227.52 620.98 227.37 C 649.65 227.43 678.32 227.22 706.99 227.34 C 710.02 227.28 712.63 229.35 714.16 231.83 C 716.82 236.05 717.20 241.32 716.21 246.12 C 713.52 259.47 711.08 272.86 708.26 286.18 C 706.41 293.55 701.21 301.60 692.95 302.23 C 682.63 302.46 672.30 302.20 661.99 302.35 C 658.71 302.43 656.04 304.83 654.23 307.36 C 651.76 310.72 651.13 314.94 650.22 318.91 C 636.58 379.34 622.93 439.78 609.29 500.21 C 607.95 506.33 606.83 512.81 602.81 517.85 C 599.86 521.86 595.09 524.68 590.00 524.38 C 582.00 524.27 573.99 524.60 566.01 524.21 C 558.93 522.33 556.76 513.46 557.89 507.06 C 572.44 442.42 587.16 377.82 601.68 313.17 C 602.68 309.22 601.66 303.26 596.92 302.41 C 586.97 302.15 577.01 302.42 567.05 302.30 C 562.14 302.47 558.89 297.79 557.76 293.52 C 556.04 288.00 557.96 282.38 559.13 276.98 C 561.73 265.66 564.15 254.29 566.86 243.00 C 568.57 236.79 571.56 229.27 578.51 227.59 Z" />
<path fill="#ffffff" opacity="1.00" d=" M 139.19 228.29 C 142.43 227.80 145.72 228.03 148.98 228.00 C 184.01 227.96 219.04 228.09 254.07 228.06 C 256.94 227.86 259.70 229.33 261.36 231.64 C 264.58 236.00 265.20 241.87 263.98 247.06 C 261.13 259.67 258.29 272.29 255.42 284.90 C 253.89 291.11 250.61 297.57 244.61 300.49 C 241.31 302.13 237.55 301.62 234.01 301.74 C 210.65 301.79 187.30 301.68 163.95 301.81 C 160.91 301.63 157.95 302.75 155.61 304.65 C 150.54 308.64 147.48 314.72 146.16 320.95 C 137.98 357.33 129.79 393.70 121.60 430.07 C 120.41 434.92 120.57 440.32 123.21 444.69 C 124.77 447.44 127.67 449.64 130.96 449.43 C 155.66 449.46 180.37 449.41 205.07 449.45 C 208.08 449.32 210.72 451.32 212.27 453.77 C 215.05 458.08 215.50 463.55 214.32 468.46 C 211.31 481.49 208.58 494.59 205.44 507.59 C 203.13 515.46 196.88 523.73 187.99 523.92 C 150.67 523.80 113.35 523.62 76.02 523.50 C 71.41 523.60 66.81 521.69 63.72 518.25 C 55.92 509.21 56.07 496.07 58.59 485.04 C 75.11 412.04 91.62 339.04 108.14 266.05 C 110.85 254.02 116.95 242.45 126.52 234.50 C 130.20 231.52 134.49 229.14 139.19 228.29 Z" />
<path fill="#ffffff" opacity="1.00" d=" M 364.33 228.51 C 367.79 227.38 371.47 227.54 375.06 227.55 C 407.05 227.59 439.03 227.52 471.02 227.59 C 477.34 227.53 482.99 231.78 485.70 237.32 C 490.22 246.17 489.85 256.65 487.69 266.11 C 471.99 335.53 456.30 404.96 440.60 474.38 C 438.79 482.03 437.53 489.92 434.18 497.10 C 430.13 506.01 424.03 514.33 415.57 519.49 C 411.78 521.77 407.42 523.18 402.97 523.07 C 369.65 523.03 336.33 523.11 303.01 523.04 C 296.81 523.08 291.25 518.95 288.51 513.56 C 283.94 504.88 284.19 494.53 286.27 485.18 C 301.88 416.10 317.51 347.02 333.12 277.94 C 335.32 268.62 336.79 258.93 341.41 250.41 C 346.39 240.97 353.91 231.98 364.33 228.51 M 389.38 301.46 C 381.27 303.20 376.34 311.33 374.35 318.85 C 365.97 355.87 357.66 392.91 349.33 429.94 C 348.01 435.28 348.54 441.42 352.13 445.80 C 353.76 447.87 356.31 449.10 358.96 448.98 C 366.65 449.04 374.33 448.99 382.02 449.00 C 385.46 449.20 388.67 447.48 391.10 445.17 C 395.65 440.90 398.59 435.09 399.92 429.03 C 407.54 395.41 415.16 361.78 422.77 328.15 C 423.99 322.14 426.41 315.89 424.38 309.77 C 423.19 305.55 419.82 301.17 415.01 301.34 C 406.47 301.37 397.91 301.14 389.38 301.46 Z" />
<path fill="#ffffff" opacity="1.00" d=" M 817.47 228.65 C 821.49 227.24 825.80 227.58 830.00 227.56 C 859.33 227.56 888.66 227.56 918.00 227.56 C 922.56 227.61 927.48 227.04 931.65 229.35 C 936.59 231.89 939.68 236.96 941.24 242.14 C 943.56 249.84 943.06 258.11 941.30 265.88 C 925.15 337.29 908.99 408.69 892.84 480.10 C 889.91 496.42 881.65 513.46 866.14 521.05 C 862.67 522.69 858.80 523.20 855.00 523.08 C 822.34 523.03 789.68 523.09 757.02 523.05 C 751.26 523.20 745.84 519.83 742.90 514.98 C 738.50 507.92 737.84 499.19 738.81 491.10 C 739.68 484.81 741.42 478.67 742.72 472.46 C 758.20 403.95 773.68 335.43 789.16 266.92 C 790.74 259.39 793.55 252.09 797.74 245.63 C 802.51 238.30 809.03 231.56 817.47 228.65 M 843.31 301.42 C 834.97 302.93 829.87 311.28 827.93 318.93 C 820.07 353.60 812.30 388.29 804.48 422.97 C 803.34 428.60 801.13 434.45 802.88 440.21 C 803.97 444.42 807.16 448.96 811.96 448.95 C 819.97 449.07 827.99 448.98 836.00 448.99 C 840.43 449.13 844.12 446.09 846.83 442.89 C 850.92 438.09 853.09 432.02 854.23 425.90 C 862.19 390.64 870.17 355.40 878.13 320.15 C 879.29 315.37 878.83 310.08 876.18 305.87 C 874.51 303.05 871.41 301.08 868.08 301.33 C 859.82 301.37 851.55 301.18 843.31 301.42 Z" />
</g>
<g id="#cc2131ff">
<path fill="#cc2131" opacity="1.00" d=" M 580.24 191.33 C 630.16 191.04 680.09 191.25 730.02 191.18 C 733.97 190.96 737.91 192.44 740.76 195.18 C 748.61 202.76 750.40 214.83 748.22 225.15 C 727.04 318.82 705.83 412.48 684.64 506.15 C 681.93 517.62 680.19 529.65 673.86 539.85 C 667.87 550.16 657.47 559.25 644.96 559.23 C 595.64 559.22 546.32 559.15 497.00 559.19 C 491.45 559.47 486.48 555.96 483.44 551.56 C 478.12 543.95 476.88 534.00 478.90 525.05 C 499.75 432.67 520.64 340.30 541.51 247.92 C 544.60 235.44 546.08 222.20 552.93 211.02 C 558.71 201.12 568.33 192.26 580.24 191.33 M 578.51 227.59 C 571.56 229.27 568.57 236.79 566.86 243.00 C 564.15 254.29 561.73 265.66 559.13 276.98 C 557.96 282.38 556.04 288.00 557.76 293.52 C 558.89 297.79 562.14 302.47 567.05 302.30 C 577.01 302.42 586.97 302.15 596.92 302.41 C 601.66 303.26 602.68 309.22 601.68 313.17 C 587.16 377.82 572.44 442.42 557.89 507.06 C 556.76 513.46 558.93 522.33 566.01 524.21 C 573.99 524.60 582.00 524.27 590.00 524.38 C 595.09 524.68 599.86 521.86 602.81 517.85 C 606.83 512.81 607.95 506.33 609.29 500.21 C 622.93 439.78 636.58 379.34 650.22 318.91 C 651.13 314.94 651.76 310.72 654.23 307.36 C 656.04 304.83 658.71 302.43 661.99 302.35 C 672.30 302.20 682.63 302.46 692.95 302.23 C 701.21 301.60 706.41 293.55 708.26 286.18 C 711.08 272.86 713.52 259.47 716.21 246.12 C 717.20 241.32 716.82 236.05 714.16 231.83 C 712.63 229.35 710.02 227.28 706.99 227.34 C 678.32 227.22 649.65 227.43 620.98 227.37 C 606.83 227.52 592.64 227.08 578.51 227.59 Z" />
<path fill="#cc2131" opacity="1.00" d=" M 805.40 191.51 C 819.57 190.94 833.78 191.38 847.97 191.18 C 884.67 191.20 921.38 191.16 958.08 191.20 C 962.93 191.15 967.31 194.13 970.11 197.93 C 977.13 207.44 976.95 220.18 973.72 231.08 C 952.75 323.74 931.80 416.39 910.84 509.04 C 908.76 517.92 907.27 527.07 903.15 535.30 C 898.57 544.73 891.38 553.58 881.36 557.44 C 875.51 559.83 869.09 559.17 862.94 559.25 C 816.63 559.18 770.33 559.18 724.02 559.20 C 718.42 559.53 713.35 556.06 710.29 551.60 C 704.89 543.94 703.72 533.89 705.75 524.88 C 726.99 430.94 748.22 337.00 769.46 243.06 C 771.88 232.75 773.50 222.01 778.82 212.68 C 784.32 202.52 793.53 193.24 805.40 191.51 M 817.47 228.65 C 809.03 231.56 802.51 238.30 797.74 245.63 C 793.55 252.09 790.74 259.39 789.16 266.92 C 773.68 335.43 758.20 403.95 742.72 472.46 C 741.42 478.67 739.68 484.81 738.81 491.10 C 737.84 499.19 738.50 507.92 742.90 514.98 C 745.84 519.83 751.26 523.20 757.02 523.05 C 789.68 523.09 822.34 523.03 855.00 523.08 C 858.80 523.20 862.67 522.69 866.14 521.05 C 881.65 513.46 889.91 496.42 892.84 480.10 C 908.99 408.69 925.15 337.29 941.30 265.88 C 943.06 258.11 943.56 249.84 941.24 242.14 C 939.68 236.96 936.59 231.89 931.65 229.35 C 927.48 227.04 922.56 227.61 918.00 227.56 C 888.66 227.56 859.33 227.56 830.00 227.56 C 825.80 227.58 821.49 227.24 817.47 228.65 Z" />
<path fill="#cc2131" opacity="1.00" d=" M 124.13 192.28 C 125.43 192.09 126.75 191.99 128.07 191.96 C 177.71 191.87 227.35 191.86 276.99 191.88 C 282.49 191.68 287.32 195.34 290.18 199.79 C 295.35 207.71 296.20 217.83 294.11 226.89 C 272.75 321.24 251.41 415.60 230.05 509.95 C 227.98 518.85 226.46 528.03 222.28 536.27 C 217.55 545.89 210.02 554.90 199.60 558.48 C 194.61 560.33 189.23 559.83 184.01 559.88 C 137.33 559.89 90.65 559.85 43.97 559.90 C 39.70 560.21 35.46 558.59 32.42 555.60 C 24.69 548.07 22.69 536.19 24.92 525.94 C 47.14 427.62 69.37 329.32 91.59 231.00 C 94.14 219.49 99.44 208.22 108.30 200.22 C 112.75 196.25 118.20 193.24 124.13 192.28 M 139.19 228.29 C 134.49 229.14 130.20 231.52 126.52 234.50 C 116.95 242.45 110.85 254.02 108.14 266.05 C 91.62 339.04 75.11 412.04 58.59 485.04 C 56.07 496.07 55.92 509.21 63.72 518.25 C 66.81 521.69 71.41 523.60 76.02 523.50 C 113.35 523.62 150.67 523.80 187.99 523.92 C 196.88 523.73 203.13 515.46 205.44 507.59 C 208.58 494.59 211.31 481.49 214.32 468.46 C 215.50 463.55 215.05 458.08 212.27 453.77 C 210.72 451.32 208.08 449.32 205.07 449.45 C 180.37 449.41 155.66 449.46 130.96 449.43 C 127.67 449.64 124.77 447.44 123.21 444.69 C 120.57 440.32 120.41 434.92 121.60 430.07 C 129.79 393.70 137.98 357.33 146.16 320.95 C 147.48 314.72 150.54 308.64 155.61 304.65 C 157.95 302.75 160.91 301.63 163.95 301.81 C 187.30 301.68 210.65 301.79 234.01 301.74 C 237.55 301.62 241.31 302.13 244.61 300.49 C 250.61 297.57 253.89 291.11 255.42 284.90 C 258.29 272.29 261.13 259.67 263.98 247.06 C 265.20 241.87 264.58 236.00 261.36 231.64 C 259.70 229.33 256.94 227.86 254.07 228.06 C 219.04 228.09 184.01 227.96 148.98 228.00 C 145.72 228.03 142.43 227.80 139.19 228.29 Z" />
<path fill="#cc2131" opacity="1.00" d=" M 348.36 192.54 C 350.86 191.86 353.47 191.64 356.06 191.62 C 405.37 191.63 454.68 191.62 503.99 191.63 C 508.54 191.49 512.73 194.04 515.56 197.47 C 522.43 205.94 523.38 217.88 520.65 228.13 C 498.57 325.60 476.54 423.08 454.47 520.54 C 452.03 531.49 447.23 542.21 439.17 550.18 C 433.55 555.75 425.93 559.60 417.91 559.61 C 368.25 559.66 318.58 559.62 268.92 559.54 C 263.65 559.47 259.12 555.93 256.25 551.75 C 250.91 544.01 249.90 533.96 251.96 524.95 C 274.02 427.33 296.11 329.73 318.16 232.11 C 320.50 220.83 325.31 209.76 333.52 201.51 C 337.64 197.39 342.70 194.07 348.36 192.54 M 364.33 228.51 C 353.91 231.98 346.39 240.97 341.41 250.41 C 336.79 258.93 335.32 268.62 333.12 277.94 C 317.51 347.02 301.88 416.10 286.27 485.18 C 284.19 494.53 283.94 504.88 288.51 513.56 C 291.25 518.95 296.81 523.08 303.01 523.04 C 336.33 523.11 369.65 523.03 402.97 523.07 C 407.42 523.18 411.78 521.77 415.57 519.49 C 424.03 514.33 430.13 506.01 434.18 497.10 C 437.53 489.92 438.79 482.03 440.60 474.38 C 456.30 404.96 471.99 335.53 487.69 266.11 C 489.85 256.65 490.22 246.17 485.70 237.32 C 482.99 231.78 477.34 227.53 471.02 227.59 C 439.03 227.52 407.05 227.59 375.06 227.55 C 371.47 227.54 367.79 227.38 364.33 228.51 Z" />
<path fill="#cc2131" opacity="1.00" d=" M 389.38 301.46 C 397.91 301.14 406.47 301.37 415.01 301.34 C 419.82 301.17 423.19 305.55 424.38 309.77 C 426.41 315.89 423.99 322.14 422.77 328.15 C 415.16 361.78 407.54 395.41 399.92 429.03 C 398.59 435.09 395.65 440.90 391.10 445.17 C 388.67 447.48 385.46 449.20 382.02 449.00 C 374.33 448.99 366.65 449.04 358.96 448.98 C 356.31 449.10 353.76 447.87 352.13 445.80 C 348.54 441.42 348.01 435.28 349.33 429.94 C 357.66 392.91 365.97 355.87 374.35 318.85 C 376.34 311.33 381.27 303.20 389.38 301.46 Z" />
<path fill="#cc2131" opacity="1.00" d=" M 843.31 301.42 C 851.55 301.18 859.82 301.37 868.08 301.33 C 871.41 301.08 874.51 303.05 876.18 305.87 C 878.83 310.08 879.29 315.37 878.13 320.15 C 870.17 355.40 862.19 390.64 854.23 425.90 C 853.09 432.02 850.92 438.09 846.83 442.89 C 844.12 446.09 840.43 449.13 836.00 448.99 C 827.99 448.98 819.97 449.07 811.96 448.95 C 807.16 448.96 803.97 444.42 802.88 440.21 C 801.13 434.45 803.34 428.60 804.48 422.97 C 812.30 388.29 820.07 353.60 827.93 318.93 C 829.87 311.28 834.97 302.93 843.31 301.42 Z" />
</g>
</svg>
