<?xml version="1.0" encoding="UTF-8" ?>
<!DOCTYPE svg PUBLIC "-//W3C//DTD SVG 1.1//EN" "http://www.w3.org/Graphics/SVG/1.1/DTD/svg11.dtd">
<svg width="1000pt" height="750pt" viewBox="0 0 1000 750" version="1.1" xmlns="http://www.w3.org/2000/svg">
<g id="#fe0002ff">
<path fill="#fe0002" opacity="1.00" d=" M 0.00 114.56 C 333.33 114.57 666.67 114.54 1000.00 114.58 L 1000.00 620.31 C 666.67 620.31 333.33 620.32 0.00 620.31 L 0.00 114.56 M 232.07 212.16 C 223.72 212.68 215.74 217.64 212.04 225.21 C 207.80 233.25 208.25 244.36 215.08 250.86 C 222.90 257.54 234.74 256.92 243.42 252.28 C 253.92 246.61 258.44 232.02 252.38 221.60 C 248.61 214.33 239.76 211.60 232.07 212.16 M 278.72 215.64 C 267.96 262.20 257.68 308.86 247.29 355.50 C 245.07 367.34 242.86 381.08 250.30 391.58 C 256.08 399.88 266.41 402.75 275.93 403.97 C 291.88 405.62 308.51 404.03 323.21 397.31 C 339.65 389.91 353.36 376.85 361.94 361.03 C 373.07 341.17 377.23 317.76 374.76 295.21 C 373.17 285.90 368.58 276.47 360.13 271.63 C 352.98 267.21 344.24 267.54 336.19 268.15 C 324.36 269.93 314.55 277.71 307.18 286.75 C 312.21 262.98 318.75 239.54 323.49 215.71 C 308.56 215.62 293.64 215.65 278.72 215.64 M 941.20 215.76 C 937.57 233.73 933.28 251.56 929.76 269.55 C 911.08 264.88 890.59 269.52 875.43 281.28 C 859.80 292.98 849.38 310.52 843.81 329.02 C 839.64 342.27 838.22 356.31 839.22 370.15 C 840.26 380.46 844.36 391.09 852.75 397.61 C 861.93 405.06 874.88 405.96 885.95 402.95 C 896.59 399.40 905.43 391.83 912.35 383.17 C 911.80 389.47 911.17 395.77 910.46 402.05 C 912.87 402.86 915.45 402.64 917.96 402.71 C 927.66 402.73 937.37 402.36 947.06 402.98 C 947.63 401.34 948.10 399.66 948.42 397.96 C 952.97 368.68 960.16 339.91 966.34 310.96 C 973.27 279.22 980.50 247.54 987.13 215.74 C 971.82 215.72 956.51 215.68 941.20 215.76 M 101.97 220.77 C 89.46 277.48 77.04 334.21 64.45 390.91 C 63.47 394.78 62.72 398.71 62.42 402.70 C 92.94 402.79 123.46 402.55 153.98 402.60 C 155.59 402.94 156.71 401.56 156.78 400.07 C 158.82 389.34 162.27 378.88 163.37 367.98 C 147.40 367.99 131.43 368.00 115.46 367.99 C 121.13 340.62 127.54 313.41 133.44 286.09 C 138.45 264.37 142.91 242.53 148.18 220.87 C 132.78 220.54 117.37 220.68 101.97 220.77 M 644.84 245.90 C 642.99 253.84 641.13 261.79 639.55 269.80 C 633.48 270.13 627.39 269.72 621.33 270.10 C 619.98 279.34 617.55 288.36 615.86 297.53 C 621.63 297.34 627.42 297.43 633.20 297.68 C 630.28 310.96 627.14 324.20 624.34 337.51 C 621.90 349.24 618.31 360.92 618.69 373.02 C 618.67 381.63 622.03 390.61 628.93 396.04 C 635.69 401.45 644.50 403.46 652.98 404.02 C 663.30 404.00 673.82 404.68 683.90 401.92 C 685.71 392.25 688.00 382.66 689.37 372.91 C 684.06 372.74 678.63 373.62 673.44 372.31 C 669.30 371.30 666.27 367.35 666.22 363.12 C 665.72 354.01 668.92 345.28 670.52 336.43 C 673.48 323.47 676.17 310.45 679.25 297.52 C 688.74 297.44 698.24 297.33 707.74 297.57 C 710.55 288.53 711.92 279.14 714.09 269.95 C 704.47 269.62 694.81 270.49 685.23 269.36 C 688.28 257.75 690.35 245.91 693.08 234.23 C 676.86 237.53 660.90 241.96 644.84 245.90 M 406.67 290.70 C 394.06 304.82 386.45 323.09 384.38 341.85 C 382.75 357.05 383.76 373.89 393.68 386.33 C 403.88 399.32 421.19 403.87 437.04 404.05 C 453.94 404.48 471.07 402.61 487.13 397.15 C 486.94 387.22 485.68 377.36 485.15 367.45 C 471.32 372.11 456.31 375.62 441.80 372.15 C 434.47 370.21 427.08 364.30 427.12 356.10 C 439.46 356.49 451.94 356.30 463.96 353.17 C 476.49 350.31 488.75 344.08 496.52 333.55 C 503.76 323.37 505.79 310.04 503.42 297.91 C 501.10 285.58 491.52 275.31 479.92 270.96 C 470.72 267.19 460.62 267.69 450.90 268.07 C 434.03 269.81 418.01 278.11 406.67 290.70 M 568.77 284.88 C 566.87 287.01 565.47 289.68 562.94 291.17 C 563.45 284.09 564.22 277.03 565.09 269.98 C 552.01 269.73 538.93 269.93 525.86 269.99 C 518.11 314.55 506.94 358.42 497.91 402.71 C 513.18 402.68 528.44 402.67 543.71 402.68 C 547.20 386.42 550.71 370.16 554.28 353.91 C 556.09 346.67 557.12 339.15 560.27 332.32 C 564.35 322.85 571.34 314.29 580.90 310.01 C 586.93 306.95 593.90 307.05 600.47 307.58 C 602.89 294.30 606.45 281.26 608.82 267.98 C 604.18 268.03 599.50 267.54 594.89 268.25 C 584.54 270.45 575.55 276.93 568.77 284.88 M 781.13 268.18 C 770.65 269.31 760.33 272.14 750.90 276.87 C 736.41 283.84 724.56 295.63 716.70 309.58 C 706.29 328.15 701.59 349.86 703.08 371.07 C 703.70 376.18 704.90 381.24 707.00 385.95 C 710.66 394.32 718.19 401.02 727.09 403.27 C 736.41 405.65 746.58 404.77 755.17 400.34 C 764.25 396.06 771.28 388.66 777.38 380.87 C 778.15 388.15 777.11 395.43 776.96 402.71 C 789.97 402.68 802.97 402.67 815.98 402.72 C 816.87 382.67 818.43 362.51 823.18 342.95 C 828.45 319.74 833.84 296.57 839.16 273.37 C 820.29 268.20 800.58 267.05 781.13 268.18 M 201.12 269.97 C 191.44 314.23 181.69 358.49 171.80 402.71 C 187.10 402.72 202.39 402.55 217.68 402.81 C 227.89 358.62 237.08 314.20 247.32 270.02 C 231.92 269.84 216.52 269.91 201.12 269.97 M 578.41 434.14 C 541.25 434.75 504.07 435.51 466.98 437.91 C 412.11 441.12 357.34 446.40 302.89 454.14 C 257.46 460.73 212.20 468.73 167.56 479.51 C 124.39 489.86 81.64 502.62 41.00 520.65 C 48.44 527.26 57.19 532.14 65.66 537.27 C 87.26 549.78 110.21 559.78 133.56 568.52 C 136.41 569.61 139.74 570.19 142.49 568.47 C 159.26 559.87 176.55 552.28 194.09 545.39 C 234.76 529.58 276.60 516.95 318.88 506.24 C 444.51 474.72 573.58 458.20 702.79 451.76 C 710.78 450.64 718.88 451.52 726.88 450.51 C 737.56 449.66 748.30 450.51 758.98 449.47 C 788.20 448.33 817.52 449.73 846.72 448.46 C 827.10 446.48 807.50 444.17 787.84 442.58 C 744.67 438.53 701.35 436.41 658.02 434.98 C 631.48 434.70 604.95 433.69 578.41 434.14 Z" />
<path fill="#fe0002" opacity="1.00" d=" M 771.41 299.49 C 776.48 295.98 783.04 296.38 788.86 297.22 C 785.89 310.85 782.75 324.45 779.64 338.05 C 777.61 346.63 775.18 355.26 770.72 362.93 C 768.60 366.59 765.70 370.06 761.67 371.66 C 757.14 373.09 750.96 371.81 749.15 366.91 C 747.55 361.76 746.84 356.24 747.61 350.88 C 748.89 339.48 752.14 328.34 756.87 317.90 C 760.15 310.72 764.93 304.09 771.41 299.49 Z" />
<path fill="#fe0002" opacity="1.00" d=" M 903.69 302.65 C 908.72 297.20 917.58 295.26 924.10 299.16 C 919.81 317.19 916.51 335.46 912.27 353.51 C 909.82 360.43 906.16 367.59 899.58 371.39 C 894.88 373.40 888.34 371.83 886.13 366.91 C 883.04 360.00 883.85 352.19 885.07 344.94 C 887.82 329.74 892.60 313.94 903.69 302.65 Z" />
<path fill="#fe0002" opacity="1.00" d=" M 442.40 304.29 C 447.18 299.82 455.10 297.04 460.95 301.12 C 466.26 305.96 465.36 315.39 459.93 319.83 C 452.26 326.46 441.52 327.42 431.80 326.99 C 432.58 318.52 436.41 310.32 442.40 304.29 Z" />
<path fill="#fe0002" opacity="1.00" d=" M 316.41 301.44 C 321.16 299.68 326.85 302.98 327.82 307.89 C 329.93 325.58 325.87 343.57 318.31 359.55 C 315.12 365.77 311.21 372.37 304.53 375.31 C 299.94 377.36 293.04 376.16 291.19 370.96 C 288.37 360.77 292.67 350.58 294.75 340.68 C 297.09 332.12 298.34 323.17 302.15 315.08 C 305.12 309.13 309.73 303.29 316.41 301.44 Z" />
</g>
<g id="#ffffffff">
<path fill="#ffffff" opacity="1.00" d=" M 232.07 212.16 C 239.76 211.60 248.61 214.33 252.38 221.60 C 258.44 232.02 253.92 246.61 243.42 252.28 C 234.74 256.92 222.90 257.54 215.08 250.86 C 208.25 244.36 207.80 233.25 212.04 225.21 C 215.74 217.64 223.72 212.68 232.07 212.16 Z" />
<path fill="#ffffff" opacity="1.00" d=" M 278.72 215.64 C 293.64 215.65 308.56 215.62 323.49 215.71 C 318.75 239.54 312.21 262.98 307.18 286.75 C 314.55 277.71 324.36 269.93 336.19 268.15 C 344.24 267.54 352.98 267.21 360.13 271.63 C 368.58 276.47 373.17 285.90 374.76 295.21 C 377.23 317.76 373.07 341.17 361.94 361.03 C 353.36 376.85 339.65 389.91 323.21 397.31 C 308.51 404.03 291.88 405.62 275.93 403.97 C 266.41 402.75 256.08 399.88 250.30 391.58 C 242.86 381.08 245.07 367.34 247.29 355.50 C 257.68 308.86 267.96 262.20 278.72 215.64 M 316.41 301.44 C 309.73 303.29 305.12 309.13 302.15 315.08 C 298.34 323.17 297.09 332.12 294.75 340.68 C 292.67 350.58 288.37 360.77 291.19 370.96 C 293.04 376.16 299.94 377.36 304.53 375.31 C 311.21 372.37 315.12 365.77 318.31 359.55 C 325.87 343.57 329.93 325.58 327.82 307.89 C 326.85 302.98 321.16 299.68 316.41 301.44 Z" />
<path fill="#ffffff" opacity="1.00" d=" M 941.20 215.76 C 956.51 215.68 971.82 215.72 987.13 215.74 C 980.50 247.54 973.27 279.22 966.34 310.96 C 960.16 339.91 952.97 368.68 948.42 397.96 C 948.10 399.66 947.63 401.34 947.06 402.98 C 937.37 402.36 927.66 402.73 917.96 402.71 C 915.45 402.64 912.87 402.86 910.46 402.05 C 911.17 395.77 911.80 389.47 912.35 383.17 C 905.43 391.83 896.59 399.40 885.95 402.95 C 874.88 405.96 861.93 405.06 852.75 397.61 C 844.36 391.09 840.26 380.46 839.22 370.15 C 838.22 356.31 839.64 342.27 843.81 329.02 C 849.38 310.52 859.80 292.98 875.43 281.28 C 890.59 269.52 911.08 264.88 929.76 269.55 C 933.28 251.56 937.57 233.73 941.20 215.76 M 903.69 302.65 C 892.60 313.94 887.82 329.74 885.07 344.94 C 883.85 352.19 883.04 360.00 886.13 366.91 C 888.34 371.83 894.88 373.40 899.58 371.39 C 906.16 367.59 909.82 360.43 912.27 353.51 C 916.51 335.46 919.81 317.19 924.10 299.16 C 917.58 295.26 908.72 297.20 903.69 302.65 Z" />
<path fill="#ffffff" opacity="1.00" d=" M 101.97 220.77 C 117.37 220.68 132.78 220.54 148.18 220.87 C 142.91 242.53 138.45 264.37 133.44 286.09 C 127.54 313.41 121.13 340.62 115.46 367.99 C 131.43 368.00 147.40 367.99 163.37 367.98 C 162.27 378.88 158.82 389.34 156.78 400.07 C 156.71 401.56 155.59 402.94 153.98 402.60 C 123.46 402.55 92.94 402.79 62.42 402.70 C 62.72 398.71 63.47 394.78 64.45 390.91 C 77.04 334.21 89.46 277.48 101.97 220.77 Z" />
<path fill="#ffffff" opacity="1.00" d=" M 644.84 245.90 C 660.90 241.96 676.86 237.53 693.08 234.23 C 690.35 245.91 688.28 257.75 685.23 269.36 C 694.81 270.49 704.47 269.62 714.09 269.95 C 711.92 279.14 710.55 288.53 707.74 297.57 C 698.24 297.33 688.74 297.44 679.25 297.52 C 676.17 310.45 673.48 323.47 670.52 336.43 C 668.92 345.28 665.72 354.01 666.22 363.12 C 666.27 367.35 669.30 371.30 673.44 372.31 C 678.63 373.62 684.06 372.74 689.37 372.91 C 688.00 382.66 685.71 392.25 683.90 401.92 C 673.82 404.68 663.30 404.00 652.98 404.02 C 644.50 403.46 635.69 401.45 628.93 396.04 C 622.03 390.61 618.67 381.63 618.69 373.02 C 618.31 360.92 621.90 349.24 624.34 337.51 C 627.14 324.20 630.28 310.96 633.20 297.68 C 627.42 297.43 621.63 297.34 615.86 297.53 C 617.55 288.36 619.98 279.34 621.33 270.10 C 627.39 269.72 633.48 270.13 639.55 269.80 C 641.13 261.79 642.99 253.84 644.84 245.90 Z" />
<path fill="#ffffff" opacity="1.00" d=" M 406.67 290.70 C 418.01 278.11 434.03 269.81 450.90 268.07 C 460.62 267.69 470.72 267.19 479.92 270.96 C 491.52 275.31 501.10 285.58 503.42 297.91 C 505.79 310.04 503.76 323.37 496.52 333.55 C 488.75 344.08 476.49 350.31 463.96 353.17 C 451.94 356.30 439.46 356.49 427.12 356.10 C 427.08 364.30 434.47 370.21 441.80 372.15 C 456.31 375.62 471.32 372.11 485.15 367.45 C 485.68 377.36 486.94 387.22 487.13 397.15 C 471.07 402.61 453.94 404.48 437.04 404.05 C 421.19 403.87 403.88 399.32 393.68 386.33 C 383.76 373.89 382.75 357.05 384.38 341.85 C 386.45 323.09 394.06 304.82 406.67 290.70 M 442.40 304.29 C 436.41 310.32 432.58 318.52 431.80 326.99 C 441.52 327.42 452.26 326.46 459.93 319.83 C 465.36 315.39 466.26 305.96 460.95 301.12 C 455.10 297.04 447.18 299.82 442.40 304.29 Z" />
<path fill="#ffffff" opacity="1.00" d=" M 568.77 284.88 C 575.55 276.93 584.54 270.45 594.89 268.25 C 599.50 267.54 604.18 268.03 608.82 267.98 C 606.45 281.26 602.89 294.30 600.47 307.58 C 593.90 307.05 586.93 306.95 580.90 310.01 C 571.34 314.29 564.35 322.85 560.27 332.32 C 557.12 339.15 556.09 346.67 554.28 353.91 C 550.71 370.16 547.20 386.42 543.71 402.68 C 528.44 402.67 513.18 402.68 497.91 402.71 C 506.94 358.42 518.11 314.55 525.86 269.99 C 538.93 269.93 552.01 269.73 565.09 269.98 C 564.22 277.03 563.45 284.09 562.94 291.17 C 565.47 289.68 566.87 287.01 568.77 284.88 Z" />
<path fill="#ffffff" opacity="1.00" d=" M 781.13 268.18 C 800.58 267.05 820.29 268.20 839.16 273.37 C 833.84 296.57 828.45 319.74 823.18 342.95 C 818.43 362.51 816.87 382.67 815.98 402.72 C 802.97 402.67 789.97 402.68 776.96 402.71 C 777.11 395.43 778.15 388.15 777.38 380.87 C 771.28 388.66 764.25 396.06 755.17 400.34 C 746.58 404.77 736.41 405.65 727.09 403.27 C 718.19 401.02 710.66 394.32 707.00 385.95 C 704.90 381.24 703.70 376.18 703.08 371.07 C 701.59 349.86 706.29 328.15 716.70 309.58 C 724.56 295.63 736.41 283.84 750.90 276.87 C 760.33 272.14 770.65 269.31 781.13 268.18 M 771.41 299.49 C 764.93 304.09 760.15 310.72 756.87 317.90 C 752.14 328.34 748.89 339.48 747.61 350.88 C 746.84 356.24 747.55 361.76 749.15 366.91 C 750.96 371.81 757.14 373.09 761.67 371.66 C 765.70 370.06 768.60 366.59 770.72 362.93 C 775.18 355.26 777.61 346.63 779.64 338.05 C 782.75 324.45 785.89 310.85 788.86 297.22 C 783.04 296.38 776.48 295.98 771.41 299.49 Z" />
<path fill="#ffffff" opacity="1.00" d=" M 201.12 269.97 C 216.52 269.91 231.92 269.84 247.32 270.02 C 237.08 314.20 227.89 358.62 217.68 402.81 C 202.39 402.55 187.10 402.72 171.80 402.71 C 181.69 358.49 191.44 314.23 201.12 269.97 Z" />
<path fill="#ffffff" opacity="1.00" d=" M 578.41 434.14 C 604.95 433.69 631.48 434.70 658.02 434.98 C 701.35 436.41 744.67 438.53 787.84 442.58 C 807.50 444.17 827.10 446.48 846.72 448.46 C 817.52 449.73 788.20 448.33 758.98 449.47 C 748.30 450.51 737.56 449.66 726.88 450.51 C 718.88 451.52 710.78 450.64 702.79 451.76 C 573.58 458.20 444.51 474.72 318.88 506.24 C 276.60 516.95 234.76 529.58 194.09 545.39 C 176.55 552.28 159.26 559.87 142.49 568.47 C 139.74 570.19 136.41 569.61 133.56 568.52 C 110.21 559.78 87.26 549.78 65.66 537.27 C 57.19 532.14 48.44 527.26 41.00 520.65 C 81.64 502.62 124.39 489.86 167.56 479.51 C 212.20 468.73 257.46 460.73 302.89 454.14 C 357.34 446.40 412.11 441.12 466.98 437.91 C 504.07 435.51 541.25 434.75 578.41 434.14 Z" />
</g>
</svg>
